<svg width="915" height="586" viewBox="0 0 915 586" fill="none" xmlns="http://www.w3.org/2000/svg">
<mask id="path-1-inside-1_69_43" fill="white">
<path d="M284.79 2.99999H335.19C351.59 2.99999 363.89 7.39999 372.09 16.2C380.29 25 384.39 37.9 384.39 54.9V161.1C384.39 178.1 380.29 191 372.09 199.8C363.89 208.6 351.59 213 335.19 213H284.79V2.99999ZM334.59 183C339.99 183 344.09 181.4 346.89 178.2C349.89 175 351.39 169.8 351.39 162.6V53.4C351.39 46.2 349.89 41 346.89 37.8C344.09 34.6 339.99 33 334.59 33H317.79V183H334.59ZM454.365 216C438.165 216 425.765 211.4 417.165 202.2C408.565 193 404.265 180 404.265 163.2V52.8C404.265 36 408.565 23 417.165 13.8C425.765 4.59999 438.165 -1.14441e-05 454.365 -1.14441e-05C470.565 -1.14441e-05 482.965 4.59999 491.565 13.8C500.165 23 504.465 36 504.465 52.8V163.2C504.465 180 500.165 193 491.565 202.2C482.965 211.4 470.565 216 454.365 216ZM454.365 186C465.765 186 471.465 179.1 471.465 165.3V50.7C471.465 36.9 465.765 30 454.365 30C442.965 30 437.265 36.9 437.265 50.7V165.3C437.265 179.1 442.965 186 454.365 186ZM526.782 2.99999H568.182L600.282 128.7H600.882V2.99999H630.282V213H596.382L556.782 59.7H556.182V213H526.782V2.99999ZM48.8684 586C33.0684 586 20.9684 581.5 12.5684 572.5C4.36836 563.5 0.26836 550.8 0.26836 534.4V421.6C0.26836 405.2 4.36836 392.5 12.5684 383.5C20.9684 374.5 33.0684 370 48.8684 370C64.6684 370 76.6684 374.5 84.8684 383.5C93.2684 392.5 97.4684 405.2 97.4684 421.6V443.8H66.2684V419.5C66.2684 406.5 60.7684 400 49.7684 400C38.7684 400 33.2684 406.5 33.2684 419.5V536.8C33.2684 549.6 38.7684 556 49.7684 556C60.7684 556 66.2684 549.6 66.2684 536.8V504.7H97.4684V534.4C97.4684 550.8 93.2684 563.5 84.8684 572.5C76.6684 581.5 64.6684 586 48.8684 586ZM165.498 586C149.298 586 136.898 581.4 128.298 572.2C119.698 563 115.398 550 115.398 533.2V422.8C115.398 406 119.698 393 128.298 383.8C136.898 374.6 149.298 370 165.498 370C181.698 370 194.098 374.6 202.698 383.8C211.298 393 215.598 406 215.598 422.8V533.2C215.598 550 211.298 563 202.698 572.2C194.098 581.4 181.698 586 165.498 586ZM165.498 556C176.898 556 182.598 549.1 182.598 535.3V420.7C182.598 406.9 176.898 400 165.498 400C154.098 400 148.398 406.9 148.398 420.7V535.3C148.398 549.1 154.098 556 165.498 556ZM237.915 373H325.215V403H270.915V461.5H313.515V491.5H270.915V583H237.915V373ZM341.04 373H428.34V403H374.04V461.5H416.64V491.5H374.04V583H341.04V373ZM444.165 373H534.165V403H477.165V458.5H522.465V488.5H477.165V553H534.165V583H444.165V373ZM553.15 373H586.15V553H640.45V583H553.15V373ZM656.275 373H689.275V553H743.575V583H656.275V373ZM759.4 373H792.4V583H759.4V373ZM864.814 586C848.614 586 836.214 581.4 827.614 572.2C819.014 563 814.714 550 814.714 533.2V422.8C814.714 406 819.014 393 827.614 383.8C836.214 374.6 848.614 370 864.814 370C881.014 370 893.414 374.6 902.014 383.8C910.614 393 914.914 406 914.914 422.8V533.2C914.914 550 910.614 563 902.014 572.2C893.414 581.4 881.014 586 864.814 586ZM864.814 556C876.214 556 881.914 549.1 881.914 535.3V420.7C881.914 406.9 876.214 400 864.814 400C853.414 400 847.714 406.9 847.714 420.7V535.3C847.714 549.1 853.414 556 864.814 556Z"/>
</mask>
<path d="M284.79 2.99998V1.99998H283.79V2.99998H284.79ZM372.09 16.2L371.359 16.8817L372.09 16.2ZM284.79 213H283.79V214H284.79V213ZM346.89 178.2L346.161 177.516L346.149 177.529L346.138 177.541L346.89 178.2ZM346.89 37.8L346.138 38.4585L346.149 38.4714L346.161 38.4839L346.89 37.8ZM317.79 33V32H316.79V33H317.79ZM317.79 183H316.79V184H317.79V183ZM284.79 3.99998H335.19V1.99998H284.79V3.99998ZM335.19 3.99998C351.417 3.99998 363.409 8.35027 371.359 16.8817L372.822 15.5183C364.372 6.44971 351.763 1.99998 335.19 1.99998V3.99998ZM371.359 16.8817C379.326 25.4321 383.39 38.0484 383.39 54.9H385.39C385.39 37.7516 381.254 24.5679 372.822 15.5183L371.359 16.8817ZM383.39 54.9V161.1H385.39V54.9H383.39ZM383.39 161.1C383.39 177.952 379.326 190.568 371.359 199.118L372.822 200.482C381.254 191.432 385.39 178.248 385.39 161.1H383.39ZM371.359 199.118C363.409 207.65 351.417 212 335.19 212V214C351.763 214 364.372 209.55 372.822 200.482L371.359 199.118ZM335.19 212H284.79V214H335.19V212ZM285.79 213V2.99998H283.79V213H285.79ZM334.59 184C340.195 184 344.604 182.331 347.643 178.859L346.138 177.541C343.576 180.469 339.785 182 334.59 182V184ZM347.62 178.884C350.876 175.411 352.39 169.9 352.39 162.6H350.39C350.39 169.7 348.905 174.589 346.161 177.516L347.62 178.884ZM352.39 162.6V53.4H350.39V162.6H352.39ZM352.39 53.4C352.39 46.0996 350.876 40.5893 347.62 37.116L346.161 38.4839C348.905 41.4107 350.39 46.3004 350.39 53.4H352.39ZM347.643 37.1415C344.604 33.6686 340.195 32 334.59 32V34C339.785 34 343.576 35.5314 346.138 38.4585L347.643 37.1415ZM334.59 32H317.79V34H334.59V32ZM316.79 33V183H318.79V33H316.79ZM317.79 184H334.59V182H317.79V184ZM417.165 202.2L417.896 201.517L417.165 202.2ZM417.165 13.8L417.896 14.4829L417.165 13.8ZM491.565 13.8L490.835 14.4829L491.565 13.8ZM491.565 202.2L490.835 201.517L491.565 202.2ZM454.365 215C438.358 215 426.256 210.461 417.896 201.517L416.435 202.883C425.274 212.339 437.972 217 454.365 217V215ZM417.896 201.517C409.52 192.557 405.265 179.833 405.265 163.2H403.265C403.265 180.167 407.61 193.443 416.435 202.883L417.896 201.517ZM405.265 163.2V52.8H403.265V163.2H405.265ZM405.265 52.8C405.265 36.167 409.52 23.4428 417.896 14.4829L416.435 13.1171C407.61 22.5572 403.265 35.833 403.265 52.8H405.265ZM417.896 14.4829C426.256 5.5392 438.358 0.999989 454.365 0.999989V-1.00001C437.972 -1.00001 425.274 3.66077 416.435 13.1171L417.896 14.4829ZM454.365 0.999989C470.372 0.999989 482.474 5.5392 490.835 14.4829L492.296 13.1171C483.456 3.66077 470.758 -1.00001 454.365 -1.00001V0.999989ZM490.835 14.4829C499.21 23.4428 503.465 36.167 503.465 52.8H505.465C505.465 35.833 501.12 22.5572 492.296 13.1171L490.835 14.4829ZM503.465 52.8V163.2H505.465V52.8H503.465ZM503.465 163.2C503.465 179.833 499.21 192.557 490.835 201.517L492.296 202.883C501.12 193.443 505.465 180.167 505.465 163.2H503.465ZM490.835 201.517C482.474 210.461 470.372 215 454.365 215V217C470.758 217 483.456 212.339 492.296 202.883L490.835 201.517ZM454.365 187C460.275 187 464.871 185.202 467.961 181.462C471.021 177.758 472.465 172.313 472.465 165.3H470.465C470.465 172.087 469.06 176.992 466.419 180.188C463.809 183.348 459.855 185 454.365 185V187ZM472.465 165.3V50.7H470.465V165.3H472.465ZM472.465 50.7C472.465 43.6874 471.021 38.242 467.961 34.5381C464.871 30.7977 460.275 29 454.365 29V31C459.855 31 463.809 32.6523 466.419 35.8119C469.06 39.008 470.465 43.9126 470.465 50.7H472.465ZM454.365 29C448.455 29 443.859 30.7977 440.769 34.5381C437.71 38.242 436.265 43.6874 436.265 50.7H438.265C438.265 43.9126 439.671 39.008 442.311 35.8119C444.921 32.6523 448.875 31 454.365 31V29ZM436.265 50.7V165.3H438.265V50.7H436.265ZM436.265 165.3C436.265 172.313 437.71 177.758 440.769 181.462C443.859 185.202 448.455 187 454.365 187V185C448.875 185 444.921 183.348 442.311 180.188C439.671 176.992 438.265 172.087 438.265 165.3H436.265ZM526.782 2.99998V1.99998H525.782V2.99998H526.782ZM568.182 2.99998L569.151 2.75256L568.959 1.99998H568.182V2.99998ZM600.282 128.7L599.314 128.947L599.506 129.7H600.282V128.7ZM600.882 128.7V129.7H601.882V128.7H600.882ZM600.882 2.99998V1.99998H599.882V2.99998H600.882ZM630.282 2.99998H631.282V1.99998H630.282V2.99998ZM630.282 213V214H631.282V213H630.282ZM596.382 213L595.414 213.25L595.608 214H596.382V213ZM556.782 59.7L557.751 59.4499L557.557 58.7H556.782V59.7ZM556.182 59.7V58.7H555.182V59.7H556.182ZM556.182 213V214H557.182V213H556.182ZM526.782 213H525.782V214H526.782V213ZM526.782 3.99998H568.182V1.99998H526.782V3.99998ZM567.214 3.24741L599.314 128.947L601.251 128.453L569.151 2.75256L567.214 3.24741ZM600.282 129.7H600.882V127.7H600.282V129.7ZM601.882 128.7V2.99998H599.882V128.7H601.882ZM600.882 3.99998H630.282V1.99998H600.882V3.99998ZM629.282 2.99998V213H631.282V2.99998H629.282ZM630.282 212H596.382V214H630.282V212ZM597.351 212.75L557.751 59.4499L555.814 59.9501L595.414 213.25L597.351 212.75ZM556.782 58.7H556.182V60.7H556.782V58.7ZM555.182 59.7V213H557.182V59.7H555.182ZM556.182 212H526.782V214H556.182V212ZM527.782 213V2.99998H525.782V213H527.782ZM12.5684 572.5L11.8291 573.174L11.8373 573.182L12.5684 572.5ZM12.5684 383.5L11.8373 382.818L11.8292 382.827L12.5684 383.5ZM84.8684 383.5L84.1291 384.174L84.1373 384.182L84.8684 383.5ZM97.4684 443.8V444.8H98.4684V443.8H97.4684ZM66.2684 443.8H65.2684V444.8H66.2684V443.8ZM66.2684 504.7V503.7H65.2684V504.7H66.2684ZM97.4684 504.7H98.4684V503.7H97.4684V504.7ZM84.8684 572.5L84.1373 571.818L84.1292 571.827L84.8684 572.5ZM48.8684 585C33.2624 585 21.4602 580.561 13.2994 571.818L11.8373 573.182C20.4765 582.439 32.8743 587 48.8684 587V585ZM13.3076 571.827C5.32633 563.067 1.26836 550.639 1.26836 534.4H-0.73164C-0.73164 550.961 3.41039 563.933 11.8292 573.173L13.3076 571.827ZM1.26836 534.4V421.6H-0.73164V534.4H1.26836ZM1.26836 421.6C1.26836 405.361 5.32633 392.933 13.3076 384.173L11.8292 382.827C3.41039 392.067 -0.73164 405.039 -0.73164 421.6H1.26836ZM13.2994 384.182C21.4602 375.439 33.2624 371 48.8684 371V369C32.8743 369 20.4765 373.561 11.8373 382.818L13.2994 384.182ZM48.8684 371C64.4757 371 76.1711 375.439 84.1292 384.173L85.6076 382.827C77.1656 373.561 64.861 369 48.8684 369V371ZM84.1373 384.182C92.3136 392.943 96.4684 405.367 96.4684 421.6H98.4684C98.4684 405.033 94.2232 392.057 85.5994 382.818L84.1373 384.182ZM96.4684 421.6V443.8H98.4684V421.6H96.4684ZM97.4684 442.8H66.2684V444.8H97.4684V442.8ZM67.2684 443.8V419.5H65.2684V443.8H67.2684ZM67.2684 419.5C67.2684 412.883 65.8721 407.734 62.9067 404.229C59.9143 400.693 55.4703 399 49.7684 399V401C55.0664 401 58.8724 402.557 61.38 405.521C63.9146 408.516 65.2684 413.117 65.2684 419.5H67.2684ZM49.7684 399C44.0664 399 39.6224 400.693 36.63 404.229C33.6646 407.734 32.2684 412.883 32.2684 419.5H34.2684C34.2684 413.117 35.6221 408.516 38.1567 405.521C40.6643 402.557 44.4703 401 49.7684 401V399ZM32.2684 419.5V536.8H34.2684V419.5H32.2684ZM32.2684 536.8C32.2684 543.32 33.6659 548.397 36.6349 551.852C39.6289 555.336 44.0713 557 49.7684 557V555C44.4654 555 40.6579 553.464 38.1518 550.548C35.6208 547.603 34.2684 543.08 34.2684 536.8H32.2684ZM49.7684 557C55.4654 557 59.9079 555.336 62.9018 551.852C65.8708 548.397 67.2684 543.32 67.2684 536.8H65.2684C65.2684 543.08 63.9159 547.603 61.3849 550.548C58.8789 553.464 55.0713 555 49.7684 555V557ZM67.2684 536.8V504.7H65.2684V536.8H67.2684ZM66.2684 505.7H97.4684V503.7H66.2684V505.7ZM96.4684 504.7V534.4H98.4684V504.7H96.4684ZM96.4684 534.4C96.4684 550.633 92.3136 563.057 84.1373 571.818L85.5994 573.182C94.2232 563.943 98.4684 550.967 98.4684 534.4H96.4684ZM84.1292 571.827C76.1711 580.561 64.4757 585 48.8684 585V587C64.861 587 77.1656 582.439 85.6076 573.173L84.1292 571.827ZM128.298 572.2L129.029 571.517L128.298 572.2ZM128.298 383.8L129.029 384.483L128.298 383.8ZM202.698 383.8L201.968 384.483L202.698 383.8ZM202.698 572.2L201.968 571.517L202.698 572.2ZM165.498 585C149.491 585 137.389 580.461 129.029 571.517L127.568 572.883C136.407 582.339 149.105 587 165.498 587V585ZM129.029 571.517C120.653 562.557 116.398 549.833 116.398 533.2H114.398C114.398 550.167 118.743 563.443 127.568 572.883L129.029 571.517ZM116.398 533.2V422.8H114.398V533.2H116.398ZM116.398 422.8C116.398 406.167 120.653 393.443 129.029 384.483L127.568 383.117C118.743 392.557 114.398 405.833 114.398 422.8H116.398ZM129.029 384.483C137.389 375.539 149.491 371 165.498 371V369C149.105 369 136.407 373.661 127.568 383.117L129.029 384.483ZM165.498 371C181.505 371 193.607 375.539 201.968 384.483L203.429 383.117C194.589 373.661 181.891 369 165.498 369V371ZM201.968 384.483C210.343 393.443 214.598 406.167 214.598 422.8H216.598C216.598 405.833 212.253 392.557 203.429 383.117L201.968 384.483ZM214.598 422.8V533.2H216.598V422.8H214.598ZM214.598 533.2C214.598 549.833 210.343 562.557 201.968 571.517L203.429 572.883C212.253 563.443 216.598 550.167 216.598 533.2H214.598ZM201.968 571.517C193.607 580.461 181.505 585 165.498 585V587C181.891 587 194.589 582.339 203.429 572.883L201.968 571.517ZM165.498 557C171.408 557 176.004 555.202 179.094 551.462C182.154 547.758 183.598 542.313 183.598 535.3H181.598C181.598 542.087 180.192 546.992 177.552 550.188C174.942 553.348 170.988 555 165.498 555V557ZM183.598 535.3V420.7H181.598V535.3H183.598ZM183.598 420.7C183.598 413.687 182.154 408.242 179.094 404.538C176.004 400.798 171.408 399 165.498 399V401C170.988 401 174.942 402.652 177.552 405.812C180.192 409.008 181.598 413.913 181.598 420.7H183.598ZM165.498 399C159.588 399 154.992 400.798 151.902 404.538C148.842 408.242 147.398 413.687 147.398 420.7H149.398C149.398 413.913 150.804 409.008 153.444 405.812C156.054 402.652 160.008 401 165.498 401V399ZM147.398 420.7V535.3H149.398V420.7H147.398ZM147.398 535.3C147.398 542.313 148.842 547.758 151.902 551.462C154.992 555.202 159.588 557 165.498 557V555C160.008 555 156.054 553.348 153.444 550.188C150.804 546.992 149.398 542.087 149.398 535.3H147.398ZM237.915 373V372H236.915V373H237.915ZM325.215 373H326.215V372H325.215V373ZM325.215 403V404H326.215V403H325.215ZM270.915 403V402H269.915V403H270.915ZM270.915 461.5H269.915V462.5H270.915V461.5ZM313.515 461.5H314.515V460.5H313.515V461.5ZM313.515 491.5V492.5H314.515V491.5H313.515ZM270.915 491.5V490.5H269.915V491.5H270.915ZM270.915 583V584H271.915V583H270.915ZM237.915 583H236.915V584H237.915V583ZM237.915 374H325.215V372H237.915V374ZM324.215 373V403H326.215V373H324.215ZM325.215 402H270.915V404H325.215V402ZM269.915 403V461.5H271.915V403H269.915ZM270.915 462.5H313.515V460.5H270.915V462.5ZM312.515 461.5V491.5H314.515V461.5H312.515ZM313.515 490.5H270.915V492.5H313.515V490.5ZM269.915 491.5V583H271.915V491.5H269.915ZM270.915 582H237.915V584H270.915V582ZM238.915 583V373H236.915V583H238.915ZM341.04 373V372H340.04V373H341.04ZM428.34 373H429.34V372H428.34V373ZM428.34 403V404H429.34V403H428.34ZM374.04 403V402H373.04V403H374.04ZM374.04 461.5H373.04V462.5H374.04V461.5ZM416.64 461.5H417.64V460.5H416.64V461.5ZM416.64 491.5V492.5H417.64V491.5H416.64ZM374.04 491.5V490.5H373.04V491.5H374.04ZM374.04 583V584H375.04V583H374.04ZM341.04 583H340.04V584H341.04V583ZM341.04 374H428.34V372H341.04V374ZM427.34 373V403H429.34V373H427.34ZM428.34 402H374.04V404H428.34V402ZM373.04 403V461.5H375.04V403H373.04ZM374.04 462.5H416.64V460.5H374.04V462.5ZM415.64 461.5V491.5H417.64V461.5H415.64ZM416.64 490.5H374.04V492.5H416.64V490.5ZM373.04 491.5V583H375.04V491.5H373.04ZM374.04 582H341.04V584H374.04V582ZM342.04 583V373H340.04V583H342.04ZM444.165 373V372H443.165V373H444.165ZM534.165 373H535.165V372H534.165V373ZM534.165 403V404H535.165V403H534.165ZM477.165 403V402H476.165V403H477.165ZM477.165 458.5H476.165V459.5H477.165V458.5ZM522.465 458.5H523.465V457.5H522.465V458.5ZM522.465 488.5V489.5H523.465V488.5H522.465ZM477.165 488.5V487.5H476.165V488.5H477.165ZM477.165 553H476.165V554H477.165V553ZM534.165 553H535.165V552H534.165V553ZM534.165 583V584H535.165V583H534.165ZM444.165 583H443.165V584H444.165V583ZM444.165 374H534.165V372H444.165V374ZM533.165 373V403H535.165V373H533.165ZM534.165 402H477.165V404H534.165V402ZM476.165 403V458.5H478.165V403H476.165ZM477.165 459.5H522.465V457.5H477.165V459.5ZM521.465 458.5V488.5H523.465V458.5H521.465ZM522.465 487.5H477.165V489.5H522.465V487.5ZM476.165 488.5V553H478.165V488.5H476.165ZM477.165 554H534.165V552H477.165V554ZM533.165 553V583H535.165V553H533.165ZM534.165 582H444.165V584H534.165V582ZM445.165 583V373H443.165V583H445.165ZM553.15 373V372H552.15V373H553.15ZM586.15 373H587.15V372H586.15V373ZM586.15 553H585.15V554H586.15V553ZM640.45 553H641.45V552H640.45V553ZM640.45 583V584H641.45V583H640.45ZM553.15 583H552.15V584H553.15V583ZM553.15 374H586.15V372H553.15V374ZM585.15 373V553H587.15V373H585.15ZM586.15 554H640.45V552H586.15V554ZM639.45 553V583H641.45V553H639.45ZM640.45 582H553.15V584H640.45V582ZM554.15 583V373H552.15V583H554.15ZM656.275 373V372H655.275V373H656.275ZM689.275 373H690.275V372H689.275V373ZM689.275 553H688.275V554H689.275V553ZM743.575 553H744.575V552H743.575V553ZM743.575 583V584H744.575V583H743.575ZM656.275 583H655.275V584H656.275V583ZM656.275 374H689.275V372H656.275V374ZM688.275 373V553H690.275V373H688.275ZM689.275 554H743.575V552H689.275V554ZM742.575 553V583H744.575V553H742.575ZM743.575 582H656.275V584H743.575V582ZM657.275 583V373H655.275V583H657.275ZM759.4 373V372H758.4V373H759.4ZM792.4 373H793.4V372H792.4V373ZM792.4 583V584H793.4V583H792.4ZM759.4 583H758.4V584H759.4V583ZM759.4 374H792.4V372H759.4V374ZM791.4 373V583H793.4V373H791.4ZM792.4 582H759.4V584H792.4V582ZM760.4 583V373H758.4V583H760.4ZM827.614 572.2L828.345 571.517L827.614 572.2ZM827.614 383.8L828.345 384.483L827.614 383.8ZM902.014 383.8L901.284 384.483L902.014 383.8ZM902.014 572.2L901.284 571.517L902.014 572.2ZM864.814 585C848.807 585 836.705 580.461 828.345 571.517L826.884 572.883C835.724 582.339 848.421 587 864.814 587V585ZM828.345 571.517C819.969 562.557 815.714 549.833 815.714 533.2H813.714C813.714 550.167 818.06 563.443 826.884 572.883L828.345 571.517ZM815.714 533.2V422.8H813.714V533.2H815.714ZM815.714 422.8C815.714 406.167 819.969 393.443 828.345 384.483L826.884 383.117C818.06 392.557 813.714 405.833 813.714 422.8H815.714ZM828.345 384.483C836.705 375.539 848.807 371 864.814 371V369C848.421 369 835.724 373.661 826.884 383.117L828.345 384.483ZM864.814 371C880.821 371 892.924 375.539 901.284 384.483L902.745 383.117C893.905 373.661 881.208 369 864.814 369V371ZM901.284 384.483C909.66 393.443 913.914 406.167 913.914 422.8H915.914C915.914 405.833 911.569 392.557 902.745 383.117L901.284 384.483ZM913.914 422.8V533.2H915.914V422.8H913.914ZM913.914 533.2C913.914 549.833 909.66 562.557 901.284 571.517L902.745 572.883C911.569 563.443 915.914 550.167 915.914 533.2H913.914ZM901.284 571.517C892.924 580.461 880.821 585 864.814 585V587C881.208 587 893.905 582.339 902.745 572.883L901.284 571.517ZM864.814 557C870.724 557 875.32 555.202 878.41 551.462C881.47 547.758 882.914 542.313 882.914 535.3H880.914C880.914 542.087 879.509 546.992 876.868 550.188C874.258 553.348 870.305 555 864.814 555V557ZM882.914 535.3V420.7H880.914V535.3H882.914ZM882.914 420.7C882.914 413.687 881.47 408.242 878.41 404.538C875.32 400.798 870.724 399 864.814 399V401C870.305 401 874.258 402.652 876.868 405.812C879.509 409.008 880.914 413.913 880.914 420.7H882.914ZM864.814 399C858.905 399 854.308 400.798 851.219 404.538C848.159 408.242 846.714 413.687 846.714 420.7H848.714C848.714 413.913 850.12 409.008 852.76 405.812C855.37 402.652 859.324 401 864.814 401V399ZM846.714 420.7V535.3H848.714V420.7H846.714ZM846.714 535.3C846.714 542.313 848.159 547.758 851.219 551.462C854.308 555.202 858.905 557 864.814 557V555C859.324 555 855.37 553.348 852.76 550.188C850.12 546.992 848.714 542.087 848.714 535.3H846.714Z" fill="white" mask="url(#path-1-inside-1_69_43)"/>
</svg>
