<svg width="915" height="586" viewBox="0 0 915 586" fill="none" xmlns="http://www.w3.org/2000/svg">
<path d="M284.79 2.99999H335.19C351.59 2.99999 363.89 7.39999 372.09 16.2C380.29 25 384.39 37.9 384.39 54.9V161.1C384.39 178.1 380.29 191 372.09 199.8C363.89 208.6 351.59 213 335.19 213H284.79V2.99999ZM334.59 183C339.99 183 344.09 181.4 346.89 178.2C349.89 175 351.39 169.8 351.39 162.6V53.4C351.39 46.2 349.89 41 346.89 37.8C344.09 34.6 339.99 33 334.59 33H317.79V183H334.59ZM454.365 216C438.165 216 425.765 211.4 417.165 202.2C408.565 193 404.265 180 404.265 163.2V52.8C404.265 36 408.565 23 417.165 13.8C425.765 4.59999 438.165 -1.14441e-05 454.365 -1.14441e-05C470.565 -1.14441e-05 482.965 4.59999 491.565 13.8C500.165 23 504.465 36 504.465 52.8V163.2C504.465 180 500.165 193 491.565 202.2C482.965 211.4 470.565 216 454.365 216ZM454.365 186C465.765 186 471.465 179.1 471.465 165.3V50.7C471.465 36.9 465.765 30 454.365 30C442.965 30 437.265 36.9 437.265 50.7V165.3C437.265 179.1 442.965 186 454.365 186ZM526.782 2.99999H568.182L600.282 128.7H600.882V2.99999H630.282V213H596.382L556.782 59.7H556.182V213H526.782V2.99999ZM48.8684 586C33.0684 586 20.9684 581.5 12.5684 572.5C4.36836 563.5 0.26836 550.8 0.26836 534.4V421.6C0.26836 405.2 4.36836 392.5 12.5684 383.5C20.9684 374.5 33.0684 370 48.8684 370C64.6684 370 76.6684 374.5 84.8684 383.5C93.2684 392.5 97.4684 405.2 97.4684 421.6V443.8H66.2684V419.5C66.2684 406.5 60.7684 400 49.7684 400C38.7684 400 33.2684 406.5 33.2684 419.5V536.8C33.2684 549.6 38.7684 556 49.7684 556C60.7684 556 66.2684 549.6 66.2684 536.8V504.7H97.4684V534.4C97.4684 550.8 93.2684 563.5 84.8684 572.5C76.6684 581.5 64.6684 586 48.8684 586ZM165.498 586C149.298 586 136.898 581.4 128.298 572.2C119.698 563 115.398 550 115.398 533.2V422.8C115.398 406 119.698 393 128.298 383.8C136.898 374.6 149.298 370 165.498 370C181.698 370 194.098 374.6 202.698 383.8C211.298 393 215.598 406 215.598 422.8V533.2C215.598 550 211.298 563 202.698 572.2C194.098 581.4 181.698 586 165.498 586ZM165.498 556C176.898 556 182.598 549.1 182.598 535.3V420.7C182.598 406.9 176.898 400 165.498 400C154.098 400 148.398 406.9 148.398 420.7V535.3C148.398 549.1 154.098 556 165.498 556ZM237.915 373H325.215V403H270.915V461.5H313.515V491.5H270.915V583H237.915V373ZM341.04 373H428.34V403H374.04V461.5H416.64V491.5H374.04V583H341.04V373ZM444.165 373H534.165V403H477.165V458.5H522.465V488.5H477.165V553H534.165V583H444.165V373ZM553.15 373H586.15V553H640.45V583H553.15V373ZM656.275 373H689.275V553H743.575V583H656.275V373ZM759.4 373H792.4V583H759.4V373ZM864.814 586C848.614 586 836.214 581.4 827.614 572.2C819.014 563 814.714 550 814.714 533.2V422.8C814.714 406 819.014 393 827.614 383.8C836.214 374.6 848.614 370 864.814 370C881.014 370 893.414 374.6 902.014 383.8C910.614 393 914.914 406 914.914 422.8V533.2C914.914 550 910.614 563 902.014 572.2C893.414 581.4 881.014 586 864.814 586ZM864.814 556C876.214 556 881.914 549.1 881.914 535.3V420.7C881.914 406.9 876.214 400 864.814 400C853.414 400 847.714 406.9 847.714 420.7V535.3C847.714 549.1 853.414 556 864.814 556Z" fill="black"/>
</svg>
