<svg width="712" height="467" viewBox="0 0 712 467" fill="none" xmlns="http://www.w3.org/2000/svg">
<mask id="path-1-inside-1_122_3" fill="white">
<path d="M306.467 106.5C298.467 106.5 292.367 104.25 288.167 99.75C283.967 95.15 281.867 88.6 281.867 80.1V-7.15256e-06H298.367V81.3C298.367 84.9 299.067 87.5 300.467 89.1C301.967 90.7 304.067 91.5 306.767 91.5C309.467 91.5 311.517 90.7 312.917 89.1C314.417 87.5 315.167 84.9 315.167 81.3V-7.15256e-06H331.067V80.1C331.067 88.6 328.967 95.15 324.767 99.75C320.567 104.25 314.467 106.5 306.467 106.5ZM375.819 -7.15256e-06H396.519L412.569 62.85H412.869V-7.15256e-06H427.569V105H410.619L390.819 28.35H390.519V105H375.819V-7.15256e-06ZM223.059 286.5C215.159 286.5 209.109 284.25 204.909 279.75C200.809 275.25 198.759 268.9 198.759 260.7V204.3C198.759 196.1 200.809 189.75 204.909 185.25C209.109 180.75 215.159 178.5 223.059 178.5C230.959 178.5 236.959 180.75 241.059 185.25C245.259 189.75 247.359 196.1 247.359 204.3V215.4H231.759V203.25C231.759 196.75 229.009 193.5 223.509 193.5C218.009 193.5 215.259 196.75 215.259 203.25V261.9C215.259 268.3 218.009 271.5 223.509 271.5C229.009 271.5 231.759 268.3 231.759 261.9V245.85H247.359V260.7C247.359 268.9 245.259 275.25 241.059 279.75C236.959 284.25 230.959 286.5 223.059 286.5ZM302.981 180H325.331L342.431 285H325.931L322.931 264.15V264.45H304.181L301.181 285H285.881L302.981 180ZM320.981 250.2L313.631 198.3H313.331L306.131 250.2H320.981ZM383.436 180H427.086V195H399.936V224.25H421.236V239.25H399.936V285H383.436V180ZM467.999 180H512.999V195H484.499V222.75H507.149V237.75H484.499V270H512.999V285H467.999V180ZM491.999 155.7H509.999L493.949 172.95H481.499L491.999 155.7ZM0.12168 360H25.3217C33.5217 360 39.6717 362.2 43.7717 366.6C47.8717 371 49.9217 377.45 49.9217 385.95V439.05C49.9217 447.55 47.8717 454 43.7717 458.4C39.6717 462.8 33.5217 465 25.3217 465H0.12168V360ZM25.0217 450C27.7217 450 29.7717 449.2 31.1717 447.6C32.6717 446 33.4217 443.4 33.4217 439.8V385.2C33.4217 381.6 32.6717 379 31.1717 377.4C29.7717 375.8 27.7217 375 25.0217 375H16.6217V450H25.0217ZM94.0592 360H139.059V375H110.559V402.75H133.209V417.75H110.559V450H139.059V465H94.0592V360ZM181.551 360H198.051V450H225.201V465H181.551V360ZM266.114 360H282.614V465H266.114V360ZM351.221 466.5C343.321 466.5 337.271 464.25 333.071 459.75C328.971 455.25 326.921 448.9 326.921 440.7V384.3C326.921 376.1 328.971 369.75 333.071 365.25C337.271 360.75 343.321 358.5 351.221 358.5C359.121 358.5 365.121 360.75 369.221 365.25C373.421 369.75 375.521 376.1 375.521 384.3V395.4H359.921V383.25C359.921 376.75 357.171 373.5 351.671 373.5C346.171 373.5 343.421 376.75 343.421 383.25V441.9C343.421 448.3 346.171 451.5 351.671 451.5C357.171 451.5 359.921 448.3 359.921 441.9V425.85H375.521V440.7C375.521 448.9 373.421 455.25 369.221 459.75C365.121 464.25 359.121 466.5 351.221 466.5ZM418.393 360H434.893V465H418.393V360ZM504.101 466.5C496.001 466.5 489.801 464.2 485.501 459.6C481.201 455 479.051 448.5 479.051 440.1V384.9C479.051 376.5 481.201 370 485.501 365.4C489.801 360.8 496.001 358.5 504.101 358.5C512.201 358.5 518.401 360.8 522.701 365.4C527.001 370 529.151 376.5 529.151 384.9V440.1C529.151 448.5 527.001 455 522.701 459.6C518.401 464.2 512.201 466.5 504.101 466.5ZM504.101 451.5C509.801 451.5 512.651 448.05 512.651 441.15V383.85C512.651 376.95 509.801 373.5 504.101 373.5C498.401 373.5 495.551 376.95 495.551 383.85V441.15C495.551 448.05 498.401 451.5 504.101 451.5ZM594.759 466.5C586.759 466.5 580.709 464.25 576.609 459.75C572.509 455.15 570.459 448.6 570.459 440.1V434.1H586.059V441.3C586.059 448.1 588.909 451.5 594.609 451.5C597.409 451.5 599.509 450.7 600.909 449.1C602.409 447.4 603.159 444.7 603.159 441C603.159 436.6 602.159 432.75 600.159 429.45C598.159 426.05 594.459 422 589.059 417.3C582.259 411.3 577.509 405.9 574.809 401.1C572.109 396.2 570.759 390.7 570.759 384.6C570.759 376.3 572.859 369.9 577.059 365.4C581.259 360.8 587.359 358.5 595.359 358.5C603.259 358.5 609.209 360.8 613.209 365.4C617.309 369.9 619.359 376.4 619.359 384.9V389.25H603.759V383.85C603.759 380.25 603.059 377.65 601.659 376.05C600.259 374.35 598.209 373.5 595.509 373.5C590.009 373.5 587.259 376.85 587.259 383.55C587.259 387.35 588.259 390.9 590.259 394.2C592.359 397.5 596.109 401.5 601.509 406.2C608.409 412.2 613.159 417.65 615.759 422.55C618.359 427.45 619.659 433.2 619.659 439.8C619.659 448.4 617.509 455 613.209 459.6C609.009 464.2 602.859 466.5 594.759 466.5ZM685.97 466.5C677.87 466.5 671.67 464.2 667.37 459.6C663.07 455 660.92 448.5 660.92 440.1V384.9C660.92 376.5 663.07 370 667.37 365.4C671.67 360.8 677.87 358.5 685.97 358.5C694.07 358.5 700.27 360.8 704.57 365.4C708.87 370 711.02 376.5 711.02 384.9V440.1C711.02 448.5 708.87 455 704.57 459.6C700.27 464.2 694.07 466.5 685.97 466.5ZM685.97 451.5C691.67 451.5 694.52 448.05 694.52 441.15V383.85C694.52 376.95 691.67 373.5 685.97 373.5C680.27 373.5 677.42 376.95 677.42 383.85V441.15C677.42 448.05 680.27 451.5 685.97 451.5Z"/>
</mask>
<path d="M288.167 99.75L287.429 100.424L287.436 100.432L288.167 99.75ZM281.867 -7.15256e-06V-1.00001H280.867V-7.15256e-06H281.867ZM298.367 -7.15256e-06H299.367V-1.00001H298.367V-7.15256e-06ZM300.467 89.1L299.715 89.7585L299.726 89.7714L299.738 89.7839L300.467 89.1ZM312.917 89.1L312.188 88.4161L312.176 88.4286L312.165 88.4415L312.917 89.1ZM315.167 -7.15256e-06V-1.00001H314.167V-7.15256e-06H315.167ZM331.067 -7.15256e-06H332.067V-1.00001H331.067V-7.15256e-06ZM324.767 99.75L325.498 100.432L325.506 100.424L324.767 99.75ZM306.467 105.5C298.657 105.5 292.857 103.309 288.898 99.0677L287.436 100.432C291.878 105.191 298.278 107.5 306.467 107.5V105.5ZM288.906 99.0757C284.927 94.7182 282.867 88.4424 282.867 80.1H280.867C280.867 88.7576 283.008 95.5818 287.429 100.424L288.906 99.0757ZM282.867 80.1V-7.15256e-06H280.867V80.1H282.867ZM281.867 0.999993H298.367V-1.00001H281.867V0.999993ZM297.367 -7.15256e-06V81.3H299.367V-7.15256e-06H297.367ZM297.367 81.3C297.367 84.9875 298.077 87.8863 299.715 89.7585L301.22 88.4415C300.058 87.1137 299.367 84.8125 299.367 81.3H297.367ZM299.738 89.7839C301.469 91.6307 303.859 92.5 306.767 92.5V90.5C304.275 90.5 302.466 89.7693 301.197 88.4161L299.738 89.7839ZM306.767 92.5C309.672 92.5 312.031 91.6314 313.67 89.7585L312.165 88.4415C311.004 89.7686 309.263 90.5 306.767 90.5V92.5ZM313.647 89.7839C315.403 87.9107 316.167 85.0004 316.167 81.3H314.167C314.167 84.7996 313.432 87.0893 312.188 88.4161L313.647 89.7839ZM316.167 81.3V-7.15256e-06H314.167V81.3H316.167ZM315.167 0.999993H331.067V-1.00001H315.167V0.999993ZM330.067 -7.15256e-06V80.1H332.067V-7.15256e-06H330.067ZM330.067 80.1C330.067 88.4424 328.008 94.7182 324.029 99.0757L325.506 100.424C329.927 95.5818 332.067 88.7576 332.067 80.1H330.067ZM324.036 99.0677C320.078 103.309 314.278 105.5 306.467 105.5V107.5C314.657 107.5 321.057 105.191 325.498 100.432L324.036 99.0677ZM375.819 -7.15256e-06V-1.00001H374.819V-7.15256e-06H375.819ZM396.519 -7.15256e-06L397.488 -0.247437L397.296 -1.00001H396.519V-7.15256e-06ZM412.569 62.85L411.6 63.0974L411.792 63.85H412.569V62.85ZM412.869 62.85V63.85H413.869V62.85H412.869ZM412.869 -7.15256e-06V-1.00001H411.869V-7.15256e-06H412.869ZM427.569 -7.15256e-06H428.569V-1.00001H427.569V-7.15256e-06ZM427.569 105V106H428.569V105H427.569ZM410.619 105L409.651 105.25L409.844 106H410.619V105ZM390.819 28.35L391.787 28.0999L391.593 27.35H390.819V28.35ZM390.519 28.35V27.35H389.519V28.35H390.519ZM390.519 105V106H391.519V105H390.519ZM375.819 105H374.819V106H375.819V105ZM375.819 0.999993H396.519V-1.00001H375.819V0.999993ZM395.55 0.247422L411.6 63.0974L413.538 62.6026L397.488 -0.247437L395.55 0.247422ZM412.569 63.85H412.869V61.85H412.569V63.85ZM413.869 62.85V-7.15256e-06H411.869V62.85H413.869ZM412.869 0.999993H427.569V-1.00001H412.869V0.999993ZM426.569 -7.15256e-06V105H428.569V-7.15256e-06H426.569ZM427.569 104H410.619V106H427.569V104ZM411.587 104.75L391.787 28.0999L389.851 28.6001L409.651 105.25L411.587 104.75ZM390.819 27.35H390.519V29.35H390.819V27.35ZM389.519 28.35V105H391.519V28.35H389.519ZM390.519 104H375.819V106H390.519V104ZM376.819 105V-7.15256e-06H374.819V105H376.819ZM204.909 279.75L204.17 280.424L204.178 280.432L204.909 279.75ZM204.909 185.25L204.178 184.568L204.17 184.577L204.909 185.25ZM241.059 185.25L240.32 185.924L240.328 185.932L241.059 185.25ZM247.359 215.4V216.4H248.359V215.4H247.359ZM231.759 215.4H230.759V216.4H231.759V215.4ZM231.759 245.85V244.85H230.759V245.85H231.759ZM247.359 245.85H248.359V244.85H247.359V245.85ZM241.059 279.75L240.328 279.068L240.32 279.077L241.059 279.75ZM223.059 285.5C215.353 285.5 209.601 283.311 205.64 279.068L204.178 280.432C208.617 285.189 214.965 287.5 223.059 287.5V285.5ZM205.648 279.077C201.767 274.817 199.759 268.739 199.759 260.7H197.759C197.759 269.061 199.851 275.683 204.17 280.423L205.648 279.077ZM199.759 260.7V204.3H197.759V260.7H199.759ZM199.759 204.3C199.759 196.261 201.767 190.183 205.648 185.923L204.17 184.577C199.851 189.317 197.759 195.939 197.759 204.3H199.759ZM205.64 185.932C209.601 181.689 215.353 179.5 223.059 179.5V177.5C214.965 177.5 208.617 179.811 204.178 184.568L205.64 185.932ZM223.059 179.5C230.766 179.5 236.462 181.689 240.32 185.923L241.798 184.577C237.456 179.811 231.152 177.5 223.059 177.5V179.5ZM240.328 185.932C244.304 190.193 246.359 196.267 246.359 204.3H248.359C248.359 195.933 246.214 189.307 241.79 184.568L240.328 185.932ZM246.359 204.3V215.4H248.359V204.3H246.359ZM247.359 214.4H231.759V216.4H247.359V214.4ZM232.759 215.4V203.25H230.759V215.4H232.759ZM232.759 203.25C232.759 199.883 232.05 197.171 230.46 195.292C228.843 193.38 226.461 192.5 223.509 192.5V194.5C226.057 194.5 227.801 195.245 228.933 196.583C230.093 197.954 230.759 200.117 230.759 203.25H232.759ZM223.509 192.5C220.557 192.5 218.176 193.38 216.558 195.292C214.968 197.171 214.259 199.883 214.259 203.25H216.259C216.259 200.117 216.925 197.954 218.085 196.583C219.218 195.245 220.961 194.5 223.509 194.5V192.5ZM214.259 203.25V261.9H216.259V203.25H214.259ZM214.259 261.9C214.259 265.22 214.969 267.897 216.563 269.752C218.182 271.636 220.562 272.5 223.509 272.5V270.5C220.956 270.5 219.211 269.764 218.08 268.448C216.924 267.103 216.259 264.98 216.259 261.9H214.259ZM223.509 272.5C226.456 272.5 228.836 271.636 230.455 269.752C232.049 267.897 232.759 265.22 232.759 261.9H230.759C230.759 264.98 230.094 267.103 228.938 268.448C227.807 269.764 226.062 270.5 223.509 270.5V272.5ZM232.759 261.9V245.85H230.759V261.9H232.759ZM231.759 246.85H247.359V244.85H231.759V246.85ZM246.359 245.85V260.7H248.359V245.85H246.359ZM246.359 260.7C246.359 268.733 244.304 274.807 240.328 279.068L241.79 280.432C246.214 275.693 248.359 269.067 248.359 260.7H246.359ZM240.32 279.077C236.462 283.311 230.766 285.5 223.059 285.5V287.5C231.152 287.5 237.456 285.189 241.798 280.423L240.32 279.077ZM302.981 180V179H302.131L301.994 179.839L302.981 180ZM325.331 180L326.318 179.839L326.181 179H325.331V180ZM342.431 285V286H343.607L343.418 284.839L342.431 285ZM325.931 285L324.941 285.142L325.065 286H325.931V285ZM322.931 264.15L323.921 264.008L321.931 264.15H322.931ZM322.931 264.45V265.45H323.931V264.45H322.931ZM304.181 264.45V263.45H303.316L303.192 264.306L304.181 264.45ZM301.181 285V286H302.046L302.171 285.144L301.181 285ZM285.881 285L284.894 284.839L284.705 286H285.881V285ZM320.981 250.2V251.2H322.133L321.971 250.06L320.981 250.2ZM313.631 198.3L314.621 198.16L314.499 197.3H313.631V198.3ZM313.331 198.3V197.3H312.46L312.341 198.163L313.331 198.3ZM306.131 250.2L305.141 250.063L304.983 251.2H306.131V250.2ZM302.981 181H325.331V179H302.981V181ZM324.344 180.161L341.444 285.161L343.418 284.839L326.318 179.839L324.344 180.161ZM342.431 284H325.931V286H342.431V284ZM326.921 284.858L323.921 264.008L321.941 264.292L324.941 285.142L326.921 284.858ZM321.931 264.15V264.45H323.931V264.15H321.931ZM322.931 263.45H304.181V265.45H322.931V263.45ZM303.192 264.306L300.192 284.856L302.171 285.144L305.171 264.594L303.192 264.306ZM301.181 284H285.881V286H301.181V284ZM286.868 285.161L303.968 180.161L301.994 179.839L284.894 284.839L286.868 285.161ZM321.971 250.06L314.621 198.16L312.641 198.44L319.991 250.34L321.971 250.06ZM313.631 197.3H313.331V199.3H313.631V197.3ZM312.341 198.163L305.141 250.063L307.122 250.337L314.322 198.437L312.341 198.163ZM306.131 251.2H320.981V249.2H306.131V251.2ZM383.436 180V179H382.436V180H383.436ZM427.086 180H428.086V179H427.086V180ZM427.086 195V196H428.086V195H427.086ZM399.936 195V194H398.936V195H399.936ZM399.936 224.25H398.936V225.25H399.936V224.25ZM421.236 224.25H422.236V223.25H421.236V224.25ZM421.236 239.25V240.25H422.236V239.25H421.236ZM399.936 239.25V238.25H398.936V239.25H399.936ZM399.936 285V286H400.936V285H399.936ZM383.436 285H382.436V286H383.436V285ZM383.436 181H427.086V179H383.436V181ZM426.086 180V195H428.086V180H426.086ZM427.086 194H399.936V196H427.086V194ZM398.936 195V224.25H400.936V195H398.936ZM399.936 225.25H421.236V223.25H399.936V225.25ZM420.236 224.25V239.25H422.236V224.25H420.236ZM421.236 238.25H399.936V240.25H421.236V238.25ZM398.936 239.25V285H400.936V239.25H398.936ZM399.936 284H383.436V286H399.936V284ZM384.436 285V180H382.436V285H384.436ZM467.999 180V179H466.999V180H467.999ZM512.999 180H513.999V179H512.999V180ZM512.999 195V196H513.999V195H512.999ZM484.499 195V194H483.499V195H484.499ZM484.499 222.75H483.499V223.75H484.499V222.75ZM507.149 222.75H508.149V221.75H507.149V222.75ZM507.149 237.75V238.75H508.149V237.75H507.149ZM484.499 237.75V236.75H483.499V237.75H484.499ZM484.499 270H483.499V271H484.499V270ZM512.999 270H513.999V269H512.999V270ZM512.999 285V286H513.999V285H512.999ZM467.999 285H466.999V286H467.999V285ZM491.999 155.7V154.7H491.437L491.144 155.18L491.999 155.7ZM509.999 155.7L510.731 156.381L512.295 154.7H509.999V155.7ZM493.949 172.95V173.95H494.384L494.681 173.631L493.949 172.95ZM481.499 172.95L480.644 172.43L479.719 173.95H481.499V172.95ZM467.999 181H512.999V179H467.999V181ZM511.999 180V195H513.999V180H511.999ZM512.999 194H484.499V196H512.999V194ZM483.499 195V222.75H485.499V195H483.499ZM484.499 223.75H507.149V221.75H484.499V223.75ZM506.149 222.75V237.75H508.149V222.75H506.149ZM507.149 236.75H484.499V238.75H507.149V236.75ZM483.499 237.75V270H485.499V237.75H483.499ZM484.499 271H512.999V269H484.499V271ZM511.999 270V285H513.999V270H511.999ZM512.999 284H467.999V286H512.999V284ZM468.999 285V180H466.999V285H468.999ZM491.999 156.7H509.999V154.7H491.999V156.7ZM509.267 155.019L493.217 172.269L494.681 173.631L510.731 156.381L509.267 155.019ZM493.949 171.95H481.499V173.95H493.949V171.95ZM482.353 173.47L492.853 156.22L491.144 155.18L480.644 172.43L482.353 173.47ZM0.12168 360V359H-0.87832V360H0.12168ZM43.7717 366.6L43.0401 367.282L43.0401 367.282L43.7717 366.6ZM0.12168 465H-0.87832V466H0.12168V465ZM31.1717 447.6L30.4421 446.916L30.4304 446.929L30.4191 446.941L31.1717 447.6ZM31.1717 377.4L30.4191 378.058L30.4304 378.071L30.4421 378.084L31.1717 377.4ZM16.6217 375V374H15.6217V375H16.6217ZM16.6217 450H15.6217V451H16.6217V450ZM0.12168 361H25.3217V359H0.12168V361ZM25.3217 361C33.3487 361 39.1903 363.15 43.0401 367.282L44.5033 365.918C40.1531 361.25 33.6946 359 25.3217 359V361ZM43.0401 367.282C46.9075 371.432 48.9217 377.598 48.9217 385.95H50.9217C50.9217 377.302 48.8359 370.568 44.5033 365.918L43.0401 367.282ZM48.9217 385.95V439.05H50.9217V385.95H48.9217ZM48.9217 439.05C48.9217 447.402 46.9075 453.568 43.0401 457.718L44.5033 459.082C48.8359 454.432 50.9217 447.698 50.9217 439.05H48.9217ZM43.0401 457.718C39.1903 461.85 33.3487 464 25.3217 464V466C33.6946 466 40.1531 463.75 44.5033 459.082L43.0401 457.718ZM25.3217 464H0.12168V466H25.3217V464ZM1.12168 465V360H-0.87832V465H1.12168ZM25.0217 451C27.9265 451 30.2855 450.131 31.9243 448.259L30.4191 446.941C29.2579 448.269 27.5169 449 25.0217 449V451ZM31.9012 448.284C33.6574 446.411 34.4217 443.5 34.4217 439.8H32.4217C32.4217 443.3 31.686 445.589 30.4421 446.916L31.9012 448.284ZM34.4217 439.8V385.2H32.4217V439.8H34.4217ZM34.4217 385.2C34.4217 381.5 33.6574 378.589 31.9012 376.716L30.4421 378.084C31.686 379.411 32.4217 381.7 32.4217 385.2H34.4217ZM31.9243 376.741C30.2855 374.869 27.9265 374 25.0217 374V376C27.5169 376 29.2579 376.731 30.4191 378.058L31.9243 376.741ZM25.0217 374H16.6217V376H25.0217V374ZM15.6217 375V450H17.6217V375H15.6217ZM16.6217 451H25.0217V449H16.6217V451ZM94.0592 360V359H93.0592V360H94.0592ZM139.059 360H140.059V359H139.059V360ZM139.059 375V376H140.059V375H139.059ZM110.559 375V374H109.559V375H110.559ZM110.559 402.75H109.559V403.75H110.559V402.75ZM133.209 402.75H134.209V401.75H133.209V402.75ZM133.209 417.75V418.75H134.209V417.75H133.209ZM110.559 417.75V416.75H109.559V417.75H110.559ZM110.559 450H109.559V451H110.559V450ZM139.059 450H140.059V449H139.059V450ZM139.059 465V466H140.059V465H139.059ZM94.0592 465H93.0592V466H94.0592V465ZM94.0592 361H139.059V359H94.0592V361ZM138.059 360V375H140.059V360H138.059ZM139.059 374H110.559V376H139.059V374ZM109.559 375V402.75H111.559V375H109.559ZM110.559 403.75H133.209V401.75H110.559V403.75ZM132.209 402.75V417.75H134.209V402.75H132.209ZM133.209 416.75H110.559V418.75H133.209V416.75ZM109.559 417.75V450H111.559V417.75H109.559ZM110.559 451H139.059V449H110.559V451ZM138.059 450V465H140.059V450H138.059ZM139.059 464H94.0592V466H139.059V464ZM95.0592 465V360H93.0592V465H95.0592ZM181.551 360V359H180.551V360H181.551ZM198.051 360H199.051V359H198.051V360ZM198.051 450H197.051V451H198.051V450ZM225.201 450H226.201V449H225.201V450ZM225.201 465V466H226.201V465H225.201ZM181.551 465H180.551V466H181.551V465ZM181.551 361H198.051V359H181.551V361ZM197.051 360V450H199.051V360H197.051ZM198.051 451H225.201V449H198.051V451ZM224.201 450V465H226.201V450H224.201ZM225.201 464H181.551V466H225.201V464ZM182.551 465V360H180.551V465H182.551ZM266.114 360V359H265.114V360H266.114ZM282.614 360H283.614V359H282.614V360ZM282.614 465V466H283.614V465H282.614ZM266.114 465H265.114V466H266.114V465ZM266.114 361H282.614V359H266.114V361ZM281.614 360V465H283.614V360H281.614ZM282.614 464H266.114V466H282.614V464ZM267.114 465V360H265.114V465H267.114ZM333.071 459.75L332.332 460.424L332.34 460.432L333.071 459.75ZM333.071 365.25L332.34 364.568L332.332 364.577L333.071 365.25ZM369.221 365.25L368.482 365.924L368.49 365.932L369.221 365.25ZM375.521 395.4V396.4H376.521V395.4H375.521ZM359.921 395.4H358.921V396.4H359.921V395.4ZM359.921 425.85V424.85H358.921V425.85H359.921ZM375.521 425.85H376.521V424.85H375.521V425.85ZM369.221 459.75L368.49 459.068L368.482 459.077L369.221 459.75ZM351.221 465.5C343.515 465.5 337.763 463.311 333.802 459.068L332.34 460.432C336.779 465.189 343.127 467.5 351.221 467.5V465.5ZM333.81 459.077C329.929 454.817 327.921 448.739 327.921 440.7H325.921C325.921 449.061 328.013 455.683 332.332 460.423L333.81 459.077ZM327.921 440.7V384.3H325.921V440.7H327.921ZM327.921 384.3C327.921 376.261 329.929 370.183 333.81 365.923L332.332 364.577C328.013 369.317 325.921 375.939 325.921 384.3H327.921ZM333.802 365.932C337.763 361.689 343.515 359.5 351.221 359.5V357.5C343.127 357.5 336.779 359.811 332.34 364.568L333.802 365.932ZM351.221 359.5C358.929 359.5 364.624 361.689 368.482 365.923L369.96 364.577C365.619 359.811 359.314 357.5 351.221 357.5V359.5ZM368.49 365.932C372.467 370.193 374.521 376.267 374.521 384.3H376.521C376.521 375.933 374.376 369.307 369.952 364.568L368.49 365.932ZM374.521 384.3V395.4H376.521V384.3H374.521ZM375.521 394.4H359.921V396.4H375.521V394.4ZM360.921 395.4V383.25H358.921V395.4H360.921ZM360.921 383.25C360.921 379.883 360.213 377.171 358.622 375.292C357.005 373.38 354.623 372.5 351.671 372.5V374.5C354.219 374.5 355.963 375.245 357.095 376.583C358.255 377.954 358.921 380.117 358.921 383.25H360.921ZM351.671 372.5C348.719 372.5 346.338 373.38 344.72 375.292C343.13 377.171 342.421 379.883 342.421 383.25H344.421C344.421 380.117 345.088 377.954 346.247 376.583C347.38 375.245 349.123 374.5 351.671 374.5V372.5ZM342.421 383.25V441.9H344.421V383.25H342.421ZM342.421 441.9C342.421 445.22 343.131 447.897 344.725 449.752C346.344 451.636 348.724 452.5 351.671 452.5V450.5C349.118 450.5 347.373 449.764 346.242 448.448C345.086 447.103 344.421 444.98 344.421 441.9H342.421ZM351.671 452.5C354.618 452.5 356.998 451.636 358.617 449.752C360.211 447.897 360.921 445.22 360.921 441.9H358.921C358.921 444.98 358.256 447.103 357.1 448.448C355.969 449.764 354.224 450.5 351.671 450.5V452.5ZM360.921 441.9V425.85H358.921V441.9H360.921ZM359.921 426.85H375.521V424.85H359.921V426.85ZM374.521 425.85V440.7H376.521V425.85H374.521ZM374.521 440.7C374.521 448.733 372.467 454.807 368.49 459.068L369.952 460.432C374.376 455.693 376.521 449.067 376.521 440.7H374.521ZM368.482 459.077C364.624 463.311 358.929 465.5 351.221 465.5V467.5C359.314 467.5 365.619 465.189 369.96 460.423L368.482 459.077ZM418.393 360V359H417.393V360H418.393ZM434.893 360H435.893V359H434.893V360ZM434.893 465V466H435.893V465H434.893ZM418.393 465H417.393V466H418.393V465ZM418.393 361H434.893V359H418.393V361ZM433.893 360V465H435.893V360H433.893ZM434.893 464H418.393V466H434.893V464ZM419.393 465V360H417.393V465H419.393ZM485.501 459.6L486.231 458.917L486.231 458.917L485.501 459.6ZM485.501 365.4L486.231 366.083L486.231 366.083L485.501 365.4ZM522.701 365.4L521.97 366.083L521.97 366.083L522.701 365.4ZM522.701 459.6L521.97 458.917L521.97 458.917L522.701 459.6ZM504.101 465.5C496.194 465.5 490.291 463.261 486.231 458.917L484.77 460.283C489.31 465.139 495.808 467.5 504.101 467.5V465.5ZM486.231 458.917C482.156 454.557 480.051 448.333 480.051 440.1H478.051C478.051 448.667 480.246 455.443 484.77 460.283L486.231 458.917ZM480.051 440.1V384.9H478.051V440.1H480.051ZM480.051 384.9C480.051 376.667 482.156 370.443 486.231 366.083L484.77 364.717C480.246 369.557 478.051 376.333 478.051 384.9H480.051ZM486.231 366.083C490.291 361.739 496.194 359.5 504.101 359.5V357.5C495.808 357.5 489.31 359.861 484.77 364.717L486.231 366.083ZM504.101 359.5C512.008 359.5 517.91 361.739 521.97 366.083L523.431 364.717C518.892 359.861 512.394 357.5 504.101 357.5V359.5ZM521.97 366.083C526.046 370.443 528.151 376.667 528.151 384.9H530.151C530.151 376.333 527.956 369.557 523.431 364.717L521.97 366.083ZM528.151 384.9V440.1H530.151V384.9H528.151ZM528.151 440.1C528.151 448.333 526.046 454.557 521.97 458.917L523.431 460.283C527.956 455.443 530.151 448.667 530.151 440.1H528.151ZM521.97 458.917C517.91 463.261 512.008 465.5 504.101 465.5V467.5C512.394 467.5 518.892 465.139 523.431 460.283L521.97 458.917ZM504.101 452.5C507.16 452.5 509.619 451.565 511.284 449.549C512.919 447.571 513.651 444.713 513.651 441.15H511.651C511.651 444.487 510.957 446.804 509.742 448.276C508.557 449.71 506.741 450.5 504.101 450.5V452.5ZM513.651 441.15V383.85H511.651V441.15H513.651ZM513.651 383.85C513.651 380.287 512.919 377.429 511.284 375.451C509.619 373.435 507.16 372.5 504.101 372.5V374.5C506.741 374.5 508.557 375.29 509.742 376.724C510.957 378.196 511.651 380.513 511.651 383.85H513.651ZM504.101 372.5C501.041 372.5 498.582 373.435 496.917 375.451C495.282 377.429 494.551 380.287 494.551 383.85H496.551C496.551 380.513 497.244 378.196 498.459 376.724C499.644 375.29 501.46 374.5 504.101 374.5V372.5ZM494.551 383.85V441.15H496.551V383.85H494.551ZM494.551 441.15C494.551 444.713 495.282 447.571 496.917 449.549C498.582 451.565 501.041 452.5 504.101 452.5V450.5C501.46 450.5 499.644 449.71 498.459 448.276C497.244 446.804 496.551 444.487 496.551 441.15H494.551ZM576.609 459.75L575.863 460.415L575.87 460.423L576.609 459.75ZM570.459 434.1V433.1H569.459V434.1H570.459ZM586.059 434.1H587.059V433.1H586.059V434.1ZM600.909 449.1L600.159 448.438L600.157 448.441L600.909 449.1ZM600.159 429.45L599.297 429.957L599.304 429.968L600.159 429.45ZM589.059 417.3L588.398 418.05L588.403 418.054L589.059 417.3ZM574.809 401.1L573.933 401.583L573.938 401.59L574.809 401.1ZM577.059 365.4L577.79 366.082L577.798 366.074L577.059 365.4ZM613.209 365.4L612.455 366.056L612.462 366.065L612.47 366.073L613.209 365.4ZM619.359 389.25V390.25H620.359V389.25H619.359ZM603.759 389.25H602.759V390.25H603.759V389.25ZM601.659 376.05L600.887 376.686L600.897 376.697L600.907 376.708L601.659 376.05ZM590.259 394.2L589.404 394.718L589.41 394.728L589.416 394.737L590.259 394.2ZM601.509 406.2L600.853 406.954L600.853 406.955L601.509 406.2ZM615.759 422.55L614.876 423.019L614.876 423.019L615.759 422.55ZM613.209 459.6L612.479 458.917L612.471 458.926L613.209 459.6ZM594.759 465.5C586.947 465.5 581.204 463.308 577.348 459.077L575.87 460.423C580.214 465.192 586.571 467.5 594.759 467.5V465.5ZM577.356 459.085C573.472 454.727 571.459 448.448 571.459 440.1H569.459C569.459 448.752 571.546 455.573 575.863 460.415L577.356 459.085ZM571.459 440.1V434.1H569.459V440.1H571.459ZM570.459 435.1H586.059V433.1H570.459V435.1ZM585.059 434.1V441.3H587.059V434.1H585.059ZM585.059 441.3C585.059 444.815 585.792 447.638 587.43 449.592C589.097 451.58 591.554 452.5 594.609 452.5V450.5C591.964 450.5 590.147 449.72 588.963 448.308C587.751 446.862 587.059 444.585 587.059 441.3H585.059ZM594.609 452.5C597.601 452.5 600.016 451.639 601.662 449.759L600.157 448.441C599.002 449.761 597.218 450.5 594.609 450.5V452.5ZM601.659 449.762C603.395 447.794 604.159 444.799 604.159 441H602.159C602.159 444.601 601.423 447.006 600.159 448.438L601.659 449.762ZM604.159 441C604.159 436.443 603.122 432.409 601.014 428.932L599.304 429.968C601.197 433.091 602.159 436.757 602.159 441H604.159ZM601.021 428.943C598.939 425.403 595.142 421.269 589.716 416.546L588.403 418.054C593.776 422.731 597.38 426.697 599.297 429.957L601.021 428.943ZM589.721 416.55C582.958 410.583 578.302 405.269 575.681 400.61L573.938 401.59C576.717 406.531 581.561 412.017 588.398 418.05L589.721 416.55ZM575.685 400.617C573.074 395.878 571.759 390.547 571.759 384.6H569.759C569.759 390.853 571.145 396.522 573.933 401.583L575.685 400.617ZM571.759 384.6C571.759 376.463 573.816 370.341 577.79 366.082L576.328 364.718C571.902 369.459 569.759 376.137 569.759 384.6H571.759ZM577.798 366.074C581.758 361.737 587.555 359.5 595.359 359.5V357.5C587.163 357.5 580.761 359.863 576.321 364.726L577.798 366.074ZM595.359 359.5C603.061 359.5 608.697 361.735 612.455 366.056L613.964 364.744C609.721 359.865 603.457 357.5 595.359 357.5V359.5ZM612.47 366.073C616.346 370.327 618.359 376.55 618.359 384.9H620.359C620.359 376.25 618.273 369.473 613.948 364.727L612.47 366.073ZM618.359 384.9V389.25H620.359V384.9H618.359ZM619.359 388.25H603.759V390.25H619.359V388.25ZM604.759 389.25V383.85H602.759V389.25H604.759ZM604.759 383.85C604.759 380.163 604.05 377.264 602.412 375.391L600.907 376.708C602.068 378.036 602.759 380.337 602.759 383.85H604.759ZM602.431 375.414C600.799 373.432 598.434 372.5 595.509 372.5V374.5C597.985 374.5 599.72 375.268 600.887 376.686L602.431 375.414ZM595.509 372.5C592.547 372.5 590.163 373.412 588.549 375.378C586.966 377.307 586.259 380.089 586.259 383.55H588.259C588.259 380.311 588.928 378.068 590.095 376.647C591.23 375.263 592.971 374.5 595.509 374.5V372.5ZM586.259 383.55C586.259 387.536 587.311 391.265 589.404 394.718L591.114 393.682C589.208 390.535 588.259 387.164 588.259 383.55H586.259ZM589.416 394.737C591.593 398.159 595.43 402.234 600.853 406.954L602.166 405.446C596.789 400.766 593.125 396.841 591.103 393.663L589.416 394.737ZM600.853 406.955C607.713 412.919 612.359 418.275 614.876 423.019L616.643 422.081C613.96 417.025 609.106 411.481 602.165 405.445L600.853 406.955ZM614.876 423.019C617.386 427.749 618.659 433.333 618.659 439.8H620.659C620.659 433.067 619.332 427.151 616.643 422.081L614.876 423.019ZM618.659 439.8C618.659 448.24 616.55 454.561 612.479 458.917L613.94 460.283C618.468 455.439 620.659 448.56 620.659 439.8H618.659ZM612.471 458.926C608.513 463.26 602.667 465.5 594.759 465.5V467.5C603.051 467.5 609.505 465.14 613.948 460.274L612.471 458.926ZM667.37 459.6L668.1 458.917L668.1 458.917L667.37 459.6ZM667.37 365.4L668.1 366.083L668.1 366.083L667.37 365.4ZM704.57 365.4L703.839 366.083L703.839 366.083L704.57 365.4ZM704.57 459.6L703.839 458.917L703.839 458.917L704.57 459.6ZM685.97 465.5C678.063 465.5 672.161 463.261 668.1 458.917L666.639 460.283C671.179 465.139 677.677 467.5 685.97 467.5V465.5ZM668.1 458.917C664.025 454.557 661.92 448.333 661.92 440.1H659.92C659.92 448.667 662.115 455.443 666.639 460.283L668.1 458.917ZM661.92 440.1V384.9H659.92V440.1H661.92ZM661.92 384.9C661.92 376.667 664.025 370.443 668.1 366.083L666.639 364.717C662.115 369.557 659.92 376.333 659.92 384.9H661.92ZM668.1 366.083C672.161 361.739 678.063 359.5 685.97 359.5V357.5C677.677 357.5 671.179 359.861 666.639 364.717L668.1 366.083ZM685.97 359.5C693.877 359.5 699.779 361.739 703.839 366.083L705.3 364.717C700.761 359.861 694.263 357.5 685.97 357.5V359.5ZM703.839 366.083C707.915 370.443 710.02 376.667 710.02 384.9H712.02C712.02 376.333 709.825 369.557 705.3 364.717L703.839 366.083ZM710.02 384.9V440.1H712.02V384.9H710.02ZM710.02 440.1C710.02 448.333 707.915 454.557 703.839 458.917L705.3 460.283C709.825 455.443 712.02 448.667 712.02 440.1H710.02ZM703.839 458.917C699.779 463.261 693.877 465.5 685.97 465.5V467.5C694.263 467.5 700.761 465.139 705.3 460.283L703.839 458.917ZM685.97 452.5C689.03 452.5 691.488 451.565 693.153 449.549C694.788 447.571 695.52 444.713 695.52 441.15H693.52C693.52 444.487 692.827 446.804 691.611 448.276C690.426 449.71 688.61 450.5 685.97 450.5V452.5ZM695.52 441.15V383.85H693.52V441.15H695.52ZM695.52 383.85C695.52 380.287 694.788 377.429 693.153 375.451C691.488 373.435 689.03 372.5 685.97 372.5V374.5C688.61 374.5 690.426 375.29 691.611 376.724C692.827 378.196 693.52 380.513 693.52 383.85H695.52ZM685.97 372.5C682.91 372.5 680.451 373.435 678.786 375.451C677.152 377.429 676.42 380.287 676.42 383.85H678.42C678.42 380.513 679.113 378.196 680.328 376.724C681.513 375.29 683.33 374.5 685.97 374.5V372.5ZM676.42 383.85V441.15H678.42V383.85H676.42ZM676.42 441.15C676.42 444.713 677.152 447.571 678.786 449.549C680.451 451.565 682.91 452.5 685.97 452.5V450.5C683.33 450.5 681.513 449.71 680.328 448.276C679.113 446.804 678.42 444.487 678.42 441.15H676.42Z" fill="black" mask="url(#path-1-inside-1_122_3)"/>
</svg>
