<svg width="900" height="346" viewBox="0 0 900 346" fill="none" xmlns="http://www.w3.org/2000/svg">
<mask id="path-1-inside-1_2_6" fill="white">
<path d="M134.313 144.8H184.809C193.961 144.8 201.865 148.064 208.521 154.592C215.113 161.184 218.409 169.088 218.409 178.304C218.409 187.648 215.113 195.616 208.521 202.208C201.929 208.736 194.025 212 184.809 212H134.313V144.8ZM173.673 206.432C177.321 206.432 179.945 205.248 181.545 202.88C183.081 200.576 184.041 197.312 184.425 193.088C184.745 190.336 184.905 185.408 184.905 178.304C184.905 172.8 184.713 167.552 184.329 162.56C183.945 158.784 182.985 155.904 181.449 153.92C179.849 151.552 177.257 150.368 173.673 150.368H167.913V206.432H173.673ZM223.094 144.8H292.886V150.464H256.886V175.328H274.55V181.088H256.886V206.24H292.886V212H223.094V144.8ZM298.376 144.8H332.072V206.24H368.552V212H298.376V144.8ZM374.032 144.8H405.328V212H374.032V144.8ZM460.03 205.76C464.83 205.76 468.638 203.808 471.454 199.904C474.27 196 476.094 191.264 476.926 185.696H482.878C481.982 192.608 479.71 198.496 476.062 203.36C474.014 206.048 471.678 208.064 469.054 209.408C466.494 210.688 463.646 211.52 460.51 211.904C457.438 212.288 453.406 212.48 448.414 212.48C441.374 212.48 435.646 211.808 431.23 210.464C426.878 209.056 423.134 206.784 419.998 203.648C413.854 197.504 410.782 189.056 410.782 178.304C410.782 166.976 413.534 158.56 419.038 153.056C422.622 149.472 426.622 147.104 431.038 145.952C435.454 144.8 441.246 144.224 448.414 144.224C455.006 144.224 460.35 144.704 464.446 145.664C468.606 146.56 471.998 148.512 474.622 151.52C476.798 154.016 478.494 157.024 479.71 160.544C480.926 164.064 481.63 167.552 481.822 171.008H476.35C476.094 168.128 475.39 165.184 474.238 162.176C473.15 159.104 471.422 156.48 469.054 154.304C466.686 152.064 463.678 150.944 460.03 150.944C456.574 150.944 453.79 152.448 451.678 155.456C449.822 157.824 448.414 161.312 447.454 165.92C446.75 169.44 446.398 173.568 446.398 178.304C446.398 185.792 447.294 191.84 449.086 196.448C451.39 202.656 455.038 205.76 460.03 205.76ZM487.563 144.8H518.859V212H487.563V144.8ZM569.241 212.48C560.665 212.48 552.921 211.168 546.009 208.544C539.097 205.92 533.625 202.048 529.593 196.928C525.625 191.744 523.641 185.536 523.641 178.304C523.641 171.136 525.657 164.992 529.689 159.872C533.721 154.752 539.161 150.88 546.009 148.256C552.921 145.568 560.665 144.224 569.241 144.224C577.753 144.224 585.433 145.568 592.281 148.256C599.193 150.88 604.633 154.752 608.601 159.872C612.633 164.992 614.649 171.136 614.649 178.304C614.649 185.536 612.633 191.744 608.601 196.928C604.633 202.048 599.193 205.92 592.281 208.544C585.433 211.168 577.753 212.48 569.241 212.48ZM569.241 206.816C571.929 206.816 573.913 205.6 575.193 203.168C576.281 201.312 577.017 198.016 577.401 193.28C577.593 190.784 577.689 185.792 577.689 178.304C577.689 170.752 577.529 165.408 577.209 162.272C577.017 158.432 576.313 155.52 575.097 153.536C573.817 151.104 571.865 149.888 569.241 149.888C566.553 149.888 564.537 151.104 563.193 153.536C562.105 155.456 561.401 158.368 561.081 162.272C560.825 165.6 560.697 170.944 560.697 178.304C560.697 186.624 560.793 191.616 560.985 193.28C561.241 197.696 561.945 200.992 563.097 203.168C564.441 205.6 566.489 206.816 569.241 206.816ZM670.064 168.896C677.68 170.944 683.376 173.664 687.152 177.056C690.928 180.384 692.816 184.736 692.816 190.112C692.816 194.4 691.472 198.24 688.784 201.632C686.096 205.024 682.128 207.68 676.88 209.6C671.696 211.52 665.392 212.48 657.968 212.48C649.2 212.48 641.456 211.36 634.736 209.12C628.08 206.816 622.864 204.032 619.088 200.768L622.256 196.448C625.584 199.072 629.776 201.312 634.832 203.168C639.888 205.024 645.328 205.952 651.152 205.952C654.928 205.952 657.776 205.408 659.696 204.32C661.68 203.232 662.672 201.696 662.672 199.712C662.672 196.256 659.248 193.568 652.4 191.648L639.92 188C633.136 185.952 627.888 183.104 624.176 179.456C620.528 175.808 618.704 171.488 618.704 166.496C618.704 162.336 620.016 158.56 622.64 155.168C625.264 151.776 629.072 149.12 634.064 147.2C639.12 145.216 645.168 144.224 652.208 144.224C658.928 144.224 665.104 144.992 670.736 146.528C676.432 148.064 681.072 149.92 684.656 152.096L681.488 156.512C678.48 154.784 674.864 153.312 670.64 152.096C666.48 150.88 662.096 150.272 657.488 150.272C653.456 150.272 650.352 150.912 648.176 152.192C646.064 153.408 645.008 155.104 645.008 157.28C645.008 158.944 645.808 160.416 647.408 161.696C649.008 162.912 652.048 164.128 656.528 165.344L670.064 168.896ZM741.929 212.48C733.353 212.48 725.609 211.168 718.697 208.544C711.785 205.92 706.313 202.048 702.281 196.928C698.313 191.744 696.329 185.536 696.329 178.304C696.329 171.136 698.345 164.992 702.377 159.872C706.409 154.752 711.849 150.88 718.697 148.256C725.609 145.568 733.353 144.224 741.929 144.224C750.441 144.224 758.121 145.568 764.969 148.256C771.881 150.88 777.321 154.752 781.289 159.872C785.321 164.992 787.337 171.136 787.337 178.304C787.337 185.536 785.321 191.744 781.289 196.928C777.321 202.048 771.881 205.92 764.969 208.544C758.121 211.168 750.441 212.48 741.929 212.48ZM741.929 206.816C744.617 206.816 746.601 205.6 747.881 203.168C748.969 201.312 749.705 198.016 750.089 193.28C750.281 190.784 750.377 185.792 750.377 178.304C750.377 170.752 750.217 165.408 749.897 162.272C749.705 158.432 749.001 155.52 747.785 153.536C746.505 151.104 744.553 149.888 741.929 149.888C739.241 149.888 737.225 151.104 735.881 153.536C734.793 155.456 734.089 158.368 733.769 162.272C733.513 165.6 733.385 170.944 733.385 178.304C733.385 186.624 733.481 191.616 733.673 193.28C733.929 197.696 734.633 200.992 735.785 203.168C737.129 205.6 739.177 206.816 741.929 206.816Z"/>
</mask>
<path d="M134.313 144.8V134.8H124.313V144.8H134.313ZM208.521 154.592L215.592 147.521L215.558 147.487L215.523 147.453L208.521 154.592ZM208.521 202.208L215.557 209.313L215.575 209.296L215.592 209.279L208.521 202.208ZM134.313 212H124.313V222H134.313V212ZM181.545 202.88L189.831 208.479L189.848 208.453L189.866 208.427L181.545 202.88ZM184.425 193.088L174.492 191.933L174.477 192.058L174.466 192.183L184.425 193.088ZM184.329 162.56L194.3 161.793L194.29 161.671L194.278 161.548L184.329 162.56ZM181.449 153.92L173.163 159.519L173.344 159.786L173.542 160.042L181.449 153.92ZM167.913 150.368V140.368H157.913V150.368H167.913ZM167.913 206.432H157.913V216.432H167.913V206.432ZM134.313 154.8H184.809V134.8H134.313V154.8ZM184.809 154.8C191.288 154.8 196.693 156.999 201.519 161.731L215.523 147.453C207.037 139.129 196.634 134.8 184.809 134.8V154.8ZM201.45 161.663C206.191 166.404 208.409 171.774 208.409 178.304H228.409C228.409 166.402 224.035 155.964 215.592 147.521L201.45 161.663ZM208.409 178.304C208.409 185.003 206.162 190.425 201.45 195.137L215.592 209.279C224.064 200.807 228.409 190.293 228.409 178.304H208.409ZM201.485 195.103C196.751 199.79 191.37 202 184.809 202V222C196.68 222 207.107 217.682 215.557 209.313L201.485 195.103ZM184.809 202H134.313V222H184.809V202ZM144.313 212V144.8H124.313V212H144.313ZM173.673 216.432C179.612 216.432 185.86 214.355 189.831 208.479L173.259 197.281C173.359 197.134 173.511 196.953 173.717 196.78C173.922 196.608 174.119 196.495 174.264 196.429C174.541 196.304 174.445 196.432 173.673 196.432V216.432ZM189.866 208.427C192.69 204.191 193.922 199.071 194.384 193.993L174.466 192.183C174.16 195.553 173.472 196.961 173.224 197.333L189.866 208.427ZM194.358 194.243C194.753 190.844 194.905 185.38 194.905 178.304H174.905C174.905 185.436 174.737 189.828 174.492 191.933L194.358 194.243ZM194.905 178.304C194.905 172.569 194.705 167.064 194.3 161.793L174.358 163.327C174.721 168.04 174.905 173.031 174.905 178.304H194.905ZM194.278 161.548C193.795 156.798 192.482 151.835 189.356 147.798L173.542 160.042C173.493 159.979 173.638 160.141 173.834 160.73C174.032 161.325 174.245 162.242 174.38 163.572L194.278 161.548ZM189.735 148.321C185.799 142.496 179.625 140.368 173.673 140.368V160.368C174.389 160.368 174.449 160.488 174.15 160.352C173.996 160.281 173.799 160.166 173.598 159.995C173.398 159.825 173.254 159.653 173.163 159.519L189.735 148.321ZM173.673 140.368H167.913V160.368H173.673V140.368ZM157.913 150.368V206.432H177.913V150.368H157.913ZM167.913 216.432H173.673V196.432H167.913V216.432ZM223.094 144.8V134.8H213.094V144.8H223.094ZM292.886 144.8H302.886V134.8H292.886V144.8ZM292.886 150.464V160.464H302.886V150.464H292.886ZM256.886 150.464V140.464H246.886V150.464H256.886ZM256.886 175.328H246.886V185.328H256.886V175.328ZM274.55 175.328H284.55V165.328H274.55V175.328ZM274.55 181.088V191.088H284.55V181.088H274.55ZM256.886 181.088V171.088H246.886V181.088H256.886ZM256.886 206.24H246.886V216.24H256.886V206.24ZM292.886 206.24H302.886V196.24H292.886V206.24ZM292.886 212V222H302.886V212H292.886ZM223.094 212H213.094V222H223.094V212ZM223.094 154.8H292.886V134.8H223.094V154.8ZM282.886 144.8V150.464H302.886V144.8H282.886ZM292.886 140.464H256.886V160.464H292.886V140.464ZM246.886 150.464V175.328H266.886V150.464H246.886ZM256.886 185.328H274.55V165.328H256.886V185.328ZM264.55 175.328V181.088H284.55V175.328H264.55ZM274.55 171.088H256.886V191.088H274.55V171.088ZM246.886 181.088V206.24H266.886V181.088H246.886ZM256.886 216.24H292.886V196.24H256.886V216.24ZM282.886 206.24V212H302.886V206.24H282.886ZM292.886 202H223.094V222H292.886V202ZM233.094 212V144.8H213.094V212H233.094ZM298.376 144.8V134.8H288.376V144.8H298.376ZM332.072 144.8H342.072V134.8H332.072V144.8ZM332.072 206.24H322.072V216.24H332.072V206.24ZM368.552 206.24H378.552V196.24H368.552V206.24ZM368.552 212V222H378.552V212H368.552ZM298.376 212H288.376V222H298.376V212ZM298.376 154.8H332.072V134.8H298.376V154.8ZM322.072 144.8V206.24H342.072V144.8H322.072ZM332.072 216.24H368.552V196.24H332.072V216.24ZM358.552 206.24V212H378.552V206.24H358.552ZM368.552 202H298.376V222H368.552V202ZM308.376 212V144.8H288.376V212H308.376ZM374.032 144.8V134.8H364.032V144.8H374.032ZM405.328 144.8H415.328V134.8H405.328V144.8ZM405.328 212V222H415.328V212H405.328ZM374.032 212H364.032V222H374.032V212ZM374.032 154.8H405.328V134.8H374.032V154.8ZM395.328 144.8V212H415.328V144.8H395.328ZM405.328 202H374.032V222H405.328V202ZM384.032 212V144.8H364.032V212H384.032ZM471.454 199.904L463.343 194.054L463.343 194.054L471.454 199.904ZM476.926 185.696V175.696H468.309L467.036 184.218L476.926 185.696ZM482.878 185.696L492.795 186.982L494.258 175.696H482.878V185.696ZM476.062 203.36L484.016 209.42L484.039 209.39L484.062 209.36L476.062 203.36ZM469.054 209.408L473.526 218.352L473.569 218.331L473.613 218.308L469.054 209.408ZM460.51 211.904L459.294 201.978L459.282 201.98L459.269 201.981L460.51 211.904ZM431.23 210.464L428.152 219.978L428.235 220.005L428.318 220.031L431.23 210.464ZM419.998 203.648L412.927 210.719L419.998 203.648ZM419.038 153.056L411.967 145.985L411.967 145.985L419.038 153.056ZM431.038 145.952L428.514 136.276L428.514 136.276L431.038 145.952ZM464.446 145.664L462.164 155.4L462.252 155.421L462.34 155.44L464.446 145.664ZM474.622 151.52L482.159 144.949L482.157 144.946L474.622 151.52ZM479.71 160.544L470.258 163.809L470.258 163.809L479.71 160.544ZM481.822 171.008V181.008H492.393L491.806 170.453L481.822 171.008ZM476.35 171.008L466.389 171.893L467.199 181.008H476.35V171.008ZM474.238 162.176L464.811 165.514L464.854 165.634L464.899 165.752L474.238 162.176ZM469.054 154.304L462.182 161.569L462.234 161.618L462.288 161.667L469.054 154.304ZM451.678 155.456L459.548 161.625L459.711 161.418L459.862 161.202L451.678 155.456ZM447.454 165.92L437.664 163.88L437.656 163.92L437.648 163.959L447.454 165.92ZM449.086 196.448L458.461 192.969L458.434 192.896L458.406 192.824L449.086 196.448ZM460.03 215.76C468.054 215.76 474.875 212.255 479.564 205.754L463.343 194.054C462.401 195.361 461.606 195.76 460.03 195.76V215.76ZM479.564 205.754C483.46 200.353 485.788 194.053 486.816 187.174L467.036 184.218C466.399 188.475 465.079 191.647 463.343 194.054L479.564 205.754ZM476.926 195.696H482.878V175.696H476.926V195.696ZM472.961 184.41C472.254 189.866 470.532 194.067 468.062 197.36L484.062 209.36C488.888 202.925 491.71 195.35 492.795 186.982L472.961 184.41ZM468.107 197.3C466.832 198.973 465.607 199.938 464.495 200.508L473.613 218.308C477.748 216.19 481.195 213.123 484.016 209.42L468.107 197.3ZM464.582 200.464C463.144 201.183 461.414 201.719 459.294 201.978L461.725 221.83C465.878 221.321 469.844 220.193 473.526 218.352L464.582 200.464ZM459.269 201.981C456.78 202.292 453.209 202.48 448.414 202.48V222.48C453.603 222.48 458.096 222.284 461.75 221.827L459.269 201.981ZM448.414 202.48C441.9 202.48 437.256 201.845 434.141 200.897L428.318 220.031C434.035 221.771 440.847 222.48 448.414 222.48V202.48ZM434.308 200.95C431.413 200.013 429.05 198.558 427.069 196.577L412.927 210.719C417.217 215.01 422.343 218.099 428.152 219.978L434.308 200.95ZM427.069 196.577C423.225 192.733 420.782 187.071 420.782 178.304H400.782C400.782 191.041 404.483 202.275 412.927 210.719L427.069 196.577ZM420.782 178.304C420.782 168.421 423.189 163.046 426.109 160.127L411.967 145.985C403.878 154.074 400.782 165.531 400.782 178.304H420.782ZM426.109 160.127C428.578 157.658 431.051 156.283 433.562 155.628L428.514 136.276C422.192 137.925 416.665 141.286 411.967 145.985L426.109 160.127ZM433.562 155.628C436.825 154.777 441.672 154.224 448.414 154.224V134.224C440.819 134.224 434.083 134.823 428.514 136.276L433.562 155.628ZM448.414 154.224C454.618 154.224 459.113 154.685 462.164 155.4L466.728 135.928C461.587 134.723 455.394 134.224 448.414 134.224V154.224ZM462.34 155.44C464.54 155.914 465.976 156.821 467.086 158.094L482.157 144.946C478.019 140.203 472.671 137.206 466.551 135.888L462.34 155.44ZM467.084 158.091C468.317 159.505 469.409 161.353 470.258 163.809L489.162 157.279C487.578 152.695 485.279 148.527 482.159 144.949L467.084 158.091ZM470.258 163.809C471.195 166.521 471.7 169.098 471.837 171.563L491.806 170.453C491.559 166.006 490.657 161.607 489.162 157.279L470.258 163.809ZM481.822 161.008H476.35V181.008H481.822V161.008ZM486.31 170.123C485.964 166.223 485.022 162.374 483.576 158.6L464.899 165.752C465.758 167.994 466.224 170.033 466.389 171.893L486.31 170.123ZM483.664 158.838C482.039 154.248 479.407 150.236 475.82 146.941L462.288 161.667C463.437 162.724 464.261 163.96 464.811 165.514L483.664 158.838ZM475.926 147.039C471.474 142.828 465.904 140.944 460.03 140.944V160.944C461.452 160.944 461.897 161.3 462.182 161.569L475.926 147.039ZM460.03 140.944C453.079 140.944 447.338 144.235 443.494 149.71L459.862 161.202C460.021 160.975 460.129 160.869 460.165 160.836C460.197 160.806 460.176 160.831 460.103 160.87C460.028 160.911 459.955 160.936 459.907 160.948C459.863 160.958 459.895 160.944 460.03 160.944V140.944ZM443.807 149.287C440.616 153.359 438.778 158.532 437.664 163.88L457.244 167.96C458.049 164.092 459.027 162.289 459.548 161.625L443.807 149.287ZM437.648 163.959C436.781 168.291 436.398 173.105 436.398 178.304H456.398C456.398 174.031 456.718 170.589 457.26 167.881L437.648 163.959ZM436.398 178.304C436.398 186.458 437.355 193.874 439.766 200.072L458.406 192.824C457.232 189.806 456.398 185.126 456.398 178.304H436.398ZM439.711 199.927C441.241 204.051 443.539 208.044 447.069 211.048C450.783 214.208 455.268 215.76 460.03 215.76V195.76C459.833 195.76 459.823 195.733 459.919 195.767C460.02 195.803 460.066 195.846 460.03 195.816C459.913 195.716 459.234 195.053 458.461 192.969L439.711 199.927ZM487.563 144.8V134.8H477.563V144.8H487.563ZM518.859 144.8H528.859V134.8H518.859V144.8ZM518.859 212V222H528.859V212H518.859ZM487.563 212H477.563V222H487.563V212ZM487.563 154.8H518.859V134.8H487.563V154.8ZM508.859 144.8V212H528.859V144.8H508.859ZM518.859 202H487.563V222H518.859V202ZM497.563 212V144.8H477.563V212H497.563ZM546.009 208.544L542.46 217.893L542.46 217.893L546.009 208.544ZM529.593 196.928L521.652 203.006L521.694 203.061L521.737 203.115L529.593 196.928ZM529.689 159.872L521.833 153.685L521.833 153.685L529.689 159.872ZM546.009 148.256L549.587 157.594L549.61 157.585L549.633 157.576L546.009 148.256ZM592.281 148.256L588.627 157.565L588.679 157.585L588.732 157.605L592.281 148.256ZM608.601 159.872L600.697 165.998L600.721 166.028L600.745 166.059L608.601 159.872ZM608.601 196.928L600.707 190.789L600.702 190.795L600.697 190.802L608.601 196.928ZM592.281 208.544L588.732 199.195L588.717 199.201L588.703 199.206L592.281 208.544ZM575.193 203.168L566.566 198.111L566.45 198.308L566.344 198.511L575.193 203.168ZM577.401 193.28L587.368 194.088L587.37 194.068L587.372 194.047L577.401 193.28ZM577.209 162.272L567.221 162.771L567.234 163.03L567.261 163.287L577.209 162.272ZM575.097 153.536L566.248 158.193L566.4 158.483L566.571 158.762L575.097 153.536ZM563.193 153.536L571.893 158.466L571.92 158.42L571.945 158.373L563.193 153.536ZM561.081 162.272L551.114 161.455L551.112 161.48L551.11 161.505L561.081 162.272ZM560.985 193.28L570.968 192.701L570.952 192.417L570.919 192.134L560.985 193.28ZM563.097 203.168L554.259 207.847L554.301 207.926L554.345 208.005L563.097 203.168ZM569.241 202.48C561.687 202.48 555.171 201.326 549.558 199.195L542.46 217.893C550.671 221.01 559.643 222.48 569.241 222.48V202.48ZM549.558 199.195C544.109 197.126 540.214 194.252 537.449 190.741L521.737 203.115C527.036 209.844 534.085 214.714 542.46 217.893L549.558 199.195ZM537.534 190.85C535.046 187.599 533.641 183.589 533.641 178.304H513.641C513.641 187.483 516.204 195.889 521.652 203.006L537.534 190.85ZM533.641 178.304C533.641 173.142 535.042 169.237 537.545 166.059L521.833 153.685C516.272 160.747 513.641 169.13 513.641 178.304H533.641ZM537.545 166.059C540.327 162.527 544.207 159.655 549.587 157.594L542.431 138.918C534.115 142.105 527.115 146.977 521.833 153.685L537.545 166.059ZM549.633 157.576C555.224 155.402 561.714 154.224 569.241 154.224V134.224C559.616 134.224 550.618 135.734 542.385 138.936L549.633 157.576ZM569.241 154.224C576.696 154.224 583.111 155.399 588.627 157.565L595.935 138.947C587.755 135.737 578.81 134.224 569.241 134.224V154.224ZM588.732 157.605C594.172 159.67 598.009 162.529 600.697 165.998L616.505 153.746C611.257 146.975 604.214 142.09 595.83 138.907L588.732 157.605ZM600.745 166.059C603.248 169.237 604.649 173.142 604.649 178.304H624.649C624.649 169.13 622.018 160.747 616.457 153.685L600.745 166.059ZM604.649 178.304C604.649 183.551 603.235 187.539 600.707 190.789L616.495 203.067C622.031 195.949 624.649 187.521 624.649 178.304H604.649ZM600.697 190.802C598.009 194.271 594.172 197.13 588.732 199.195L595.83 217.893C604.214 214.71 611.257 209.825 616.505 203.054L600.697 190.802ZM588.703 199.206C583.165 201.328 576.723 202.48 569.241 202.48V222.48C578.783 222.48 587.701 221.008 595.859 217.882L588.703 199.206ZM569.241 216.816C572.138 216.816 575.175 216.144 577.971 214.43C580.754 212.724 582.717 210.343 584.042 207.825L566.344 198.511C566.389 198.425 566.72 197.868 567.519 197.378C568.331 196.88 569.032 196.816 569.241 196.816V216.816ZM583.82 208.225C586.15 204.25 586.975 198.934 587.368 194.088L567.434 192.472C567.265 194.548 567.037 196.069 566.801 197.125C566.546 198.268 566.375 198.437 566.566 198.111L583.82 208.225ZM587.372 194.047C587.598 191.104 587.689 185.729 587.689 178.304H567.689C567.689 185.855 567.588 190.464 567.43 192.513L587.372 194.047ZM587.689 178.304C587.689 170.75 587.534 164.951 587.157 161.257L567.261 163.287C567.524 165.865 567.689 170.754 567.689 178.304H587.689ZM587.197 161.773C586.969 157.227 586.11 152.367 583.623 148.31L566.571 158.762C566.502 158.65 566.644 158.841 566.817 159.558C566.988 160.264 567.148 161.31 567.221 162.771L587.197 161.773ZM583.946 148.879C582.642 146.4 580.712 144.026 577.96 142.312C575.184 140.582 572.152 139.888 569.241 139.888V159.888C568.954 159.888 568.21 159.802 567.386 159.288C566.586 158.79 566.273 158.24 566.248 158.193L583.946 148.879ZM569.241 139.888C566.34 139.888 563.326 140.562 560.548 142.237C557.787 143.902 555.807 146.226 554.441 148.699L571.945 158.373C571.923 158.414 571.623 158.914 570.878 159.363C570.116 159.822 569.454 159.888 569.241 159.888V139.888ZM554.493 148.606C552.333 152.417 551.475 157.057 551.114 161.455L571.048 163.089C571.177 161.506 571.369 160.336 571.569 159.51C571.775 158.658 571.938 158.388 571.893 158.466L554.493 148.606ZM551.11 161.505C550.823 165.244 550.697 170.917 550.697 178.304H570.697C570.697 170.971 570.827 165.956 571.052 163.039L551.11 161.505ZM550.697 178.304C550.697 186.327 550.776 192.043 551.051 194.426L570.919 192.134C570.92 192.14 570.91 192.051 570.895 191.828C570.881 191.617 570.865 191.336 570.85 190.976C570.818 190.252 570.79 189.299 570.767 188.096C570.721 185.692 570.697 182.436 570.697 178.304H550.697ZM551.002 193.859C551.285 198.744 552.096 203.762 554.259 207.847L571.935 198.489C571.936 198.491 571.921 198.464 571.894 198.4C571.868 198.337 571.831 198.243 571.787 198.114C571.698 197.853 571.592 197.48 571.484 196.975C571.266 195.951 571.075 194.549 570.968 192.701L551.002 193.859ZM554.345 208.005C555.732 210.515 557.745 212.846 560.536 214.503C563.331 216.163 566.352 216.816 569.241 216.816V196.816C569.378 196.816 569.999 196.861 570.746 197.305C571.489 197.746 571.807 198.253 571.849 198.331L554.345 208.005ZM670.064 168.896L672.66 159.239L672.631 159.231L672.602 159.223L670.064 168.896ZM687.152 177.056L680.469 184.495L680.504 184.527L680.539 184.558L687.152 177.056ZM688.784 201.632L696.621 207.843L696.621 207.843L688.784 201.632ZM676.88 209.6L673.444 200.209L673.425 200.216L673.406 200.223L676.88 209.6ZM634.736 209.12L631.464 218.57L631.519 218.589L631.573 218.607L634.736 209.12ZM619.088 200.768L611.023 194.854L605.565 202.297L612.548 208.333L619.088 200.768ZM622.256 196.448L628.447 188.595L620.315 182.184L614.191 190.534L622.256 196.448ZM634.832 203.168L638.278 193.781L638.278 193.781L634.832 203.168ZM659.696 204.32L654.887 195.552L654.826 195.585L654.765 195.62L659.696 204.32ZM652.4 191.648L649.594 201.246L649.647 201.262L649.7 201.277L652.4 191.648ZM639.92 188L637.029 197.573L637.072 197.586L637.114 197.598L639.92 188ZM624.176 179.456L617.104 186.527L617.135 186.558L617.166 186.588L624.176 179.456ZM622.64 155.168L630.549 161.287L630.549 161.287L622.64 155.168ZM634.064 147.2L637.653 156.533L637.685 156.521L637.716 156.509L634.064 147.2ZM670.736 146.528L668.104 156.176L668.118 156.179L668.132 156.183L670.736 146.528ZM684.656 152.096L692.781 157.925L699.075 149.152L689.845 143.548L684.656 152.096ZM681.488 156.512L676.506 165.183L684.344 169.686L689.613 162.341L681.488 156.512ZM670.64 152.096L667.834 161.694L667.853 161.7L667.873 161.706L670.64 152.096ZM648.176 152.192L653.165 160.858L653.206 160.835L653.246 160.811L648.176 152.192ZM647.408 161.696L641.161 169.505L641.258 169.582L641.357 169.658L647.408 161.696ZM656.528 165.344L653.908 174.995L653.949 175.006L653.989 175.017L656.528 165.344ZM667.467 178.553C674.325 180.397 678.332 182.576 680.469 184.495L693.834 169.617C688.419 164.752 681.034 161.491 672.66 159.239L667.467 178.553ZM680.539 184.558C682.001 185.846 682.816 187.386 682.816 190.112H702.816C702.816 182.086 699.854 174.922 693.764 169.554L680.539 184.558ZM682.816 190.112C682.816 192.122 682.248 193.779 680.946 195.421L696.621 207.843C700.695 202.701 702.816 196.678 702.816 190.112H682.816ZM680.946 195.421C679.693 197.003 677.455 198.741 673.444 200.209L680.315 218.991C686.8 216.619 692.498 213.045 696.621 207.843L680.946 195.421ZM673.406 200.223C669.643 201.616 664.587 202.48 657.968 202.48V222.48C666.196 222.48 673.748 221.424 680.353 218.977L673.406 200.223ZM657.968 202.48C650.029 202.48 643.389 201.464 637.898 199.633L631.573 218.607C639.522 221.256 648.37 222.48 657.968 222.48V202.48ZM638.007 199.67C632.094 197.623 628.135 195.371 625.627 193.203L612.548 208.333C617.592 212.693 624.065 216.009 631.464 218.57L638.007 199.67ZM627.152 206.682L630.32 202.362L614.191 190.534L611.023 194.854L627.152 206.682ZM616.064 204.301C620.41 207.727 625.594 210.43 631.385 212.555L638.278 193.781C633.957 192.194 630.757 190.417 628.447 188.595L616.064 204.301ZM631.385 212.555C637.632 214.848 644.248 215.952 651.152 215.952V195.952C646.407 195.952 642.143 195.2 638.278 193.781L631.385 212.555ZM651.152 215.952C655.58 215.952 660.483 215.368 664.626 213.02L654.765 195.62C655 195.487 654.912 195.594 654.243 195.722C653.59 195.846 652.587 195.952 651.152 195.952V215.952ZM664.504 213.088C669.144 210.543 672.672 205.929 672.672 199.712H652.672C652.672 198.95 652.89 197.913 653.527 196.927C654.122 196.006 654.764 195.62 654.887 195.552L664.504 213.088ZM672.672 199.712C672.672 194.134 669.718 189.938 666.278 187.238C663.086 184.732 659.086 183.137 655.099 182.019L649.7 201.277C651.053 201.656 652.067 202.027 652.8 202.356C653.546 202.69 653.868 202.922 653.929 202.97C653.981 203.011 653.646 202.763 653.294 202.132C652.908 201.439 652.672 200.583 652.672 199.712H672.672ZM655.205 182.05L642.725 178.402L637.114 197.598L649.594 201.246L655.205 182.05ZM642.81 178.427C637.042 176.686 633.4 174.501 631.185 172.324L617.166 186.588C622.375 191.707 629.229 195.218 637.029 197.573L642.81 178.427ZM631.247 172.385C629.404 170.542 628.704 168.738 628.704 166.496H608.704C608.704 174.238 611.651 181.074 617.104 186.527L631.247 172.385ZM628.704 166.496C628.704 164.623 629.235 162.985 630.549 161.287L614.73 149.049C610.796 154.135 608.704 160.049 608.704 166.496H628.704ZM630.549 161.287C631.808 159.659 633.949 157.958 637.653 156.533L630.474 137.867C624.194 140.282 618.719 143.893 614.73 149.049L630.549 161.287ZM637.716 156.509C641.32 155.095 646.065 154.224 652.208 154.224V134.224C644.27 134.224 636.919 135.337 630.411 137.891L637.716 156.509ZM652.208 154.224C658.17 154.224 663.448 154.906 668.104 156.176L673.367 136.88C666.759 135.078 659.685 134.224 652.208 134.224V154.224ZM668.132 156.183C673.257 157.565 676.94 159.111 679.466 160.644L689.845 143.548C685.203 140.729 679.606 138.563 673.339 136.873L668.132 156.183ZM676.53 146.267L673.362 150.683L689.613 162.341L692.781 157.925L676.53 146.267ZM686.469 147.841C682.607 145.622 678.208 143.869 673.406 142.486L667.873 161.706C671.519 162.755 674.352 163.946 676.506 165.183L686.469 147.841ZM673.445 142.498C668.318 140.999 662.985 140.272 657.488 140.272V160.272C661.206 160.272 664.641 160.761 667.834 161.694L673.445 142.498ZM657.488 140.272C652.635 140.272 647.477 141.001 643.105 143.573L653.246 160.811C653.182 160.849 653.415 160.699 654.155 160.546C654.892 160.394 655.976 160.272 657.488 160.272V140.272ZM643.186 143.526C638.423 146.268 635.008 151.038 635.008 157.28H655.008C655.008 157.888 654.836 158.783 654.288 159.662C653.775 160.487 653.226 160.823 653.165 160.858L643.186 143.526ZM635.008 157.28C635.008 162.68 637.793 166.811 641.161 169.505L653.654 153.887C653.669 153.899 654.033 154.193 654.394 154.857C654.785 155.576 655.008 156.432 655.008 157.28H635.008ZM641.357 169.658C644.648 172.159 649.393 173.769 653.908 174.995L659.147 155.693C657.139 155.148 655.651 154.655 654.601 154.235C653.463 153.78 653.237 153.566 653.458 153.734L641.357 169.658ZM653.989 175.017L667.525 178.569L672.602 159.223L659.066 155.671L653.989 175.017ZM718.697 208.544L715.147 217.893L715.147 217.893L718.697 208.544ZM702.281 196.928L694.34 203.006L694.382 203.061L694.424 203.115L702.281 196.928ZM702.377 159.872L694.52 153.685L694.52 153.685L702.377 159.872ZM718.697 148.256L722.275 157.594L722.298 157.585L722.321 157.576L718.697 148.256ZM764.969 148.256L761.315 157.565L761.367 157.585L761.419 157.605L764.969 148.256ZM781.289 159.872L773.384 165.998L773.408 166.028L773.432 166.059L781.289 159.872ZM781.289 196.928L773.395 190.789L773.39 190.795L773.384 190.802L781.289 196.928ZM764.969 208.544L761.419 199.195L761.405 199.201L761.39 199.206L764.969 208.544ZM747.881 203.168L739.254 198.111L739.138 198.308L739.031 198.511L747.881 203.168ZM750.089 193.28L760.056 194.088L760.057 194.068L760.059 194.047L750.089 193.28ZM749.897 162.272L739.909 162.771L739.922 163.03L739.948 163.287L749.897 162.272ZM747.785 153.536L738.935 158.193L739.088 158.483L739.258 158.762L747.785 153.536ZM735.881 153.536L744.581 158.466L744.607 158.42L744.633 158.373L735.881 153.536ZM733.769 162.272L723.802 161.455L723.8 161.48L723.798 161.505L733.769 162.272ZM733.673 193.28L743.656 192.701L743.639 192.417L743.607 192.134L733.673 193.28ZM735.785 203.168L726.947 207.847L726.989 207.926L727.032 208.005L735.785 203.168ZM741.929 202.48C734.374 202.48 727.858 201.326 722.246 199.195L715.147 217.893C723.359 221.01 732.331 222.48 741.929 222.48V202.48ZM722.246 199.195C716.797 197.126 712.902 194.252 710.137 190.741L694.424 203.115C699.723 209.844 706.772 214.714 715.147 217.893L722.246 199.195ZM710.221 190.85C707.733 187.599 706.329 183.589 706.329 178.304H686.329C686.329 187.483 688.892 195.889 694.34 203.006L710.221 190.85ZM706.329 178.304C706.329 173.142 707.73 169.237 710.233 166.059L694.52 153.685C688.959 160.747 686.329 169.13 686.329 178.304H706.329ZM710.233 166.059C713.014 162.527 716.895 159.655 722.275 157.594L715.118 138.918C706.802 142.105 699.803 146.977 694.52 153.685L710.233 166.059ZM722.321 157.576C727.912 155.402 734.401 154.224 741.929 154.224V134.224C732.304 134.224 723.305 135.734 715.072 138.936L722.321 157.576ZM741.929 154.224C749.384 154.224 755.798 155.399 761.315 157.565L768.622 138.947C760.443 135.737 751.497 134.224 741.929 134.224V154.224ZM761.419 157.605C766.859 159.67 770.696 162.529 773.384 165.998L789.193 153.746C783.945 146.975 776.902 142.09 768.518 138.907L761.419 157.605ZM773.432 166.059C775.935 169.237 777.337 173.142 777.337 178.304H797.337C797.337 169.13 794.706 160.747 789.145 153.685L773.432 166.059ZM777.337 178.304C777.337 183.551 775.922 187.539 773.395 190.789L789.182 203.067C794.719 195.949 797.337 187.521 797.337 178.304H777.337ZM773.384 190.802C770.696 194.271 766.859 197.13 761.419 199.195L768.518 217.893C776.902 214.71 783.945 209.825 789.193 203.054L773.384 190.802ZM761.39 199.206C755.852 201.328 749.411 202.48 741.929 202.48V222.48C751.47 222.48 760.389 221.008 768.547 217.882L761.39 199.206ZM741.929 216.816C744.826 216.816 747.862 216.144 750.658 214.43C753.442 212.724 755.405 210.343 756.73 207.825L739.031 198.511C739.076 198.425 739.407 197.868 740.207 197.378C741.019 196.88 741.719 196.816 741.929 196.816V216.816ZM756.507 208.225C758.838 204.25 759.663 198.934 760.056 194.088L740.121 192.472C739.953 194.548 739.725 196.069 739.489 197.125C739.234 198.268 739.063 198.437 739.254 198.111L756.507 208.225ZM760.059 194.047C760.285 191.104 760.377 185.729 760.377 178.304H740.377C740.377 185.855 740.276 190.464 740.118 192.513L760.059 194.047ZM760.377 178.304C760.377 170.75 760.222 164.951 759.845 161.257L739.948 163.287C740.211 165.865 740.377 170.754 740.377 178.304H760.377ZM759.884 161.773C759.657 157.227 758.797 152.367 756.311 148.31L739.258 158.762C739.19 158.65 739.331 158.841 739.505 159.558C739.675 160.264 739.836 161.31 739.909 162.771L759.884 161.773ZM756.634 148.879C755.329 146.4 753.4 144.026 750.648 142.312C747.871 140.582 744.84 139.888 741.929 139.888V159.888C741.641 159.888 740.898 159.802 740.073 159.288C739.273 158.79 738.96 158.24 738.935 158.193L756.634 148.879ZM741.929 139.888C739.027 139.888 736.013 140.562 733.236 142.237C730.475 143.902 728.495 146.226 727.128 148.699L744.633 158.373C744.61 158.414 744.31 158.914 743.565 159.363C742.804 159.822 742.142 159.888 741.929 159.888V139.888ZM727.18 148.606C725.021 152.417 724.162 157.057 723.802 161.455L743.735 163.089C743.865 161.506 744.057 160.336 744.256 159.51C744.462 158.658 744.625 158.388 744.581 158.466L727.18 148.606ZM723.798 161.505C723.51 165.244 723.385 170.917 723.385 178.304H743.385C743.385 170.971 743.515 165.956 743.739 163.039L723.798 161.505ZM723.385 178.304C723.385 186.327 723.463 192.043 723.738 194.426L743.607 192.134C743.607 192.14 743.597 192.051 743.582 191.828C743.568 191.617 743.553 191.336 743.537 190.976C743.506 190.252 743.478 189.299 743.455 188.096C743.408 185.692 743.385 182.436 743.385 178.304H723.385ZM723.689 193.859C723.972 198.744 724.784 203.762 726.947 207.847L744.622 198.489C744.624 198.491 744.609 198.464 744.582 198.4C744.555 198.337 744.518 198.243 744.475 198.114C744.386 197.853 744.28 197.48 744.172 196.975C743.953 195.951 743.763 194.549 743.656 192.701L723.689 193.859ZM727.032 208.005C728.419 210.515 730.432 212.846 733.223 214.503C736.019 216.163 739.039 216.816 741.929 216.816V196.816C742.066 196.816 742.686 196.861 743.434 197.305C744.177 197.746 744.494 198.253 744.537 198.331L727.032 208.005Z" fill="#1D1818" mask="url(#path-1-inside-1_2_6)"/>
</svg>
