<svg width="900" height="346" viewBox="0 0 900 346" fill="none" xmlns="http://www.w3.org/2000/svg">
<mask id="path-1-outside-1_2_4" maskUnits="userSpaceOnUse" x="133" y="143" width="656" height="71" fill="black">
<rect fill="white" x="133" y="143" width="656" height="71"/>
<path d="M134.313 144.8H184.809C193.961 144.8 201.865 148.064 208.521 154.592C215.113 161.184 218.409 169.088 218.409 178.304C218.409 187.648 215.113 195.616 208.521 202.208C201.929 208.736 194.025 212 184.809 212H134.313V144.8ZM173.673 206.432C177.321 206.432 179.945 205.248 181.545 202.88C183.081 200.576 184.041 197.312 184.425 193.088C184.745 190.336 184.905 185.408 184.905 178.304C184.905 172.8 184.713 167.552 184.329 162.56C183.945 158.784 182.985 155.904 181.449 153.92C179.849 151.552 177.257 150.368 173.673 150.368H167.913V206.432H173.673ZM223.094 144.8H292.886V150.464H256.886V175.328H274.55V181.088H256.886V206.24H292.886V212H223.094V144.8ZM298.376 144.8H332.072V206.24H368.552V212H298.376V144.8ZM374.032 144.8H405.328V212H374.032V144.8ZM460.03 205.76C464.83 205.76 468.638 203.808 471.454 199.904C474.27 196 476.094 191.264 476.926 185.696H482.878C481.982 192.608 479.71 198.496 476.062 203.36C474.014 206.048 471.678 208.064 469.054 209.408C466.494 210.688 463.646 211.52 460.51 211.904C457.438 212.288 453.406 212.48 448.414 212.48C441.374 212.48 435.646 211.808 431.23 210.464C426.878 209.056 423.134 206.784 419.998 203.648C413.854 197.504 410.782 189.056 410.782 178.304C410.782 166.976 413.534 158.56 419.038 153.056C422.622 149.472 426.622 147.104 431.038 145.952C435.454 144.8 441.246 144.224 448.414 144.224C455.006 144.224 460.35 144.704 464.446 145.664C468.606 146.56 471.998 148.512 474.622 151.52C476.798 154.016 478.494 157.024 479.71 160.544C480.926 164.064 481.63 167.552 481.822 171.008H476.35C476.094 168.128 475.39 165.184 474.238 162.176C473.15 159.104 471.422 156.48 469.054 154.304C466.686 152.064 463.678 150.944 460.03 150.944C456.574 150.944 453.79 152.448 451.678 155.456C449.822 157.824 448.414 161.312 447.454 165.92C446.75 169.44 446.398 173.568 446.398 178.304C446.398 185.792 447.294 191.84 449.086 196.448C451.39 202.656 455.038 205.76 460.03 205.76ZM487.563 144.8H518.859V212H487.563V144.8ZM569.241 212.48C560.665 212.48 552.921 211.168 546.009 208.544C539.097 205.92 533.625 202.048 529.593 196.928C525.625 191.744 523.641 185.536 523.641 178.304C523.641 171.136 525.657 164.992 529.689 159.872C533.721 154.752 539.161 150.88 546.009 148.256C552.921 145.568 560.665 144.224 569.241 144.224C577.753 144.224 585.433 145.568 592.281 148.256C599.193 150.88 604.633 154.752 608.601 159.872C612.633 164.992 614.649 171.136 614.649 178.304C614.649 185.536 612.633 191.744 608.601 196.928C604.633 202.048 599.193 205.92 592.281 208.544C585.433 211.168 577.753 212.48 569.241 212.48ZM569.241 206.816C571.929 206.816 573.913 205.6 575.193 203.168C576.281 201.312 577.017 198.016 577.401 193.28C577.593 190.784 577.689 185.792 577.689 178.304C577.689 170.752 577.529 165.408 577.209 162.272C577.017 158.432 576.313 155.52 575.097 153.536C573.817 151.104 571.865 149.888 569.241 149.888C566.553 149.888 564.537 151.104 563.193 153.536C562.105 155.456 561.401 158.368 561.081 162.272C560.825 165.6 560.697 170.944 560.697 178.304C560.697 186.624 560.793 191.616 560.985 193.28C561.241 197.696 561.945 200.992 563.097 203.168C564.441 205.6 566.489 206.816 569.241 206.816ZM670.064 168.896C677.68 170.944 683.376 173.664 687.152 177.056C690.928 180.384 692.816 184.736 692.816 190.112C692.816 194.4 691.472 198.24 688.784 201.632C686.096 205.024 682.128 207.68 676.88 209.6C671.696 211.52 665.392 212.48 657.968 212.48C649.2 212.48 641.456 211.36 634.736 209.12C628.08 206.816 622.864 204.032 619.088 200.768L622.256 196.448C625.584 199.072 629.776 201.312 634.832 203.168C639.888 205.024 645.328 205.952 651.152 205.952C654.928 205.952 657.776 205.408 659.696 204.32C661.68 203.232 662.672 201.696 662.672 199.712C662.672 196.256 659.248 193.568 652.4 191.648L639.92 188C633.136 185.952 627.888 183.104 624.176 179.456C620.528 175.808 618.704 171.488 618.704 166.496C618.704 162.336 620.016 158.56 622.64 155.168C625.264 151.776 629.072 149.12 634.064 147.2C639.12 145.216 645.168 144.224 652.208 144.224C658.928 144.224 665.104 144.992 670.736 146.528C676.432 148.064 681.072 149.92 684.656 152.096L681.488 156.512C678.48 154.784 674.864 153.312 670.64 152.096C666.48 150.88 662.096 150.272 657.488 150.272C653.456 150.272 650.352 150.912 648.176 152.192C646.064 153.408 645.008 155.104 645.008 157.28C645.008 158.944 645.808 160.416 647.408 161.696C649.008 162.912 652.048 164.128 656.528 165.344L670.064 168.896ZM741.929 212.48C733.353 212.48 725.609 211.168 718.697 208.544C711.785 205.92 706.313 202.048 702.281 196.928C698.313 191.744 696.329 185.536 696.329 178.304C696.329 171.136 698.345 164.992 702.377 159.872C706.409 154.752 711.849 150.88 718.697 148.256C725.609 145.568 733.353 144.224 741.929 144.224C750.441 144.224 758.121 145.568 764.969 148.256C771.881 150.88 777.321 154.752 781.289 159.872C785.321 164.992 787.337 171.136 787.337 178.304C787.337 185.536 785.321 191.744 781.289 196.928C777.321 202.048 771.881 205.92 764.969 208.544C758.121 211.168 750.441 212.48 741.929 212.48ZM741.929 206.816C744.617 206.816 746.601 205.6 747.881 203.168C748.969 201.312 749.705 198.016 750.089 193.28C750.281 190.784 750.377 185.792 750.377 178.304C750.377 170.752 750.217 165.408 749.897 162.272C749.705 158.432 749.001 155.52 747.785 153.536C746.505 151.104 744.553 149.888 741.929 149.888C739.241 149.888 737.225 151.104 735.881 153.536C734.793 155.456 734.089 158.368 733.769 162.272C733.513 165.6 733.385 170.944 733.385 178.304C733.385 186.624 733.481 191.616 733.673 193.28C733.929 197.696 734.633 200.992 735.785 203.168C737.129 205.6 739.177 206.816 741.929 206.816Z"/>
</mask>
<path d="M134.313 144.8H184.809C193.961 144.8 201.865 148.064 208.521 154.592C215.113 161.184 218.409 169.088 218.409 178.304C218.409 187.648 215.113 195.616 208.521 202.208C201.929 208.736 194.025 212 184.809 212H134.313V144.8ZM173.673 206.432C177.321 206.432 179.945 205.248 181.545 202.88C183.081 200.576 184.041 197.312 184.425 193.088C184.745 190.336 184.905 185.408 184.905 178.304C184.905 172.8 184.713 167.552 184.329 162.56C183.945 158.784 182.985 155.904 181.449 153.92C179.849 151.552 177.257 150.368 173.673 150.368H167.913V206.432H173.673ZM223.094 144.8H292.886V150.464H256.886V175.328H274.55V181.088H256.886V206.24H292.886V212H223.094V144.8ZM298.376 144.8H332.072V206.24H368.552V212H298.376V144.8ZM374.032 144.8H405.328V212H374.032V144.8ZM460.03 205.76C464.83 205.76 468.638 203.808 471.454 199.904C474.27 196 476.094 191.264 476.926 185.696H482.878C481.982 192.608 479.71 198.496 476.062 203.36C474.014 206.048 471.678 208.064 469.054 209.408C466.494 210.688 463.646 211.52 460.51 211.904C457.438 212.288 453.406 212.48 448.414 212.48C441.374 212.48 435.646 211.808 431.23 210.464C426.878 209.056 423.134 206.784 419.998 203.648C413.854 197.504 410.782 189.056 410.782 178.304C410.782 166.976 413.534 158.56 419.038 153.056C422.622 149.472 426.622 147.104 431.038 145.952C435.454 144.8 441.246 144.224 448.414 144.224C455.006 144.224 460.35 144.704 464.446 145.664C468.606 146.56 471.998 148.512 474.622 151.52C476.798 154.016 478.494 157.024 479.71 160.544C480.926 164.064 481.63 167.552 481.822 171.008H476.35C476.094 168.128 475.39 165.184 474.238 162.176C473.15 159.104 471.422 156.48 469.054 154.304C466.686 152.064 463.678 150.944 460.03 150.944C456.574 150.944 453.79 152.448 451.678 155.456C449.822 157.824 448.414 161.312 447.454 165.92C446.75 169.44 446.398 173.568 446.398 178.304C446.398 185.792 447.294 191.84 449.086 196.448C451.39 202.656 455.038 205.76 460.03 205.76ZM487.563 144.8H518.859V212H487.563V144.8ZM569.241 212.48C560.665 212.48 552.921 211.168 546.009 208.544C539.097 205.92 533.625 202.048 529.593 196.928C525.625 191.744 523.641 185.536 523.641 178.304C523.641 171.136 525.657 164.992 529.689 159.872C533.721 154.752 539.161 150.88 546.009 148.256C552.921 145.568 560.665 144.224 569.241 144.224C577.753 144.224 585.433 145.568 592.281 148.256C599.193 150.88 604.633 154.752 608.601 159.872C612.633 164.992 614.649 171.136 614.649 178.304C614.649 185.536 612.633 191.744 608.601 196.928C604.633 202.048 599.193 205.92 592.281 208.544C585.433 211.168 577.753 212.48 569.241 212.48ZM569.241 206.816C571.929 206.816 573.913 205.6 575.193 203.168C576.281 201.312 577.017 198.016 577.401 193.28C577.593 190.784 577.689 185.792 577.689 178.304C577.689 170.752 577.529 165.408 577.209 162.272C577.017 158.432 576.313 155.52 575.097 153.536C573.817 151.104 571.865 149.888 569.241 149.888C566.553 149.888 564.537 151.104 563.193 153.536C562.105 155.456 561.401 158.368 561.081 162.272C560.825 165.6 560.697 170.944 560.697 178.304C560.697 186.624 560.793 191.616 560.985 193.28C561.241 197.696 561.945 200.992 563.097 203.168C564.441 205.6 566.489 206.816 569.241 206.816ZM670.064 168.896C677.68 170.944 683.376 173.664 687.152 177.056C690.928 180.384 692.816 184.736 692.816 190.112C692.816 194.4 691.472 198.24 688.784 201.632C686.096 205.024 682.128 207.68 676.88 209.6C671.696 211.52 665.392 212.48 657.968 212.48C649.2 212.48 641.456 211.36 634.736 209.12C628.08 206.816 622.864 204.032 619.088 200.768L622.256 196.448C625.584 199.072 629.776 201.312 634.832 203.168C639.888 205.024 645.328 205.952 651.152 205.952C654.928 205.952 657.776 205.408 659.696 204.32C661.68 203.232 662.672 201.696 662.672 199.712C662.672 196.256 659.248 193.568 652.4 191.648L639.92 188C633.136 185.952 627.888 183.104 624.176 179.456C620.528 175.808 618.704 171.488 618.704 166.496C618.704 162.336 620.016 158.56 622.64 155.168C625.264 151.776 629.072 149.12 634.064 147.2C639.12 145.216 645.168 144.224 652.208 144.224C658.928 144.224 665.104 144.992 670.736 146.528C676.432 148.064 681.072 149.92 684.656 152.096L681.488 156.512C678.48 154.784 674.864 153.312 670.64 152.096C666.48 150.88 662.096 150.272 657.488 150.272C653.456 150.272 650.352 150.912 648.176 152.192C646.064 153.408 645.008 155.104 645.008 157.28C645.008 158.944 645.808 160.416 647.408 161.696C649.008 162.912 652.048 164.128 656.528 165.344L670.064 168.896ZM741.929 212.48C733.353 212.48 725.609 211.168 718.697 208.544C711.785 205.92 706.313 202.048 702.281 196.928C698.313 191.744 696.329 185.536 696.329 178.304C696.329 171.136 698.345 164.992 702.377 159.872C706.409 154.752 711.849 150.88 718.697 148.256C725.609 145.568 733.353 144.224 741.929 144.224C750.441 144.224 758.121 145.568 764.969 148.256C771.881 150.88 777.321 154.752 781.289 159.872C785.321 164.992 787.337 171.136 787.337 178.304C787.337 185.536 785.321 191.744 781.289 196.928C777.321 202.048 771.881 205.92 764.969 208.544C758.121 211.168 750.441 212.48 741.929 212.48ZM741.929 206.816C744.617 206.816 746.601 205.6 747.881 203.168C748.969 201.312 749.705 198.016 750.089 193.28C750.281 190.784 750.377 185.792 750.377 178.304C750.377 170.752 750.217 165.408 749.897 162.272C749.705 158.432 749.001 155.52 747.785 153.536C746.505 151.104 744.553 149.888 741.929 149.888C739.241 149.888 737.225 151.104 735.881 153.536C734.793 155.456 734.089 158.368 733.769 162.272C733.513 165.6 733.385 170.944 733.385 178.304C733.385 186.624 733.481 191.616 733.673 193.28C733.929 197.696 734.633 200.992 735.785 203.168C737.129 205.6 739.177 206.816 741.929 206.816Z" fill="black"/>
<path d="M134.313 144.8V143.8H133.313V144.8H134.313ZM208.521 154.592L209.228 153.885L209.221 153.878L208.521 154.592ZM208.521 202.208L209.225 202.919L209.228 202.915L208.521 202.208ZM134.313 212H133.313V213H134.313V212ZM181.545 202.88L182.374 203.44L182.377 203.435L181.545 202.88ZM184.425 193.088L183.432 192.972L183.43 192.985L183.429 192.997L184.425 193.088ZM184.329 162.56L185.326 162.483L185.325 162.471L185.324 162.459L184.329 162.56ZM181.449 153.92L180.62 154.48L180.639 154.507L180.658 154.532L181.449 153.92ZM167.913 150.368V149.368H166.913V150.368H167.913ZM167.913 206.432H166.913V207.432H167.913V206.432ZM134.313 145.8H184.809V143.8H134.313V145.8ZM184.809 145.8C193.694 145.8 201.348 148.957 207.821 155.306L209.221 153.878C202.382 147.171 194.228 143.8 184.809 143.8V145.8ZM207.814 155.299C214.221 161.706 217.409 169.357 217.409 178.304H219.409C219.409 168.819 216.005 160.662 209.228 153.885L207.814 155.299ZM217.409 178.304C217.409 187.383 214.218 195.097 207.814 201.501L209.228 202.915C216.008 196.135 219.409 187.913 219.409 178.304H217.409ZM207.817 201.497C201.411 207.841 193.76 211 184.809 211V213C194.29 213 202.447 209.631 209.225 202.919L207.817 201.497ZM184.809 211H134.313V213H184.809V211ZM135.313 212V144.8H133.313V212H135.313ZM173.673 207.432C177.55 207.432 180.537 206.159 182.374 203.44L180.716 202.32C179.353 204.337 177.092 205.432 173.673 205.432V207.432ZM182.377 203.435C184.042 200.937 185.029 197.488 185.421 193.179L183.429 192.997C183.053 197.136 182.12 200.215 180.713 202.325L182.377 203.435ZM185.418 193.203C185.746 190.387 185.905 185.405 185.905 178.304H183.905C183.905 185.411 183.744 190.285 183.432 192.972L185.418 193.203ZM185.905 178.304C185.905 172.777 185.712 167.503 185.326 162.483L183.332 162.637C183.714 167.601 183.905 172.823 183.905 178.304H185.905ZM185.324 162.459C184.93 158.585 183.935 155.497 182.24 153.308L180.658 154.532C182.035 156.311 182.96 158.983 183.334 162.661L185.324 162.459ZM182.278 153.36C180.444 150.646 177.494 149.368 173.673 149.368V151.368C177.02 151.368 179.254 152.458 180.62 154.48L182.278 153.36ZM173.673 149.368H167.913V151.368H173.673V149.368ZM166.913 150.368V206.432H168.913V150.368H166.913ZM167.913 207.432H173.673V205.432H167.913V207.432ZM223.094 144.8V143.8H222.094V144.8H223.094ZM292.886 144.8H293.886V143.8H292.886V144.8ZM292.886 150.464V151.464H293.886V150.464H292.886ZM256.886 150.464V149.464H255.886V150.464H256.886ZM256.886 175.328H255.886V176.328H256.886V175.328ZM274.55 175.328H275.55V174.328H274.55V175.328ZM274.55 181.088V182.088H275.55V181.088H274.55ZM256.886 181.088V180.088H255.886V181.088H256.886ZM256.886 206.24H255.886V207.24H256.886V206.24ZM292.886 206.24H293.886V205.24H292.886V206.24ZM292.886 212V213H293.886V212H292.886ZM223.094 212H222.094V213H223.094V212ZM223.094 145.8H292.886V143.8H223.094V145.8ZM291.886 144.8V150.464H293.886V144.8H291.886ZM292.886 149.464H256.886V151.464H292.886V149.464ZM255.886 150.464V175.328H257.886V150.464H255.886ZM256.886 176.328H274.55V174.328H256.886V176.328ZM273.55 175.328V181.088H275.55V175.328H273.55ZM274.55 180.088H256.886V182.088H274.55V180.088ZM255.886 181.088V206.24H257.886V181.088H255.886ZM256.886 207.24H292.886V205.24H256.886V207.24ZM291.886 206.24V212H293.886V206.24H291.886ZM292.886 211H223.094V213H292.886V211ZM224.094 212V144.8H222.094V212H224.094ZM298.376 144.8V143.8H297.376V144.8H298.376ZM332.072 144.8H333.072V143.8H332.072V144.8ZM332.072 206.24H331.072V207.24H332.072V206.24ZM368.552 206.24H369.552V205.24H368.552V206.24ZM368.552 212V213H369.552V212H368.552ZM298.376 212H297.376V213H298.376V212ZM298.376 145.8H332.072V143.8H298.376V145.8ZM331.072 144.8V206.24H333.072V144.8H331.072ZM332.072 207.24H368.552V205.24H332.072V207.24ZM367.552 206.24V212H369.552V206.24H367.552ZM368.552 211H298.376V213H368.552V211ZM299.376 212V144.8H297.376V212H299.376ZM374.032 144.8V143.8H373.032V144.8H374.032ZM405.328 144.8H406.328V143.8H405.328V144.8ZM405.328 212V213H406.328V212H405.328ZM374.032 212H373.032V213H374.032V212ZM374.032 145.8H405.328V143.8H374.032V145.8ZM404.328 144.8V212H406.328V144.8H404.328ZM405.328 211H374.032V213H405.328V211ZM375.032 212V144.8H373.032V212H375.032ZM471.454 199.904L470.643 199.319L470.643 199.319L471.454 199.904ZM476.926 185.696V184.696H476.064L475.937 185.548L476.926 185.696ZM482.878 185.696L483.869 185.825L484.016 184.696H482.878V185.696ZM476.062 203.36L476.857 203.966L476.862 203.96L476.062 203.36ZM469.054 209.408L469.501 210.302L469.51 210.298L469.054 209.408ZM460.51 211.904L460.388 210.911L460.386 210.912L460.51 211.904ZM431.23 210.464L430.922 211.415L430.93 211.418L430.939 211.421L431.23 210.464ZM419.998 203.648L419.291 204.355L419.291 204.355L419.998 203.648ZM419.038 153.056L418.331 152.349L418.331 152.349L419.038 153.056ZM431.038 145.952L430.785 144.984L430.785 144.984L431.038 145.952ZM464.446 145.664L464.218 146.638L464.226 146.64L464.235 146.642L464.446 145.664ZM474.622 151.52L475.376 150.863L475.375 150.863L474.622 151.52ZM479.71 160.544L478.765 160.871L478.765 160.871L479.71 160.544ZM481.822 171.008V172.008H482.879L482.82 170.953L481.822 171.008ZM476.35 171.008L475.354 171.097L475.435 172.008H476.35V171.008ZM474.238 162.176L473.295 162.51L473.299 162.522L473.304 162.534L474.238 162.176ZM469.054 154.304L468.367 155.03L468.372 155.035L468.377 155.04L469.054 154.304ZM451.678 155.456L452.465 156.073L452.481 156.052L452.496 156.031L451.678 155.456ZM447.454 165.92L446.475 165.716L446.473 165.724L447.454 165.92ZM449.086 196.448L450.023 196.1L450.021 196.093L450.018 196.086L449.086 196.448ZM460.03 206.76C465.152 206.76 469.261 204.653 472.265 200.489L470.643 199.319C468.014 202.963 464.507 204.76 460.03 204.76V206.76ZM472.265 200.489C475.189 196.435 477.063 191.543 477.915 185.844L475.937 185.548C475.124 190.985 473.351 195.565 470.643 199.319L472.265 200.489ZM476.926 186.696H482.878V184.696H476.926V186.696ZM481.886 185.567C481.009 192.334 478.792 198.053 475.262 202.76L476.862 203.96C480.628 198.939 482.955 192.882 483.869 185.825L481.886 185.567ZM475.266 202.754C473.296 205.341 471.071 207.251 468.598 208.518L469.51 210.298C472.285 208.877 474.732 206.755 476.857 203.966L475.266 202.754ZM468.607 208.514C466.159 209.737 463.423 210.54 460.388 210.911L460.631 212.897C463.869 212.5 466.829 211.639 469.501 210.302L468.607 208.514ZM460.386 210.912C457.372 211.288 453.386 211.48 448.414 211.48V213.48C453.425 213.48 457.504 213.288 460.634 212.896L460.386 210.912ZM448.414 211.48C441.426 211.48 435.807 210.812 431.521 209.507L430.939 211.421C435.485 212.804 441.321 213.48 448.414 213.48V211.48ZM431.538 209.513C427.331 208.152 423.725 205.961 420.705 202.941L419.291 204.355C422.542 207.607 426.424 209.96 430.922 211.415L431.538 209.513ZM420.705 202.941C414.791 197.027 411.782 188.858 411.782 178.304H409.782C409.782 189.254 412.917 197.981 419.291 204.355L420.705 202.941ZM411.782 178.304C411.782 167.12 414.499 159.009 419.745 153.763L418.331 152.349C412.568 158.111 409.782 166.832 409.782 178.304H411.782ZM419.745 153.763C423.217 150.291 427.065 148.022 431.29 146.92L430.785 144.984C426.179 146.186 422.026 148.653 418.331 152.349L419.745 153.763ZM431.29 146.92C435.591 145.798 441.288 145.224 448.414 145.224V143.224C441.203 143.224 435.317 143.802 430.785 144.984L431.29 146.92ZM448.414 145.224C454.967 145.224 460.226 145.702 464.218 146.638L464.674 144.69C460.473 143.706 455.045 143.224 448.414 143.224V145.224ZM464.235 146.642C468.199 147.495 471.396 149.343 473.868 152.177L475.375 150.863C472.6 147.681 469.012 145.625 464.656 144.686L464.235 146.642ZM473.868 152.177C475.95 154.565 477.585 157.457 478.765 160.871L480.655 160.217C479.402 156.591 477.646 153.467 475.376 150.863L473.868 152.177ZM478.765 160.871C479.953 164.31 480.637 167.707 480.823 171.063L482.82 170.953C482.623 167.397 481.899 163.818 480.655 160.217L478.765 160.871ZM481.822 170.008H476.35V172.008H481.822V170.008ZM477.346 170.919C477.081 167.937 476.353 164.903 475.172 161.818L473.304 162.534C474.427 165.465 475.107 168.318 475.354 171.097L477.346 170.919ZM475.18 161.842C474.039 158.618 472.22 155.856 469.73 153.568L468.377 155.04C470.623 157.104 472.261 159.59 473.295 162.51L475.18 161.842ZM469.741 153.578C467.165 151.14 463.9 149.944 460.03 149.944V151.944C463.455 151.944 466.207 152.988 468.367 155.03L469.741 153.578ZM460.03 149.944C456.224 149.944 453.145 151.627 450.859 154.881L452.496 156.031C454.435 153.269 456.923 151.944 460.03 151.944V149.944ZM450.891 154.839C448.901 157.377 447.45 161.034 446.475 165.716L448.433 166.124C449.377 161.59 450.742 158.271 452.465 156.073L450.891 154.839ZM446.473 165.724C445.753 169.325 445.398 173.522 445.398 178.304H447.398C447.398 173.614 447.747 169.555 448.434 166.116L446.473 165.724ZM445.398 178.304C445.398 185.859 446.3 192.043 448.154 196.81L450.018 196.086C448.288 191.637 447.398 185.725 447.398 178.304H445.398ZM448.148 196.796C449.338 200.002 450.907 202.496 452.902 204.194C454.915 205.906 457.307 206.76 460.03 206.76V204.76C457.76 204.76 455.833 204.062 454.198 202.67C452.544 201.264 451.137 199.102 450.023 196.1L448.148 196.796ZM487.563 144.8V143.8H486.563V144.8H487.563ZM518.859 144.8H519.859V143.8H518.859V144.8ZM518.859 212V213H519.859V212H518.859ZM487.563 212H486.563V213H487.563V212ZM487.563 145.8H518.859V143.8H487.563V145.8ZM517.859 144.8V212H519.859V144.8H517.859ZM518.859 211H487.563V213H518.859V211ZM488.563 212V144.8H486.563V212H488.563ZM546.009 208.544L545.654 209.479L545.654 209.479L546.009 208.544ZM529.593 196.928L528.799 197.536L528.807 197.547L529.593 196.928ZM529.689 159.872L528.903 159.253L528.903 159.253L529.689 159.872ZM546.009 148.256L546.367 149.19L546.371 149.188L546.009 148.256ZM592.281 148.256L591.916 149.187L591.926 149.191L592.281 148.256ZM608.601 159.872L607.811 160.485L607.815 160.491L608.601 159.872ZM608.601 196.928L607.812 196.314L607.811 196.315L608.601 196.928ZM592.281 208.544L591.926 207.609L591.923 207.61L592.281 208.544ZM575.193 203.168L574.33 202.662L574.319 202.682L574.308 202.702L575.193 203.168ZM577.401 193.28L578.398 193.361L578.398 193.357L577.401 193.28ZM577.209 162.272L576.21 162.322L576.212 162.348L576.214 162.374L577.209 162.272ZM575.097 153.536L574.212 154.002L574.227 154.031L574.244 154.059L575.097 153.536ZM563.193 153.536L564.063 154.029L564.068 154.02L563.193 153.536ZM561.081 162.272L560.084 162.19L560.084 162.195L561.081 162.272ZM560.985 193.28L561.983 193.222L561.982 193.194L561.978 193.165L560.985 193.28ZM563.097 203.168L562.213 203.636L562.217 203.644L562.222 203.652L563.097 203.168ZM569.241 211.48C560.767 211.48 553.146 210.184 546.364 207.609L545.654 209.479C552.696 212.152 560.563 213.48 569.241 213.48V211.48ZM546.364 207.609C539.598 205.041 534.284 201.268 530.379 196.309L528.807 197.547C532.966 202.828 538.596 206.799 545.654 209.479L546.364 207.609ZM530.387 196.32C526.567 191.33 524.641 185.341 524.641 178.304H522.641C522.641 185.731 524.683 192.158 528.799 197.536L530.387 196.32ZM524.641 178.304C524.641 171.337 526.596 165.417 530.475 160.491L528.903 159.253C524.718 164.567 522.641 170.935 522.641 178.304H524.641ZM530.475 160.491C534.382 155.53 539.666 151.758 546.367 149.19L545.651 147.322C538.656 150.002 533.06 153.974 528.903 159.253L530.475 160.491ZM546.371 149.188C553.151 146.551 560.77 145.224 569.241 145.224V143.224C560.56 143.224 552.691 144.585 545.647 147.324L546.371 149.188ZM569.241 145.224C577.647 145.224 585.201 146.551 591.916 149.187L592.646 147.325C585.665 144.585 577.859 143.224 569.241 143.224V145.224ZM591.926 149.191C598.691 151.759 603.971 155.53 607.811 160.485L609.391 159.259C605.295 153.974 599.695 150.001 592.636 147.321L591.926 149.191ZM607.815 160.491C611.694 165.417 613.649 171.337 613.649 178.304H615.649C615.649 170.935 613.572 164.567 609.387 159.253L607.815 160.491ZM613.649 178.304C613.649 185.337 611.693 191.324 607.812 196.314L609.39 197.542C613.573 192.164 615.649 185.735 615.649 178.304H613.649ZM607.811 196.315C603.971 201.27 598.691 205.041 591.926 207.609L592.636 209.479C599.695 206.799 605.295 202.826 609.391 197.541L607.811 196.315ZM591.923 207.61C585.206 210.184 577.65 211.48 569.241 211.48V213.48C577.856 213.48 585.66 212.152 592.639 209.478L591.923 207.61ZM569.241 207.816C570.74 207.816 572.095 207.475 573.268 206.757C574.439 206.039 575.369 204.98 576.078 203.634L574.308 202.702C573.737 203.788 573.035 204.553 572.222 205.051C571.411 205.549 570.43 205.816 569.241 205.816V207.816ZM576.056 203.674C577.268 201.606 578.013 198.108 578.398 193.361L576.404 193.199C576.021 197.924 575.294 201.018 574.33 202.662L576.056 203.674ZM578.398 193.357C578.593 190.816 578.689 185.786 578.689 178.304H576.689C576.689 185.798 576.593 190.752 576.404 193.203L578.398 193.357ZM578.689 178.304C578.689 170.752 578.53 165.362 578.204 162.17L576.214 162.374C576.528 165.454 576.689 170.752 576.689 178.304H578.689ZM578.208 162.222C578.012 158.311 577.293 155.205 575.95 153.013L574.244 154.059C575.333 155.835 576.022 158.553 576.21 162.322L578.208 162.222ZM575.982 153.07C575.275 151.728 574.355 150.67 573.202 149.951C572.046 149.231 570.713 148.888 569.241 148.888V150.888C570.393 150.888 571.348 151.153 572.144 151.649C572.943 152.146 573.639 152.912 574.212 154.002L575.982 153.07ZM569.241 148.888C567.741 148.888 566.381 149.229 565.197 149.944C564.013 150.657 563.059 151.711 562.318 153.052L564.068 154.02C564.671 152.929 565.397 152.159 566.229 151.656C567.061 151.155 568.053 150.888 569.241 150.888V148.888ZM562.323 153.043C561.128 155.152 560.408 158.237 560.084 162.19L562.078 162.354C562.394 158.499 563.082 155.76 564.063 154.029L562.323 153.043ZM560.084 162.195C559.825 165.564 559.697 170.941 559.697 178.304H561.697C561.697 170.947 561.825 165.636 562.078 162.349L560.084 162.195ZM559.697 178.304C559.697 186.594 559.791 191.659 559.992 193.395L561.978 193.165C561.795 191.573 561.697 186.654 561.697 178.304H559.697ZM559.987 193.338C560.245 197.801 560.96 201.269 562.213 203.636L563.981 202.7C562.93 200.715 562.237 197.591 561.983 193.222L559.987 193.338ZM562.222 203.652C562.965 204.997 563.93 206.051 565.13 206.764C566.332 207.477 567.714 207.816 569.241 207.816V205.816C568.016 205.816 566.998 205.547 566.152 205.044C565.304 204.541 564.573 203.771 563.972 202.684L562.222 203.652ZM670.064 168.896L670.323 167.93L670.317 167.929L670.064 168.896ZM687.152 177.056L686.483 177.8L686.49 177.806L687.152 177.056ZM688.784 201.632L689.567 202.253L689.567 202.253L688.784 201.632ZM676.88 209.6L676.536 208.661L676.532 208.662L676.88 209.6ZM634.736 209.12L634.408 210.065L634.419 210.069L634.736 209.12ZM619.088 200.768L618.281 200.177L617.735 200.921L618.434 201.525L619.088 200.768ZM622.256 196.448L622.875 195.663L622.061 195.022L621.449 195.857L622.256 196.448ZM634.832 203.168L635.176 202.229L635.176 202.229L634.832 203.168ZM659.696 204.32L659.215 203.443L659.202 203.45L659.696 204.32ZM652.4 191.648L652.119 192.608L652.13 192.611L652.4 191.648ZM639.92 188L639.63 188.957L639.639 188.96L639.92 188ZM624.176 179.456L623.468 180.163L623.475 180.169L624.176 179.456ZM622.64 155.168L623.43 155.78L623.43 155.78L622.64 155.168ZM634.064 147.2L634.422 148.133L634.429 148.131L634.064 147.2ZM670.736 146.528L670.472 147.493L670.475 147.494L670.736 146.528ZM684.656 152.096L685.468 152.679L686.097 151.802L685.174 151.241L684.656 152.096ZM681.488 156.512L680.989 157.379L681.773 157.829L682.3 157.095L681.488 156.512ZM670.64 152.096L670.359 153.056L670.363 153.057L670.64 152.096ZM648.176 152.192L648.674 153.059L648.683 153.054L648.176 152.192ZM647.408 161.696L646.783 162.477L646.793 162.485L646.802 162.492L647.408 161.696ZM656.528 165.344L656.266 166.309L656.274 166.311L656.528 165.344ZM669.804 169.862C677.344 171.889 682.871 174.555 686.483 177.8L687.82 176.312C683.88 172.773 678.015 169.999 670.323 167.93L669.804 169.862ZM686.49 177.806C690.035 180.93 691.816 185.001 691.816 190.112H693.816C693.816 184.471 691.82 179.838 687.813 176.306L686.49 177.806ZM691.816 190.112C691.816 194.172 690.549 197.794 688 201.011L689.567 202.253C692.394 198.686 693.816 194.628 693.816 190.112H691.816ZM688 201.011C685.455 204.222 681.66 206.786 676.536 208.661L677.223 210.539C682.595 208.574 686.736 205.826 689.567 202.253L688 201.011ZM676.532 208.662C671.49 210.53 665.311 211.48 657.968 211.48V213.48C665.472 213.48 671.901 212.51 677.227 210.538L676.532 208.662ZM657.968 211.48C649.282 211.48 641.649 210.37 635.052 208.171L634.419 210.069C641.262 212.35 649.117 213.48 657.968 213.48V211.48ZM635.063 208.175C628.481 205.897 623.391 203.166 619.741 200.011L618.434 201.525C622.336 204.898 627.678 207.735 634.408 210.065L635.063 208.175ZM619.894 201.359L623.062 197.039L621.449 195.857L618.281 200.177L619.894 201.359ZM621.636 197.233C625.066 199.938 629.357 202.224 634.487 204.107L635.176 202.229C630.194 200.4 626.101 198.206 622.875 195.663L621.636 197.233ZM634.487 204.107C639.662 206.006 645.22 206.952 651.152 206.952V204.952C645.435 204.952 640.113 204.042 635.176 202.229L634.487 204.107ZM651.152 206.952C654.993 206.952 658.046 206.404 660.189 205.19L659.202 203.45C657.505 204.412 654.862 204.952 651.152 204.952V206.952ZM660.176 205.197C662.426 203.963 663.672 202.119 663.672 199.712H661.672C661.672 201.273 660.933 202.501 659.215 203.443L660.176 205.197ZM663.672 199.712C663.672 197.599 662.606 195.797 660.721 194.317C658.861 192.857 656.15 191.661 652.669 190.685L652.13 192.611C655.497 193.555 657.922 194.663 659.486 195.891C661.025 197.099 661.672 198.369 661.672 199.712H663.672ZM652.68 190.688L640.2 187.04L639.639 188.96L652.119 192.608L652.68 190.688ZM640.209 187.043C633.526 185.025 628.439 182.244 624.876 178.743L623.475 180.169C627.336 183.964 632.745 186.879 639.63 188.957L640.209 187.043ZM624.883 178.749C621.415 175.281 619.704 171.213 619.704 166.496H617.704C617.704 171.763 619.64 176.335 623.468 180.163L624.883 178.749ZM619.704 166.496C619.704 162.565 620.937 159.003 623.43 155.78L621.849 154.556C619.094 158.117 617.704 162.107 617.704 166.496H619.704ZM623.43 155.78C625.918 152.564 629.559 150.004 634.422 148.133L633.705 146.267C628.584 148.236 624.609 150.988 621.849 154.556L623.43 155.78ZM634.429 148.131C639.34 146.204 645.257 145.224 652.208 145.224V143.224C645.078 143.224 638.899 144.228 633.698 146.269L634.429 148.131ZM652.208 145.224C658.852 145.224 664.938 145.983 670.472 147.493L670.999 145.563C665.269 144.001 659.003 143.224 652.208 143.224V145.224ZM670.475 147.494C676.114 149.014 680.658 150.839 684.137 152.951L685.174 151.241C681.485 149.001 676.749 147.114 670.996 145.562L670.475 147.494ZM683.843 151.513L680.675 155.929L682.3 157.095L685.468 152.679L683.843 151.513ZM681.986 155.645C678.892 153.868 675.198 152.368 670.916 151.135L670.363 153.057C674.529 154.256 678.067 155.7 680.989 157.379L681.986 155.645ZM670.92 151.136C666.663 149.892 662.184 149.272 657.488 149.272V151.272C662.007 151.272 666.296 151.868 670.359 153.056L670.92 151.136ZM657.488 149.272C653.373 149.272 650.064 149.921 647.668 151.33L648.683 153.054C650.639 151.903 653.538 151.272 657.488 151.272V149.272ZM647.677 151.325C645.299 152.694 644.008 154.697 644.008 157.28H646.008C646.008 155.511 646.828 154.122 648.674 153.059L647.677 151.325ZM644.008 157.28C644.008 159.318 645.006 161.055 646.783 162.477L648.032 160.915C646.609 159.777 646.008 158.57 646.008 157.28H644.008ZM646.802 162.492C648.572 163.837 651.782 165.092 656.266 166.309L656.789 164.379C652.313 163.164 649.443 161.987 648.013 160.9L646.802 162.492ZM656.274 166.311L669.81 169.863L670.317 167.929L656.781 164.377L656.274 166.311ZM718.697 208.544L718.342 209.479L718.342 209.479L718.697 208.544ZM702.281 196.928L701.486 197.536L701.495 197.547L702.281 196.928ZM702.377 159.872L701.591 159.253L701.591 159.253L702.377 159.872ZM718.697 148.256L719.054 149.19L719.059 149.188L718.697 148.256ZM764.969 148.256L764.603 149.187L764.614 149.191L764.969 148.256ZM781.289 159.872L780.498 160.485L780.503 160.491L781.289 159.872ZM781.289 196.928L780.499 196.314L780.498 196.315L781.289 196.928ZM764.969 208.544L764.614 207.609L764.611 207.61L764.969 208.544ZM747.881 203.168L747.018 202.662L747.006 202.682L746.996 202.702L747.881 203.168ZM750.089 193.28L751.085 193.361L751.086 193.357L750.089 193.28ZM749.897 162.272L748.898 162.322L748.899 162.348L748.902 162.374L749.897 162.272ZM747.785 153.536L746.9 154.002L746.915 154.031L746.932 154.059L747.785 153.536ZM735.881 153.536L736.751 154.029L736.756 154.02L735.881 153.536ZM733.769 162.272L732.772 162.19L732.771 162.195L733.769 162.272ZM733.673 193.28L734.671 193.222L734.669 193.194L734.666 193.165L733.673 193.28ZM735.785 203.168L734.901 203.636L734.905 203.644L734.909 203.652L735.785 203.168ZM741.929 211.48C733.455 211.48 725.833 210.184 719.051 207.609L718.342 209.479C725.384 212.152 733.25 213.48 741.929 213.48V211.48ZM719.051 207.609C712.286 205.041 706.971 201.268 703.066 196.309L701.495 197.547C705.654 202.828 711.283 206.799 718.342 209.479L719.051 207.609ZM703.075 196.32C699.255 191.33 697.329 185.341 697.329 178.304H695.329C695.329 185.731 697.37 192.158 701.486 197.536L703.075 196.32ZM697.329 178.304C697.329 171.337 699.283 165.417 703.162 160.491L701.591 159.253C697.406 164.567 695.329 170.935 695.329 178.304H697.329ZM703.162 160.491C707.069 155.53 712.353 151.758 719.054 149.19L718.339 147.322C711.344 150.002 705.748 153.974 701.591 159.253L703.162 160.491ZM719.059 149.188C725.839 146.551 733.457 145.224 741.929 145.224V143.224C733.248 143.224 725.378 144.585 718.334 147.324L719.059 149.188ZM741.929 145.224C750.335 145.224 757.888 146.551 764.603 149.187L765.334 147.325C758.353 144.585 750.546 143.224 741.929 143.224V145.224ZM764.614 149.191C771.378 151.759 776.658 155.53 780.498 160.485L782.079 159.259C777.983 153.974 772.383 150.001 765.323 147.321L764.614 149.191ZM780.503 160.491C784.382 165.417 786.337 171.337 786.337 178.304H788.337C788.337 170.935 786.259 164.567 782.074 159.253L780.503 160.491ZM786.337 178.304C786.337 185.337 784.381 191.324 780.499 196.314L782.078 197.542C786.26 192.164 788.337 185.735 788.337 178.304H786.337ZM780.498 196.315C776.658 201.27 771.378 205.041 764.614 207.609L765.323 209.479C772.383 206.799 777.983 202.826 782.079 197.541L780.498 196.315ZM764.611 207.61C757.894 210.184 750.338 211.48 741.929 211.48V213.48C750.543 213.48 758.347 212.152 765.326 209.478L764.611 207.61ZM741.929 207.816C743.428 207.816 744.783 207.475 745.955 206.757C747.126 206.039 748.057 204.98 748.765 203.634L746.996 202.702C746.424 203.788 745.723 204.553 744.91 205.051C744.098 205.549 743.117 205.816 741.929 205.816V207.816ZM748.743 203.674C749.955 201.606 750.7 198.108 751.085 193.361L749.092 193.199C748.709 197.924 747.982 201.018 747.018 202.662L748.743 203.674ZM751.086 193.357C751.281 190.816 751.377 185.786 751.377 178.304H749.377C749.377 185.798 749.28 190.752 749.091 193.203L751.086 193.357ZM751.377 178.304C751.377 170.752 751.217 165.362 750.891 162.17L748.902 162.374C749.216 165.454 749.377 170.752 749.377 178.304H751.377ZM750.895 162.222C750.7 158.311 749.98 155.205 748.637 153.013L746.932 154.059C748.021 155.835 748.709 158.553 748.898 162.322L750.895 162.222ZM748.669 153.07C747.963 151.728 747.043 150.67 745.889 149.951C744.733 149.231 743.4 148.888 741.929 148.888V150.888C743.081 150.888 744.036 151.153 744.832 151.649C745.63 152.146 746.326 152.912 746.9 154.002L748.669 153.07ZM741.929 148.888C740.429 148.888 739.069 149.229 737.884 149.944C736.701 150.657 735.747 151.711 735.005 153.052L736.756 154.02C737.358 152.929 738.084 152.159 738.917 151.656C739.748 151.155 740.74 150.888 741.929 150.888V148.888ZM735.01 153.043C733.815 155.152 733.096 158.237 732.772 162.19L734.765 162.354C735.081 158.499 735.77 155.76 736.751 154.029L735.01 153.043ZM732.771 162.195C732.512 165.564 732.385 170.941 732.385 178.304H734.385C734.385 170.947 734.513 165.636 734.766 162.349L732.771 162.195ZM732.385 178.304C732.385 186.594 732.479 191.659 732.679 193.395L734.666 193.165C734.482 191.573 734.385 186.654 734.385 178.304H732.385ZM732.674 193.338C732.933 197.801 733.648 201.269 734.901 203.636L736.668 202.7C735.617 200.715 734.924 197.591 734.671 193.222L732.674 193.338ZM734.909 203.652C735.653 204.997 736.617 206.051 737.818 206.764C739.019 207.477 740.401 207.816 741.929 207.816V205.816C740.704 205.816 739.686 205.547 738.839 205.044C737.992 204.541 737.26 203.771 736.66 202.684L734.909 203.652Z" fill="black" mask="url(#path-1-outside-1_2_4)"/>
</svg>
