<svg width="900" height="346" viewBox="0 0 900 346" fill="none" xmlns="http://www.w3.org/2000/svg">
<mask id="path-1-inside-1_3_8" fill="white">
<path d="M100.458 186.488C103.274 187.448 106.346 188.216 109.674 188.792C113.066 189.304 116.426 189.56 119.754 189.56C124.298 189.56 127.658 189.368 129.834 188.984C132.074 188.536 133.546 187.864 134.25 186.968C134.954 186.072 135.306 184.92 135.306 183.512C135.306 182.296 135.05 181.336 134.538 180.632C134.026 179.928 133.034 179.384 131.562 179C130.09 178.552 127.914 178.2 125.034 177.944L118.698 177.368C113.962 176.92 110.218 175.928 107.466 174.392C104.778 172.856 102.858 170.808 101.706 168.248C100.618 165.624 100.074 162.488 100.074 158.84C100.074 154.488 100.938 150.968 102.666 148.28C104.458 145.592 107.338 143.64 111.306 142.424C115.274 141.144 120.554 140.504 127.146 140.504C135.722 140.504 142.794 141.624 148.362 143.864L148.074 156.92L147.786 157.304C141.45 155.064 134.826 153.944 127.914 153.944C124.586 153.944 122.026 154.136 120.234 154.52C118.442 154.84 117.194 155.384 116.49 156.152C115.786 156.92 115.434 158.008 115.434 159.416C115.434 160.824 115.658 161.88 116.106 162.584C116.618 163.288 117.61 163.832 119.082 164.216C120.554 164.536 122.698 164.856 125.514 165.176L131.562 165.848C136.682 166.424 140.618 167.448 143.37 168.92C146.122 170.392 148.01 172.376 149.034 174.872C150.122 177.304 150.666 180.28 150.666 183.8C150.666 188.088 149.738 191.672 147.882 194.552C146.09 197.368 143.146 199.48 139.05 200.888C134.954 202.296 129.482 203 122.634 203C118.154 203 114.122 202.776 110.538 202.328C106.954 201.816 103.466 201.144 100.074 200.312V186.776L100.458 186.488ZM215.987 201.848V202.136H199.667C199.219 200.6 198.675 198.84 198.035 196.856C197.459 194.872 196.819 192.76 196.115 190.52H175.379C174.099 195 172.915 198.872 171.827 202.136H155.507V201.944L175.187 141.368H196.307L215.987 201.848ZM185.555 152.312C184.915 155.576 183.987 159.544 182.771 164.216C181.555 168.888 180.275 173.656 178.931 178.52H192.659C191.251 173.656 189.939 168.888 188.723 164.216C187.507 159.544 186.579 155.576 185.939 152.312H185.555ZM274.2 186.584C274.2 191.704 272.6 195.576 269.4 198.2C266.264 200.824 260.696 202.136 252.696 202.136H222.744V141.368H226.488H251.736C257.048 141.368 261.176 141.944 264.12 143.096C267.128 144.184 269.24 145.816 270.456 147.992C271.672 150.168 272.28 152.888 272.28 156.152C272.28 160.632 271.192 164.12 269.016 166.616C266.904 169.048 262.904 170.52 257.016 171.032V171.32C261.368 171.64 264.792 172.376 267.288 173.528C269.784 174.616 271.544 176.216 272.568 178.328C273.656 180.44 274.2 183.192 274.2 186.584ZM247.512 153.464H238.104V165.368H247.512C250.648 165.368 252.92 164.984 254.328 164.216C255.736 163.384 256.44 161.784 256.44 159.416C256.44 157.112 255.736 155.544 254.328 154.712C252.92 153.88 250.648 153.464 247.512 153.464ZM249.432 177.944H238.104V190.136H249.432C252.568 190.136 254.84 189.72 256.248 188.888C257.656 187.992 258.36 186.36 258.36 183.992C258.36 181.56 257.656 179.96 256.248 179.192C254.84 178.36 252.568 177.944 249.432 177.944ZM280.918 171.704C280.918 163.96 281.782 157.816 283.51 153.272C285.302 148.728 288.342 145.464 292.63 143.48C296.982 141.496 303.03 140.504 310.774 140.504C316.598 140.504 321.43 141.048 325.27 142.136C329.11 143.224 332.15 144.984 334.39 147.416C336.63 149.848 338.198 153.08 339.094 157.112C340.054 161.08 340.534 165.944 340.534 171.704C340.534 177.528 340.054 182.456 339.094 186.488C338.198 190.456 336.63 193.656 334.39 196.088C332.15 198.52 329.11 200.28 325.27 201.368C321.43 202.456 316.598 203 310.774 203C304.95 203 300.118 202.456 296.278 201.368C292.438 200.28 289.398 198.52 287.158 196.088C284.918 193.656 283.318 190.456 282.358 186.488C281.398 182.456 280.918 177.528 280.918 171.704ZM310.774 189.56C314.87 189.56 317.942 189.048 319.99 188.024C322.038 187 323.414 185.208 324.118 182.648C324.822 180.024 325.174 176.376 325.174 171.704C325.174 167.096 324.822 163.512 324.118 160.952C323.414 158.392 322.038 156.6 319.99 155.576C317.942 154.488 314.87 153.944 310.774 153.944C306.742 153.944 303.67 154.488 301.558 155.576C299.51 156.6 298.102 158.392 297.334 160.952C296.63 163.512 296.278 167.096 296.278 171.704C296.278 176.376 296.63 180.024 297.334 182.648C298.102 185.208 299.51 187 301.558 188.024C303.67 189.048 306.742 189.56 310.774 189.56ZM365.511 202.136H350.151V141.368H379.143C386.759 141.368 392.295 143.096 395.751 146.552C399.271 149.944 401.031 154.968 401.031 161.624C401.031 166.616 399.783 170.904 397.287 174.488C394.791 178.008 391.495 180.216 387.399 181.112L387.303 181.4C388.903 182.424 390.663 184.12 392.583 186.488C394.503 188.856 396.391 191.448 398.247 194.264C400.167 197.016 401.863 199.608 403.335 202.04V202.136H385.479L375.111 186.776C374.215 185.432 373.479 184.472 372.903 183.896C372.391 183.32 371.751 182.968 370.983 182.84C370.279 182.712 369.127 182.648 367.527 182.648H365.511V202.136ZM376.647 153.848H365.511V170.168H376.647C379.847 170.168 382.055 169.528 383.271 168.248C384.551 166.968 385.191 164.888 385.191 162.008C385.191 159.128 384.551 157.048 383.271 155.768C382.055 154.488 379.847 153.848 376.647 153.848ZM456.167 202.136H440.807V141.368H456.167V202.136ZM507.073 141.368H522.433V202.136H507.169L489.889 176.408C488.545 174.36 487.425 172.632 486.529 171.224C485.633 169.816 484.801 168.408 484.033 167C483.265 165.592 482.401 163.928 481.441 162.008L481.153 162.392C482.049 165.464 482.593 168.344 482.785 171.032C482.977 173.656 483.073 176.216 483.073 178.712V202.136H467.713V141.368H482.977L500.257 167.096C501.601 169.08 502.721 170.808 503.617 172.28C504.513 173.688 505.345 175.096 506.113 176.504C506.881 177.912 507.745 179.576 508.705 181.496L508.993 181.112C508.353 178.424 507.873 175.832 507.553 173.336C507.233 170.776 507.073 168.248 507.073 165.752V141.368ZM546.474 202.136V154.328H529.194V141.368H579.114V154.328H561.834V202.136H546.474ZM585.838 202.136V141.368H630.958V153.848H601.198V165.368H627.022V177.848H601.198V189.656H630.958V202.136H585.838ZM677.979 141.368H693.339V202.136H678.075L660.795 176.408C659.451 174.36 658.331 172.632 657.435 171.224C656.539 169.816 655.707 168.408 654.939 167C654.171 165.592 653.307 163.928 652.347 162.008L652.059 162.392C652.955 165.464 653.499 168.344 653.691 171.032C653.883 173.656 653.979 176.216 653.979 178.712V202.136H638.619V141.368H653.883L671.163 167.096C672.507 169.08 673.627 170.808 674.523 172.28C675.419 173.688 676.251 175.096 677.019 176.504C677.787 177.912 678.651 179.576 679.611 181.496L679.899 181.112C679.259 178.424 678.779 175.832 678.459 173.336C678.139 170.776 677.979 168.248 677.979 165.752V141.368ZM703.365 186.488C706.181 187.448 709.253 188.216 712.581 188.792C715.973 189.304 719.333 189.56 722.661 189.56C727.205 189.56 730.565 189.368 732.741 188.984C734.981 188.536 736.453 187.864 737.157 186.968C737.861 186.072 738.213 184.92 738.213 183.512C738.213 182.296 737.957 181.336 737.445 180.632C736.933 179.928 735.941 179.384 734.469 179C732.997 178.552 730.821 178.2 727.941 177.944L721.605 177.368C716.869 176.92 713.125 175.928 710.373 174.392C707.685 172.856 705.765 170.808 704.613 168.248C703.525 165.624 702.981 162.488 702.981 158.84C702.981 154.488 703.845 150.968 705.573 148.28C707.365 145.592 710.245 143.64 714.213 142.424C718.181 141.144 723.461 140.504 730.053 140.504C738.629 140.504 745.701 141.624 751.269 143.864L750.981 156.92L750.693 157.304C744.357 155.064 737.733 153.944 730.821 153.944C727.493 153.944 724.933 154.136 723.141 154.52C721.349 154.84 720.101 155.384 719.397 156.152C718.693 156.92 718.341 158.008 718.341 159.416C718.341 160.824 718.565 161.88 719.013 162.584C719.525 163.288 720.517 163.832 721.989 164.216C723.461 164.536 725.605 164.856 728.421 165.176L734.469 165.848C739.589 166.424 743.525 167.448 746.277 168.92C749.029 170.392 750.917 172.376 751.941 174.872C753.029 177.304 753.573 180.28 753.573 183.8C753.573 188.088 752.645 191.672 750.789 194.552C748.997 197.368 746.053 199.48 741.957 200.888C737.861 202.296 732.389 203 725.541 203C721.061 203 717.029 202.776 713.445 202.328C709.861 201.816 706.373 201.144 702.981 200.312V186.776L703.365 186.488ZM761.293 171.704C761.293 163.96 762.157 157.816 763.885 153.272C765.677 148.728 768.717 145.464 773.005 143.48C777.357 141.496 783.405 140.504 791.149 140.504C796.973 140.504 801.805 141.048 805.645 142.136C809.485 143.224 812.525 144.984 814.765 147.416C817.005 149.848 818.573 153.08 819.469 157.112C820.429 161.08 820.909 165.944 820.909 171.704C820.909 177.528 820.429 182.456 819.469 186.488C818.573 190.456 817.005 193.656 814.765 196.088C812.525 198.52 809.485 200.28 805.645 201.368C801.805 202.456 796.973 203 791.149 203C785.325 203 780.493 202.456 776.653 201.368C772.813 200.28 769.773 198.52 767.533 196.088C765.293 193.656 763.693 190.456 762.733 186.488C761.773 182.456 761.293 177.528 761.293 171.704ZM791.149 189.56C795.245 189.56 798.317 189.048 800.365 188.024C802.413 187 803.789 185.208 804.493 182.648C805.197 180.024 805.549 176.376 805.549 171.704C805.549 167.096 805.197 163.512 804.493 160.952C803.789 158.392 802.413 156.6 800.365 155.576C798.317 154.488 795.245 153.944 791.149 153.944C787.117 153.944 784.045 154.488 781.933 155.576C779.885 156.6 778.477 158.392 777.709 160.952C777.005 163.512 776.653 167.096 776.653 171.704C776.653 176.376 777.005 180.024 777.709 182.648C778.477 185.208 779.885 187 781.933 188.024C784.045 189.048 787.117 189.56 791.149 189.56Z"/>
</mask>
<path d="M100.458 186.488L101.426 183.648L99.9263 183.137L98.6584 184.088L100.458 186.488ZM109.674 188.792L109.163 191.748L109.195 191.754L109.227 191.758L109.674 188.792ZM129.834 188.984L130.356 191.938L130.389 191.932L130.423 191.926L129.834 188.984ZM134.25 186.968L136.609 188.821L136.609 188.821L134.25 186.968ZM134.538 180.632L132.112 182.397L132.112 182.397L134.538 180.632ZM131.562 179L130.689 181.87L130.747 181.888L130.805 181.903L131.562 179ZM125.034 177.944L124.763 180.932L124.769 180.932L125.034 177.944ZM118.698 177.368L118.416 180.355L118.427 180.356L118.698 177.368ZM107.466 174.392L105.978 176.997L105.991 177.004L106.004 177.012L107.466 174.392ZM101.706 168.248L98.9351 169.397L98.9523 169.438L98.9706 169.479L101.706 168.248ZM102.666 148.28L100.17 146.616L100.156 146.637L100.143 146.658L102.666 148.28ZM111.306 142.424L112.185 145.292L112.206 145.286L112.227 145.279L111.306 142.424ZM148.362 143.864L151.362 143.93L151.407 141.855L149.482 141.081L148.362 143.864ZM148.074 156.92L150.474 158.72L151.052 157.949L151.074 156.986L148.074 156.92ZM147.786 157.304L146.786 160.132L148.864 160.867L150.186 159.104L147.786 157.304ZM120.234 154.52L120.762 157.473L120.813 157.464L120.863 157.453L120.234 154.52ZM116.49 156.152L114.279 154.125L114.279 154.125L116.49 156.152ZM116.106 162.584L113.575 164.195L113.625 164.273L113.68 164.349L116.106 162.584ZM119.082 164.216L118.325 167.119L118.385 167.134L118.445 167.148L119.082 164.216ZM125.514 165.176L125.176 168.157L125.183 168.158L125.514 165.176ZM131.562 165.848L131.898 162.867L131.894 162.866L131.562 165.848ZM149.034 174.872L146.259 176.011L146.277 176.054L146.296 176.097L149.034 174.872ZM147.882 194.552L145.361 192.927L145.356 192.934L145.351 192.941L147.882 194.552ZM139.05 200.888L138.075 198.051L138.075 198.051L139.05 200.888ZM110.538 202.328L110.114 205.298L110.14 205.302L110.166 205.305L110.538 202.328ZM100.074 200.312H97.0744V202.665L99.3597 203.226L100.074 200.312ZM100.074 186.776L98.2744 184.376L97.0744 185.276V186.776H100.074ZM99.4904 189.328C102.474 190.345 105.7 191.149 109.163 191.748L110.186 185.836C106.993 185.283 104.075 184.551 101.426 183.648L99.4904 189.328ZM109.227 191.758C112.762 192.292 116.272 192.56 119.754 192.56V186.56C116.581 186.56 113.37 186.316 110.122 185.826L109.227 191.758ZM119.754 192.56C124.331 192.56 127.909 192.37 130.356 191.938L129.313 186.03C127.408 186.366 124.266 186.56 119.754 186.56V192.56ZM130.423 191.926C132.766 191.457 135.195 190.622 136.609 188.821L131.891 185.115C131.933 185.062 131.844 185.2 131.373 185.415C130.913 185.625 130.224 185.847 129.246 186.042L130.423 191.926ZM136.609 188.821C137.819 187.282 138.306 185.43 138.306 183.512H132.306C132.306 184.41 132.09 184.862 131.891 185.115L136.609 188.821ZM138.306 183.512C138.306 181.907 137.972 180.252 136.965 178.867L132.112 182.397C132.129 182.42 132.306 182.685 132.306 183.512H138.306ZM136.965 178.867C135.835 177.315 134.011 176.538 132.32 176.097L130.805 181.903C131.379 182.052 131.748 182.206 131.968 182.326C132.188 182.447 132.182 182.492 132.112 182.397L136.965 178.867ZM132.436 176.13C130.663 175.59 128.24 175.217 125.3 174.956L124.769 180.932C127.589 181.183 129.518 181.514 130.689 181.87L132.436 176.13ZM125.306 174.956L118.97 174.38L118.427 180.356L124.763 180.932L125.306 174.956ZM118.981 174.381C114.468 173.954 111.18 173.029 108.928 171.772L106.004 177.012C109.257 178.827 113.457 179.886 118.416 180.355L118.981 174.381ZM108.955 171.787C106.758 170.532 105.307 168.939 104.442 167.017L98.9706 169.479C100.41 172.677 102.799 175.18 105.978 176.997L108.955 171.787ZM104.478 167.099C103.577 164.927 103.074 162.201 103.074 158.84H97.0744C97.0744 162.775 97.6598 166.321 98.9351 169.397L104.478 167.099ZM103.074 158.84C103.074 154.861 103.867 151.961 105.19 149.902L100.143 146.658C98.0102 149.975 97.0744 154.115 97.0744 158.84H103.074ZM105.163 149.944C106.472 147.979 108.688 146.364 112.185 145.292L110.427 139.556C105.989 140.916 102.444 143.205 100.17 146.616L105.163 149.944ZM112.227 145.279C115.777 144.134 120.708 143.504 127.146 143.504V137.504C120.401 137.504 114.772 138.154 110.385 139.569L112.227 145.279ZM127.146 143.504C135.49 143.504 142.148 144.598 147.243 146.647L149.482 141.081C143.44 138.65 135.955 137.504 127.146 137.504V143.504ZM145.363 143.798L145.075 156.854L151.074 156.986L151.362 143.93L145.363 143.798ZM145.674 155.12L145.386 155.504L150.186 159.104L150.474 158.72L145.674 155.12ZM148.786 154.476C142.12 152.119 135.157 150.944 127.914 150.944V156.944C134.496 156.944 140.781 158.009 146.786 160.132L148.786 154.476ZM127.914 150.944C124.516 150.944 121.708 151.136 119.606 151.587L120.863 157.453C122.345 157.136 124.656 156.944 127.914 156.944V150.944ZM119.707 151.567C117.7 151.925 115.653 152.625 114.279 154.125L118.702 158.179C118.698 158.184 118.801 158.072 119.153 157.918C119.504 157.765 120.025 157.605 120.762 157.473L119.707 151.567ZM114.279 154.125C112.912 155.616 112.434 157.525 112.434 159.416H118.434C118.434 158.491 118.661 158.224 118.702 158.179L114.279 154.125ZM112.434 159.416C112.434 161.046 112.676 162.782 113.575 164.195L118.637 160.973C118.653 160.998 118.595 160.917 118.537 160.641C118.479 160.369 118.434 159.97 118.434 159.416H112.434ZM113.68 164.349C114.809 165.901 116.634 166.678 118.325 167.119L119.84 161.313C119.266 161.164 118.897 161.01 118.677 160.89C118.457 160.769 118.463 160.724 118.533 160.819L113.68 164.349ZM118.445 167.148C120.067 167.5 122.33 167.833 125.176 168.157L125.853 162.195C123.067 161.879 121.042 161.572 119.72 161.284L118.445 167.148ZM125.183 168.158L131.231 168.83L131.894 162.866L125.846 162.194L125.183 168.158ZM131.227 168.829C136.183 169.387 139.687 170.352 141.955 171.565L144.785 166.275C141.55 164.544 137.182 163.461 131.898 162.867L131.227 168.829ZM141.955 171.565C144.194 172.763 145.54 174.259 146.259 176.011L151.81 173.733C150.481 170.493 148.051 168.021 144.785 166.275L141.955 171.565ZM146.296 176.097C147.166 178.041 147.666 180.573 147.666 183.8H153.666C153.666 179.987 153.079 176.567 151.773 173.647L146.296 176.097ZM147.666 183.8C147.666 187.656 146.834 190.64 145.361 192.927L150.404 196.177C152.642 192.704 153.666 188.52 153.666 183.8H147.666ZM145.351 192.941C144.02 195.033 141.722 196.797 138.075 198.051L140.026 203.725C144.571 202.163 148.16 199.703 150.413 196.163L145.351 192.941ZM138.075 198.051C134.421 199.307 129.32 200 122.634 200V206C129.645 206 135.488 205.285 140.026 203.725L138.075 198.051ZM122.634 200C118.251 200 114.346 199.781 110.91 199.351L110.166 205.305C113.899 205.771 118.058 206 122.634 206V200ZM110.963 199.358C107.473 198.86 104.082 198.206 100.789 197.398L99.3597 203.226C102.851 204.082 106.436 204.772 110.114 205.298L110.963 199.358ZM103.074 200.312V186.776H97.0744V200.312H103.074ZM101.874 189.176L102.258 188.888L98.6584 184.088L98.2744 184.376L101.874 189.176ZM215.987 201.848H218.987V201.372L218.84 200.92L215.987 201.848ZM215.987 202.136V205.136H218.987V202.136H215.987ZM199.667 202.136L196.787 202.976L197.417 205.136H199.667V202.136ZM198.035 196.856L195.154 197.692L195.166 197.735L195.18 197.777L198.035 196.856ZM196.115 190.52L198.977 189.621L198.317 187.52H196.115V190.52ZM175.379 190.52V187.52H173.116L172.494 189.696L175.379 190.52ZM171.827 202.136V205.136H173.989L174.673 203.085L171.827 202.136ZM155.507 202.136H152.507V205.136H155.507V202.136ZM155.507 201.944L152.654 201.017L152.507 201.469V201.944H155.507ZM175.187 141.368V138.368H173.007L172.334 140.441L175.187 141.368ZM196.307 141.368L199.16 140.44L198.486 138.368H196.307V141.368ZM185.555 152.312V149.312H183.086L182.611 151.735L185.555 152.312ZM182.771 164.216L179.868 163.46L179.868 163.46L182.771 164.216ZM178.931 178.52L176.039 177.721L174.99 181.52H178.931V178.52ZM192.659 178.52V181.52H196.65L195.541 177.686L192.659 178.52ZM188.723 164.216L185.82 164.972L185.82 164.972L188.723 164.216ZM185.939 152.312L188.883 151.735L188.408 149.312H185.939V152.312ZM212.987 201.848V202.136H218.987V201.848H212.987ZM215.987 199.136H199.667V205.136H215.987V199.136ZM202.547 201.296C202.089 199.726 201.536 197.938 200.89 195.935L195.18 197.777C195.814 199.742 196.349 201.474 196.787 202.976L202.547 201.296ZM200.916 196.02C200.333 194.012 199.687 191.879 198.977 189.621L193.253 191.419C193.951 193.641 194.585 195.732 195.154 197.692L200.916 196.02ZM196.115 187.52H175.379V193.52H196.115V187.52ZM172.494 189.696C171.222 194.148 170.051 197.976 168.981 201.187L174.673 203.085C175.778 199.768 176.975 195.852 178.263 191.344L172.494 189.696ZM171.827 199.136H155.507V205.136H171.827V199.136ZM158.507 202.136V201.944H152.507V202.136H158.507ZM158.36 202.871L178.04 142.295L172.334 140.441L152.654 201.017L158.36 202.871ZM175.187 144.368H196.307V138.368H175.187V144.368ZM193.454 142.296L213.134 202.776L218.84 200.92L199.16 140.44L193.454 142.296ZM182.611 151.735C181.987 154.919 181.074 158.824 179.868 163.46L185.674 164.972C186.899 160.264 187.843 156.233 188.499 152.889L182.611 151.735ZM179.868 163.46C178.656 168.117 177.379 172.871 176.039 177.721L181.823 179.319C183.17 174.441 184.454 169.659 185.674 164.972L179.868 163.46ZM178.931 181.52H192.659V175.52H178.931V181.52ZM195.541 177.686C194.14 172.847 192.835 168.105 191.626 163.46L185.82 164.972C187.043 169.671 188.362 174.465 189.777 179.354L195.541 177.686ZM191.626 163.46C190.419 158.824 189.507 154.919 188.883 151.735L182.995 152.889C183.651 156.233 184.594 160.264 185.82 164.972L191.626 163.46ZM185.939 149.312H185.555V155.312H185.939V149.312ZM269.4 198.2L267.498 195.88L267.487 195.89L267.475 195.899L269.4 198.2ZM222.744 202.136H219.744V205.136H222.744V202.136ZM222.744 141.368V138.368H219.744V141.368H222.744ZM264.12 143.096L263.027 145.89L263.063 145.904L263.1 145.917L264.12 143.096ZM270.456 147.992L267.838 149.455L267.838 149.455L270.456 147.992ZM269.016 166.616L266.755 164.645L266.751 164.649L269.016 166.616ZM257.016 171.032L256.756 168.043L254.016 168.282V171.032H257.016ZM257.016 171.32H254.016V174.108L256.796 174.312L257.016 171.32ZM267.288 173.528L266.031 176.252L266.06 176.265L266.09 176.278L267.288 173.528ZM272.568 178.328L269.869 179.637L269.885 179.67L269.901 179.702L272.568 178.328ZM238.104 153.464V150.464H235.104V153.464H238.104ZM238.104 165.368H235.104V168.368H238.104V165.368ZM254.328 164.216L255.765 166.85L255.81 166.825L255.855 166.799L254.328 164.216ZM254.328 154.712L255.855 152.129L255.855 152.129L254.328 154.712ZM238.104 177.944V174.944H235.104V177.944H238.104ZM238.104 190.136H235.104V193.136H238.104V190.136ZM256.248 188.888L257.775 191.471L257.817 191.446L257.859 191.419L256.248 188.888ZM256.248 179.192L254.722 181.775L254.767 181.801L254.812 181.826L256.248 179.192ZM271.2 186.584C271.2 191.039 269.841 193.959 267.498 195.88L271.303 200.52C275.36 197.193 277.2 192.369 277.2 186.584H271.2ZM267.475 195.899C265.199 197.804 260.569 199.136 252.696 199.136V205.136C260.824 205.136 267.33 203.844 271.326 200.501L267.475 195.899ZM252.696 199.136H222.744V205.136H252.696V199.136ZM225.744 202.136V141.368H219.744V202.136H225.744ZM222.744 144.368H226.488V138.368H222.744V144.368ZM226.488 144.368H251.736V138.368H226.488V144.368ZM251.736 144.368C256.894 144.368 260.59 144.936 263.027 145.89L265.214 140.302C261.763 138.952 257.203 138.368 251.736 138.368V144.368ZM263.1 145.917C265.626 146.831 267.064 148.071 267.838 149.455L273.075 146.529C271.417 143.561 268.63 141.537 265.141 140.275L263.1 145.917ZM267.838 149.455C268.738 151.067 269.28 153.247 269.28 156.152H275.28C275.28 152.529 274.607 149.269 273.075 146.529L267.838 149.455ZM269.28 156.152C269.28 160.165 268.309 162.862 266.755 164.645L271.278 168.587C274.076 165.378 275.28 161.099 275.28 156.152H269.28ZM266.751 164.649C265.435 166.164 262.452 167.548 256.756 168.043L257.276 174.021C263.357 173.492 268.373 171.932 271.281 168.583L266.751 164.649ZM254.016 171.032V171.32H260.016V171.032H254.016ZM256.796 174.312C260.975 174.619 263.997 175.313 266.031 176.252L268.546 170.804C265.588 169.439 261.762 168.661 257.236 168.328L256.796 174.312ZM266.09 176.278C268.04 177.128 269.206 178.27 269.869 179.637L275.268 177.019C273.882 174.162 271.528 172.104 268.487 170.778L266.09 176.278ZM269.901 179.702C270.697 181.247 271.2 183.479 271.2 186.584H277.2C277.2 182.905 276.616 179.633 275.235 176.954L269.901 179.702ZM247.512 150.464H238.104V156.464H247.512V150.464ZM235.104 153.464V165.368H241.104V153.464H235.104ZM238.104 168.368H247.512V162.368H238.104V168.368ZM247.512 168.368C250.757 168.368 253.667 167.994 255.765 166.85L252.892 161.582C252.174 161.974 250.54 162.368 247.512 162.368V168.368ZM255.855 166.799C258.55 165.206 259.44 162.323 259.44 159.416H253.44C253.44 161.245 252.923 161.562 252.802 161.633L255.855 166.799ZM259.44 159.416C259.44 156.533 258.526 153.708 255.855 152.129L252.802 157.295C252.947 157.38 253.44 157.691 253.44 159.416H259.44ZM255.855 152.129C253.727 150.872 250.774 150.464 247.512 150.464V156.464C250.522 156.464 252.114 156.888 252.802 157.295L255.855 152.129ZM249.432 174.944H238.104V180.944H249.432V174.944ZM235.104 177.944V190.136H241.104V177.944H235.104ZM238.104 193.136H249.432V187.136H238.104V193.136ZM249.432 193.136C252.694 193.136 255.647 192.728 257.775 191.471L254.722 186.305C254.034 186.712 252.442 187.136 249.432 187.136V193.136ZM257.859 191.419C260.465 189.761 261.36 186.917 261.36 183.992H255.36C255.36 185.803 254.848 186.223 254.638 186.357L257.859 191.419ZM261.36 183.992C261.36 181.082 260.5 178.094 257.685 176.558L254.812 181.826C254.881 181.863 254.976 181.925 255.086 182.176C255.219 182.477 255.36 183.04 255.36 183.992H261.36ZM257.775 176.609C255.647 175.352 252.694 174.944 249.432 174.944V180.944C252.442 180.944 254.034 181.368 254.722 181.775L257.775 176.609ZM283.51 153.272L280.719 152.171L280.713 152.188L280.706 152.206L283.51 153.272ZM292.63 143.48L291.386 140.75L291.378 140.754L291.37 140.757L292.63 143.48ZM325.27 142.136L324.452 145.022L324.452 145.022L325.27 142.136ZM334.39 147.416L332.183 149.448L332.183 149.448L334.39 147.416ZM339.094 157.112L336.166 157.763L336.172 157.79L336.178 157.817L339.094 157.112ZM339.094 186.488L336.176 185.793L336.172 185.81L336.168 185.827L339.094 186.488ZM334.39 196.088L332.183 194.056L332.183 194.056L334.39 196.088ZM296.278 201.368L295.46 204.254L295.46 204.254L296.278 201.368ZM287.158 196.088L289.365 194.056L289.365 194.056L287.158 196.088ZM282.358 186.488L279.44 187.183L279.442 187.193L282.358 186.488ZM324.118 182.648L327.011 183.443L327.013 183.434L327.016 183.425L324.118 182.648ZM324.118 160.952L321.226 161.747L321.226 161.747L324.118 160.952ZM319.99 155.576L318.583 158.225L318.615 158.243L318.648 158.259L319.99 155.576ZM301.558 155.576L302.9 158.259L302.916 158.251L302.932 158.243L301.558 155.576ZM297.334 160.952L294.461 160.09L294.451 160.123L294.442 160.157L297.334 160.952ZM297.334 182.648L294.437 183.425L294.448 183.468L294.461 183.51L297.334 182.648ZM301.558 188.024L300.216 190.707L300.233 190.715L300.249 190.723L301.558 188.024ZM283.918 171.704C283.918 164.134 284.769 158.4 286.314 154.338L280.706 152.206C278.795 157.232 277.918 163.786 277.918 171.704H283.918ZM286.301 154.373C287.821 150.519 290.328 147.851 293.89 146.203L291.37 140.757C286.357 143.077 282.784 146.937 280.719 152.171L286.301 154.373ZM293.875 146.21C297.667 144.481 303.225 143.504 310.774 143.504V137.504C302.835 137.504 296.297 138.511 291.386 140.75L293.875 146.21ZM310.774 143.504C316.436 143.504 320.97 144.036 324.452 145.022L326.088 139.25C321.891 138.06 316.76 137.504 310.774 137.504V143.504ZM324.452 145.022C327.87 145.991 330.39 147.501 332.183 149.448L336.597 145.384C333.91 142.467 330.35 140.457 326.088 139.25L324.452 145.022ZM332.183 149.448C333.986 151.406 335.356 154.12 336.166 157.763L342.023 156.461C341.04 152.04 339.274 148.29 336.597 145.384L332.183 149.448ZM336.178 157.817C337.065 161.482 337.534 166.093 337.534 171.704H343.534C343.534 165.795 343.043 160.678 342.01 156.407L336.178 157.817ZM337.534 171.704C337.534 177.38 337.065 182.06 336.176 185.793L342.013 187.183C343.044 182.852 343.534 177.676 343.534 171.704H337.534ZM336.168 185.827C335.361 189.4 333.994 192.09 332.183 194.056L336.597 198.12C339.266 195.222 341.035 191.512 342.02 187.149L336.168 185.827ZM332.183 194.056C330.39 196.003 327.87 197.513 324.452 198.482L326.088 204.254C330.35 203.047 333.91 201.037 336.597 198.12L332.183 194.056ZM324.452 198.482C320.97 199.468 316.436 200 310.774 200V206C316.76 206 321.891 205.444 326.088 204.254L324.452 198.482ZM310.774 200C305.112 200 300.579 199.468 297.096 198.482L295.46 204.254C299.658 205.444 304.788 206 310.774 206V200ZM297.096 198.482C293.678 197.513 291.158 196.003 289.365 194.056L284.951 198.12C287.638 201.037 291.198 203.047 295.46 204.254L297.096 198.482ZM289.365 194.056C287.542 192.077 286.142 189.37 285.274 185.783L279.442 187.193C280.494 191.542 282.294 195.235 284.951 198.12L289.365 194.056ZM285.277 185.793C284.388 182.06 283.918 177.38 283.918 171.704H277.918C277.918 177.676 278.409 182.852 279.44 187.183L285.277 185.793ZM310.774 192.56C315.023 192.56 318.657 192.045 321.332 190.707L318.648 185.341C317.227 186.051 314.717 186.56 310.774 186.56V192.56ZM321.332 190.707C324.265 189.24 326.121 186.68 327.011 183.443L321.226 181.853C320.708 183.736 319.811 184.76 318.648 185.341L321.332 190.707ZM327.016 183.425C327.819 180.43 328.174 176.479 328.174 171.704H322.174C322.174 176.273 321.825 179.618 321.221 181.871L327.016 183.425ZM328.174 171.704C328.174 166.993 327.82 163.098 327.011 160.157L321.226 161.747C321.825 163.926 322.174 167.199 322.174 171.704H328.174ZM327.011 160.157C326.121 156.92 324.265 154.36 321.332 152.893L318.648 158.259C319.811 158.84 320.708 159.864 321.226 161.747L327.011 160.157ZM321.398 152.927C318.7 151.494 315.038 150.944 310.774 150.944V156.944C314.702 156.944 317.184 157.482 318.583 158.225L321.398 152.927ZM310.774 150.944C306.555 150.944 302.92 151.5 300.184 152.909L302.932 158.243C304.42 157.476 306.929 156.944 310.774 156.944V150.944ZM300.216 152.893C297.304 154.349 295.423 156.882 294.461 160.09L300.208 161.814C300.781 159.902 301.717 158.851 302.9 158.259L300.216 152.893ZM294.442 160.157C293.633 163.098 293.278 166.993 293.278 171.704H299.278C299.278 167.199 299.628 163.926 300.227 161.747L294.442 160.157ZM293.278 171.704C293.278 176.479 293.633 180.43 294.437 183.425L300.232 181.871C299.627 179.618 299.278 176.273 299.278 171.704H293.278ZM294.461 183.51C295.423 186.718 297.304 189.251 300.216 190.707L302.9 185.341C301.717 184.749 300.781 183.698 300.208 181.786L294.461 183.51ZM300.249 190.723C302.963 192.039 306.57 192.56 310.774 192.56V186.56C306.914 186.56 304.377 186.057 302.867 185.325L300.249 190.723ZM365.511 202.136V205.136H368.511V202.136H365.511ZM350.151 202.136H347.151V205.136H350.151V202.136ZM350.151 141.368V138.368H347.151V141.368H350.151ZM395.751 146.552L393.629 148.673L393.649 148.693L393.669 148.712L395.751 146.552ZM397.287 174.488L399.734 176.223L399.741 176.213L399.748 176.202L397.287 174.488ZM387.399 181.112L386.758 178.181L385.092 178.546L384.553 180.163L387.399 181.112ZM387.303 181.4L384.457 180.451L383.718 182.668L385.685 183.927L387.303 181.4ZM392.583 186.488L394.913 184.599L394.913 184.599L392.583 186.488ZM398.247 194.264L395.742 195.915L395.764 195.948L395.786 195.981L398.247 194.264ZM403.335 202.04H406.335V201.203L405.901 200.487L403.335 202.04ZM403.335 202.136V205.136H406.335V202.136H403.335ZM385.479 202.136L382.992 203.814L383.884 205.136H385.479V202.136ZM375.111 186.776L372.614 188.44L372.619 188.447L372.624 188.454L375.111 186.776ZM372.903 183.896L370.66 185.889L370.719 185.955L370.781 186.017L372.903 183.896ZM370.983 182.84L370.446 185.792L370.468 185.796L370.489 185.799L370.983 182.84ZM365.511 182.648V179.648H362.511V182.648H365.511ZM365.511 153.848V150.848H362.511V153.848H365.511ZM365.511 170.168H362.511V173.168H365.511V170.168ZM383.271 168.248L381.149 166.127L381.122 166.154L381.096 166.182L383.271 168.248ZM383.271 155.768L381.096 157.834L381.122 157.862L381.149 157.889L383.271 155.768ZM365.511 199.136H350.151V205.136H365.511V199.136ZM353.151 202.136V141.368H347.151V202.136H353.151ZM350.151 144.368H379.143V138.368H350.151V144.368ZM379.143 144.368C386.395 144.368 390.982 146.026 393.629 148.673L397.872 144.431C393.608 140.166 387.122 138.368 379.143 138.368V144.368ZM393.669 148.712C396.414 151.358 398.031 155.479 398.031 161.624H404.031C404.031 154.457 402.127 148.53 397.832 144.392L393.669 148.712ZM398.031 161.624C398.031 166.094 396.922 169.762 394.825 172.774L399.748 176.202C402.643 172.046 404.031 167.138 404.031 161.624H398.031ZM394.839 172.753C392.762 175.683 390.101 177.45 386.758 178.181L388.04 184.043C392.889 182.982 396.82 180.333 399.734 176.223L394.839 172.753ZM384.553 180.163L384.457 180.451L390.149 182.349L390.245 182.061L384.553 180.163ZM385.685 183.927C386.902 184.706 388.428 186.127 390.252 188.377L394.913 184.599C392.898 182.113 390.903 180.142 388.92 178.873L385.685 183.927ZM390.252 188.377C392.104 190.661 393.934 193.173 395.742 195.915L400.752 192.613C398.847 189.723 396.901 187.051 394.913 184.599L390.252 188.377ZM395.786 195.981C397.676 198.689 399.335 201.226 400.768 203.593L405.901 200.487C404.39 197.99 402.658 195.343 400.707 192.547L395.786 195.981ZM400.335 202.04V202.136H406.335V202.04H400.335ZM403.335 199.136H385.479V205.136H403.335V199.136ZM387.965 200.458L377.597 185.098L372.624 188.454L382.992 203.814L387.965 200.458ZM377.607 185.112C376.686 183.731 375.817 182.568 375.024 181.775L370.781 186.017C371.14 186.376 371.743 187.133 372.614 188.44L377.607 185.112ZM375.145 181.903C374.172 180.809 372.913 180.12 371.476 179.881L370.489 185.799C370.562 185.811 370.589 185.826 370.593 185.829C370.597 185.831 370.619 185.843 370.66 185.889L375.145 181.903ZM371.519 179.888C370.528 179.708 369.142 179.648 367.527 179.648V185.648C369.111 185.648 370.029 185.716 370.446 185.792L371.519 179.888ZM367.527 179.648H365.511V185.648H367.527V179.648ZM362.511 182.648V202.136H368.511V182.648H362.511ZM376.647 150.848H365.511V156.848H376.647V150.848ZM362.511 153.848V170.168H368.511V153.848H362.511ZM365.511 173.168H376.647V167.168H365.511V173.168ZM376.647 173.168C380.056 173.168 383.347 172.523 385.446 170.314L381.096 166.182C380.762 166.533 379.637 167.168 376.647 167.168V173.168ZM385.392 170.369C387.49 168.272 388.191 165.23 388.191 162.008H382.191C382.191 164.546 381.612 165.664 381.149 166.127L385.392 170.369ZM388.191 162.008C388.191 158.786 387.49 155.744 385.392 153.647L381.149 157.889C381.612 158.352 382.191 159.47 382.191 162.008H388.191ZM385.446 153.702C383.347 151.493 380.056 150.848 376.647 150.848V156.848C379.637 156.848 380.762 157.483 381.096 157.834L385.446 153.702ZM456.167 202.136V205.136H459.167V202.136H456.167ZM440.807 202.136H437.807V205.136H440.807V202.136ZM440.807 141.368V138.368H437.807V141.368H440.807ZM456.167 141.368H459.167V138.368H456.167V141.368ZM456.167 199.136H440.807V205.136H456.167V199.136ZM443.807 202.136V141.368H437.807V202.136H443.807ZM440.807 144.368H456.167V138.368H440.807V144.368ZM453.167 141.368V202.136H459.167V141.368H453.167ZM507.073 141.368V138.368H504.073V141.368H507.073ZM522.433 141.368H525.433V138.368H522.433V141.368ZM522.433 202.136V205.136H525.433V202.136H522.433ZM507.169 202.136L504.679 203.809L505.57 205.136H507.169V202.136ZM489.889 176.408L487.381 178.054L487.39 178.067L487.399 178.081L489.889 176.408ZM486.529 171.224L489.06 169.613L489.06 169.613L486.529 171.224ZM484.033 167L486.667 165.563L486.667 165.563L484.033 167ZM481.441 162.008L484.124 160.666L481.954 156.325L479.041 160.208L481.441 162.008ZM481.153 162.392L478.753 160.592L477.853 161.792L478.273 163.232L481.153 162.392ZM482.785 171.032L479.793 171.246L479.793 171.251L482.785 171.032ZM483.073 202.136V205.136H486.073V202.136H483.073ZM467.713 202.136H464.713V205.136H467.713V202.136ZM467.713 141.368V138.368H464.713V141.368H467.713ZM482.977 141.368L485.468 139.695L484.576 138.368H482.977V141.368ZM500.257 167.096L497.767 168.769L497.773 168.779L500.257 167.096ZM503.617 172.28L501.055 173.84L501.07 173.865L501.086 173.891L503.617 172.28ZM506.113 176.504L503.479 177.941L503.479 177.941L506.113 176.504ZM508.705 181.496L506.022 182.838L508.193 187.179L511.105 183.296L508.705 181.496ZM508.993 181.112L511.393 182.912L512.238 181.786L511.912 180.417L508.993 181.112ZM507.553 173.336L504.576 173.708L504.577 173.717L507.553 173.336ZM507.073 144.368H522.433V138.368H507.073V144.368ZM519.433 141.368V202.136H525.433V141.368H519.433ZM522.433 199.136H507.169V205.136H522.433V199.136ZM509.66 200.463L492.38 174.735L487.399 178.081L504.679 203.809L509.66 200.463ZM492.397 174.762C491.058 172.721 489.946 171.005 489.06 169.613L483.998 172.835C484.904 174.259 486.032 175.999 487.381 178.054L492.397 174.762ZM489.06 169.613C488.199 168.26 487.401 166.91 486.667 165.563L481.399 168.437C482.201 169.906 483.067 171.372 483.998 172.835L489.06 169.613ZM486.667 165.563C485.92 164.195 485.073 162.564 484.124 160.666L478.758 163.35C479.729 165.292 480.61 166.989 481.399 168.437L486.667 165.563ZM479.041 160.208L478.753 160.592L483.553 164.192L483.841 163.808L479.041 160.208ZM478.273 163.232C479.12 166.137 479.618 168.805 479.793 171.246L485.778 170.818C485.568 167.883 484.978 164.791 484.033 161.552L478.273 163.232ZM479.793 171.251C479.98 173.806 480.073 176.293 480.073 178.712H486.073C486.073 176.139 485.974 173.506 485.777 170.813L479.793 171.251ZM480.073 178.712V202.136H486.073V178.712H480.073ZM483.073 199.136H467.713V205.136H483.073V199.136ZM470.713 202.136V141.368H464.713V202.136H470.713ZM467.713 144.368H482.977V138.368H467.713V144.368ZM480.487 143.041L497.767 168.769L502.748 165.423L485.468 139.695L480.487 143.041ZM497.773 168.779C499.1 170.737 500.191 172.422 501.055 173.84L506.18 170.72C505.251 169.194 504.103 167.423 502.741 165.413L497.773 168.779ZM501.086 173.891C501.947 175.244 502.745 176.594 503.479 177.941L508.747 175.067C507.945 173.598 507.079 172.132 506.148 170.669L501.086 173.891ZM503.479 177.941C504.226 179.309 505.073 180.94 506.022 182.838L511.388 180.154C510.417 178.212 509.537 176.515 508.747 175.067L503.479 177.941ZM511.105 183.296L511.393 182.912L506.593 179.312L506.305 179.696L511.105 183.296ZM511.912 180.417C511.294 177.823 510.834 175.335 510.529 172.955L504.577 173.717C504.912 176.329 505.412 179.025 506.075 181.807L511.912 180.417ZM510.53 172.964C510.225 170.523 510.073 168.12 510.073 165.752H504.073C504.073 168.376 504.241 171.029 504.576 173.708L510.53 172.964ZM510.073 165.752V141.368H504.073V165.752H510.073ZM546.474 202.136H543.474V205.136H546.474V202.136ZM546.474 154.328H549.474V151.328H546.474V154.328ZM529.194 154.328H526.194V157.328H529.194V154.328ZM529.194 141.368V138.368H526.194V141.368H529.194ZM579.114 141.368H582.114V138.368H579.114V141.368ZM579.114 154.328V157.328H582.114V154.328H579.114ZM561.834 154.328V151.328H558.834V154.328H561.834ZM561.834 202.136V205.136H564.834V202.136H561.834ZM549.474 202.136V154.328H543.474V202.136H549.474ZM546.474 151.328H529.194V157.328H546.474V151.328ZM532.194 154.328V141.368H526.194V154.328H532.194ZM529.194 144.368H579.114V138.368H529.194V144.368ZM576.114 141.368V154.328H582.114V141.368H576.114ZM579.114 151.328H561.834V157.328H579.114V151.328ZM558.834 154.328V202.136H564.834V154.328H558.834ZM561.834 199.136H546.474V205.136H561.834V199.136ZM585.838 202.136H582.838V205.136H585.838V202.136ZM585.838 141.368V138.368H582.838V141.368H585.838ZM630.958 141.368H633.958V138.368H630.958V141.368ZM630.958 153.848V156.848H633.958V153.848H630.958ZM601.198 153.848V150.848H598.198V153.848H601.198ZM601.198 165.368H598.198V168.368H601.198V165.368ZM627.022 165.368H630.022V162.368H627.022V165.368ZM627.022 177.848V180.848H630.022V177.848H627.022ZM601.198 177.848V174.848H598.198V177.848H601.198ZM601.198 189.656H598.198V192.656H601.198V189.656ZM630.958 189.656H633.958V186.656H630.958V189.656ZM630.958 202.136V205.136H633.958V202.136H630.958ZM588.838 202.136V141.368H582.838V202.136H588.838ZM585.838 144.368H630.958V138.368H585.838V144.368ZM627.958 141.368V153.848H633.958V141.368H627.958ZM630.958 150.848H601.198V156.848H630.958V150.848ZM598.198 153.848V165.368H604.198V153.848H598.198ZM601.198 168.368H627.022V162.368H601.198V168.368ZM624.022 165.368V177.848H630.022V165.368H624.022ZM627.022 174.848H601.198V180.848H627.022V174.848ZM598.198 177.848V189.656H604.198V177.848H598.198ZM601.198 192.656H630.958V186.656H601.198V192.656ZM627.958 189.656V202.136H633.958V189.656H627.958ZM630.958 199.136H585.838V205.136H630.958V199.136ZM677.979 141.368V138.368H674.979V141.368H677.979ZM693.339 141.368H696.339V138.368H693.339V141.368ZM693.339 202.136V205.136H696.339V202.136H693.339ZM678.075 202.136L675.585 203.809L676.476 205.136H678.075V202.136ZM660.795 176.408L658.287 178.054L658.296 178.067L658.305 178.081L660.795 176.408ZM657.435 171.224L659.966 169.613L659.966 169.613L657.435 171.224ZM654.939 167L657.573 165.563L657.573 165.563L654.939 167ZM652.347 162.008L655.031 160.666L652.86 156.325L649.947 160.208L652.347 162.008ZM652.059 162.392L649.659 160.592L648.759 161.792L649.179 163.232L652.059 162.392ZM653.691 171.032L650.699 171.246L650.699 171.251L653.691 171.032ZM653.979 202.136V205.136H656.979V202.136H653.979ZM638.619 202.136H635.619V205.136H638.619V202.136ZM638.619 141.368V138.368H635.619V141.368H638.619ZM653.883 141.368L656.374 139.695L655.482 138.368H653.883V141.368ZM671.163 167.096L668.673 168.769L668.68 168.779L671.163 167.096ZM674.523 172.28L671.961 173.84L671.976 173.865L671.992 173.891L674.523 172.28ZM677.019 176.504L674.386 177.941L674.386 177.941L677.019 176.504ZM679.611 181.496L676.928 182.838L679.099 187.179L682.011 183.296L679.611 181.496ZM679.899 181.112L682.299 182.912L683.144 181.786L682.818 180.417L679.899 181.112ZM678.459 173.336L675.483 173.708L675.484 173.717L678.459 173.336ZM677.979 144.368H693.339V138.368H677.979V144.368ZM690.339 141.368V202.136H696.339V141.368H690.339ZM693.339 199.136H678.075V205.136H693.339V199.136ZM680.566 200.463L663.286 174.735L658.305 178.081L675.585 203.809L680.566 200.463ZM663.304 174.762C661.964 172.721 660.852 171.005 659.966 169.613L654.904 172.835C655.811 174.259 656.939 175.999 658.287 178.054L663.304 174.762ZM659.966 169.613C659.105 168.26 658.308 166.91 657.573 165.563L652.306 168.437C653.107 169.906 653.974 171.372 654.904 172.835L659.966 169.613ZM657.573 165.563C656.827 164.195 655.98 162.564 655.031 160.666L649.664 163.35C650.635 165.292 651.516 166.989 652.306 168.437L657.573 165.563ZM649.947 160.208L649.659 160.592L654.459 164.192L654.747 163.808L649.947 160.208ZM649.179 163.232C650.027 166.137 650.525 168.805 650.699 171.246L656.684 170.818C656.474 167.883 655.884 164.791 654.939 161.552L649.179 163.232ZM650.699 171.251C650.886 173.806 650.979 176.293 650.979 178.712H656.979C656.979 176.139 656.88 173.506 656.683 170.813L650.699 171.251ZM650.979 178.712V202.136H656.979V178.712H650.979ZM653.979 199.136H638.619V205.136H653.979V199.136ZM641.619 202.136V141.368H635.619V202.136H641.619ZM638.619 144.368H653.883V138.368H638.619V144.368ZM651.393 143.041L668.673 168.769L673.654 165.423L656.374 139.695L651.393 143.041ZM668.68 168.779C670.006 170.737 671.098 172.422 671.961 173.84L677.086 170.72C676.157 169.194 675.009 167.423 673.647 165.413L668.68 168.779ZM671.992 173.891C672.854 175.244 673.651 176.594 674.386 177.941L679.653 175.067C678.852 173.598 677.985 172.132 677.054 170.669L671.992 173.891ZM674.386 177.941C675.132 179.309 675.979 180.94 676.928 182.838L682.295 180.154C681.324 178.212 680.443 176.515 679.653 175.067L674.386 177.941ZM682.011 183.296L682.299 182.912L677.499 179.312L677.211 179.696L682.011 183.296ZM682.818 180.417C682.2 177.823 681.74 175.335 681.435 172.955L675.484 173.717C675.818 176.329 676.319 179.025 676.981 181.807L682.818 180.417ZM681.436 172.964C681.131 170.523 680.979 168.12 680.979 165.752H674.979C674.979 168.376 675.148 171.029 675.483 173.708L681.436 172.964ZM680.979 165.752V141.368H674.979V165.752H680.979ZM703.365 186.488L704.333 183.648L702.833 183.137L701.565 184.088L703.365 186.488ZM712.581 188.792L712.069 191.748L712.101 191.754L712.133 191.758L712.581 188.792ZM732.741 188.984L733.262 191.938L733.296 191.932L733.329 191.926L732.741 188.984ZM737.157 186.968L739.516 188.821L739.516 188.821L737.157 186.968ZM737.445 180.632L735.018 182.397L735.018 182.397L737.445 180.632ZM734.469 179L733.595 181.87L733.653 181.888L733.711 181.903L734.469 179ZM727.941 177.944L727.669 180.932L727.675 180.932L727.941 177.944ZM721.605 177.368L721.322 180.355L721.333 180.356L721.605 177.368ZM710.373 174.392L708.884 176.997L708.897 177.004L708.911 177.012L710.373 174.392ZM704.613 168.248L701.841 169.397L701.859 169.438L701.877 169.479L704.613 168.248ZM705.573 148.28L703.076 146.616L703.063 146.637L703.049 146.658L705.573 148.28ZM714.213 142.424L715.092 145.292L715.113 145.286L715.134 145.279L714.213 142.424ZM751.269 143.864L754.268 143.93L754.314 141.855L752.388 141.081L751.269 143.864ZM750.981 156.92L753.381 158.72L753.959 157.949L753.98 156.986L750.981 156.92ZM750.693 157.304L749.693 160.132L751.77 160.867L753.093 159.104L750.693 157.304ZM723.141 154.52L723.668 157.473L723.719 157.464L723.769 157.453L723.141 154.52ZM719.397 156.152L717.185 154.125L717.185 154.125L719.397 156.152ZM719.013 162.584L716.482 164.195L716.532 164.273L716.586 164.349L719.013 162.584ZM721.989 164.216L721.231 167.119L721.291 167.134L721.351 167.148L721.989 164.216ZM728.421 165.176L728.082 168.157L728.089 168.158L728.421 165.176ZM734.469 165.848L734.804 162.867L734.8 162.866L734.469 165.848ZM751.941 174.872L749.165 176.011L749.183 176.054L749.202 176.097L751.941 174.872ZM750.789 194.552L748.267 192.927L748.262 192.934L748.258 192.941L750.789 194.552ZM741.957 200.888L740.981 198.051L740.981 198.051L741.957 200.888ZM713.445 202.328L713.02 205.298L713.046 205.302L713.073 205.305L713.445 202.328ZM702.981 200.312H699.981V202.665L702.266 203.226L702.981 200.312ZM702.981 186.776L701.181 184.376L699.981 185.276V186.776H702.981ZM702.397 189.328C705.38 190.345 708.606 191.149 712.069 191.748L713.092 185.836C709.899 185.283 706.981 184.551 704.333 183.648L702.397 189.328ZM712.133 191.758C715.669 192.292 719.178 192.56 722.661 192.56V186.56C719.487 186.56 716.277 186.316 713.028 185.826L712.133 191.758ZM722.661 192.56C727.237 192.56 730.815 192.37 733.262 191.938L732.219 186.03C730.314 186.366 727.172 186.56 722.661 186.56V192.56ZM733.329 191.926C735.672 191.457 738.101 190.622 739.516 188.821L734.798 185.115C734.839 185.062 734.751 185.2 734.279 185.415C733.819 185.625 733.13 185.847 732.152 186.042L733.329 191.926ZM739.516 188.821C740.725 187.282 741.213 185.43 741.213 183.512H735.213C735.213 184.41 734.996 184.862 734.798 185.115L739.516 188.821ZM741.213 183.512C741.213 181.907 740.878 180.252 739.871 178.867L735.018 182.397C735.035 182.42 735.213 182.685 735.213 183.512H741.213ZM739.871 178.867C738.742 177.315 736.917 176.538 735.226 176.097L733.711 181.903C734.285 182.052 734.654 182.206 734.874 182.326C735.094 182.447 735.088 182.492 735.018 182.397L739.871 178.867ZM735.342 176.13C733.569 175.59 731.146 175.217 728.206 174.956L727.675 180.932C730.495 181.183 732.424 181.514 733.595 181.87L735.342 176.13ZM728.212 174.956L721.876 174.38L721.333 180.356L727.669 180.932L728.212 174.956ZM721.887 174.381C717.374 173.954 714.086 173.029 711.835 171.772L708.911 177.012C712.163 178.827 716.363 179.886 721.322 180.355L721.887 174.381ZM711.861 171.787C709.664 170.532 708.213 168.939 707.348 167.017L701.877 169.479C703.316 172.677 705.705 175.18 708.884 176.997L711.861 171.787ZM707.384 167.099C706.483 164.927 705.981 162.201 705.981 158.84H699.981C699.981 162.775 700.566 166.321 701.841 169.397L707.384 167.099ZM705.981 158.84C705.981 154.861 706.773 151.961 708.096 149.902L703.049 146.658C700.916 149.975 699.981 154.115 699.981 158.84H705.981ZM708.069 149.944C709.379 147.979 711.594 146.364 715.092 145.292L713.334 139.556C708.895 140.916 705.351 143.205 703.076 146.616L708.069 149.944ZM715.134 145.279C718.683 144.134 723.614 143.504 730.053 143.504V137.504C723.307 137.504 717.678 138.154 713.292 139.569L715.134 145.279ZM730.053 143.504C738.396 143.504 745.055 144.598 750.149 146.647L752.388 141.081C746.347 138.65 738.861 137.504 730.053 137.504V143.504ZM748.269 143.798L747.981 156.854L753.98 156.986L754.268 143.93L748.269 143.798ZM748.581 155.12L748.293 155.504L753.093 159.104L753.381 158.72L748.581 155.12ZM751.693 154.476C745.026 152.119 738.063 150.944 730.821 150.944V156.944C737.402 156.944 743.687 158.009 749.693 160.132L751.693 154.476ZM730.821 150.944C727.423 150.944 724.614 151.136 722.512 151.587L723.769 157.453C725.251 157.136 727.563 156.944 730.821 156.944V150.944ZM722.613 151.567C720.606 151.925 718.56 152.625 717.185 154.125L721.608 158.179C721.604 158.184 721.707 158.072 722.059 157.918C722.41 157.765 722.931 157.605 723.668 157.473L722.613 151.567ZM717.185 154.125C715.818 155.616 715.341 157.525 715.341 159.416H721.341C721.341 158.491 721.567 158.224 721.608 158.179L717.185 154.125ZM715.341 159.416C715.341 161.046 715.582 162.782 716.482 164.195L721.544 160.973C721.559 160.998 721.502 160.917 721.443 160.641C721.386 160.369 721.341 159.97 721.341 159.416H715.341ZM716.586 164.349C717.716 165.901 719.54 166.678 721.231 167.119L722.746 161.313C722.172 161.164 721.803 161.01 721.583 160.89C721.363 160.769 721.369 160.724 721.439 160.819L716.586 164.349ZM721.351 167.148C722.973 167.5 725.236 167.833 728.082 168.157L728.759 162.195C725.973 161.879 723.948 161.572 722.626 161.284L721.351 167.148ZM728.089 168.158L734.137 168.83L734.8 162.866L728.752 162.194L728.089 168.158ZM734.133 168.829C739.089 169.387 742.593 170.352 744.862 171.565L747.692 166.275C744.456 164.544 740.088 163.461 734.804 162.867L734.133 168.829ZM744.862 171.565C747.1 172.763 748.446 174.259 749.165 176.011L754.716 173.733C753.387 170.493 750.957 168.021 747.692 166.275L744.862 171.565ZM749.202 176.097C750.072 178.041 750.573 180.573 750.573 183.8H756.573C756.573 179.987 755.985 176.567 754.679 173.647L749.202 176.097ZM750.573 183.8C750.573 187.656 749.741 190.64 748.267 192.927L753.31 196.177C755.549 192.704 756.573 188.52 756.573 183.8H750.573ZM748.258 192.941C746.927 195.033 744.628 196.797 740.981 198.051L742.932 203.725C747.477 202.163 751.067 199.703 753.32 196.163L748.258 192.941ZM740.981 198.051C737.327 199.307 732.226 200 725.541 200V206C732.551 206 738.394 205.285 742.932 203.725L740.981 198.051ZM725.541 200C721.157 200 717.252 199.781 713.817 199.351L713.073 205.305C716.805 205.771 720.964 206 725.541 206V200ZM713.869 199.358C710.379 198.86 706.988 198.206 703.695 197.398L702.266 203.226C705.757 204.082 709.342 204.772 713.02 205.298L713.869 199.358ZM705.981 200.312V186.776H699.981V200.312H705.981ZM704.781 189.176L705.165 188.888L701.565 184.088L701.181 184.376L704.781 189.176ZM763.885 153.272L761.094 152.171L761.088 152.188L761.081 152.206L763.885 153.272ZM773.005 143.48L771.761 140.75L771.753 140.754L771.745 140.757L773.005 143.48ZM805.645 142.136L804.827 145.022L804.827 145.022L805.645 142.136ZM814.765 147.416L812.558 149.448L812.558 149.448L814.765 147.416ZM819.469 157.112L816.541 157.763L816.547 157.79L816.553 157.817L819.469 157.112ZM819.469 186.488L816.551 185.793L816.547 185.81L816.543 185.827L819.469 186.488ZM814.765 196.088L812.558 194.056L812.558 194.056L814.765 196.088ZM776.653 201.368L775.835 204.254L775.835 204.254L776.653 201.368ZM767.533 196.088L769.74 194.056L769.74 194.056L767.533 196.088ZM762.733 186.488L759.815 187.183L759.817 187.193L762.733 186.488ZM804.493 182.648L807.386 183.443L807.388 183.434L807.391 183.425L804.493 182.648ZM804.493 160.952L801.601 161.747L801.601 161.747L804.493 160.952ZM800.365 155.576L798.958 158.225L798.99 158.243L799.023 158.259L800.365 155.576ZM781.933 155.576L783.275 158.259L783.291 158.251L783.307 158.243L781.933 155.576ZM777.709 160.952L774.836 160.09L774.826 160.123L774.817 160.157L777.709 160.952ZM777.709 182.648L774.812 183.425L774.823 183.468L774.836 183.51L777.709 182.648ZM781.933 188.024L780.591 190.707L780.608 190.715L780.624 190.723L781.933 188.024ZM764.293 171.704C764.293 164.134 765.144 158.4 766.689 154.338L761.081 152.206C759.17 157.232 758.293 163.786 758.293 171.704H764.293ZM766.676 154.373C768.196 150.519 770.703 147.851 774.265 146.203L771.745 140.757C766.732 143.077 763.159 146.937 761.094 152.171L766.676 154.373ZM774.25 146.21C778.042 144.481 783.6 143.504 791.149 143.504V137.504C783.21 137.504 776.672 138.511 771.761 140.75L774.25 146.21ZM791.149 143.504C796.811 143.504 801.345 144.036 804.827 145.022L806.463 139.25C802.266 138.06 797.135 137.504 791.149 137.504V143.504ZM804.827 145.022C808.245 145.991 810.765 147.501 812.558 149.448L816.972 145.384C814.285 142.467 810.725 140.457 806.463 139.25L804.827 145.022ZM812.558 149.448C814.361 151.406 815.731 154.12 816.541 157.763L822.398 156.461C821.415 152.04 819.649 148.29 816.972 145.384L812.558 149.448ZM816.553 157.817C817.44 161.482 817.909 166.093 817.909 171.704H823.909C823.909 165.795 823.418 160.678 822.385 156.407L816.553 157.817ZM817.909 171.704C817.909 177.38 817.44 182.06 816.551 185.793L822.388 187.183C823.419 182.852 823.909 177.676 823.909 171.704H817.909ZM816.543 185.827C815.736 189.4 814.369 192.09 812.558 194.056L816.972 198.12C819.641 195.222 821.41 191.512 822.395 187.149L816.543 185.827ZM812.558 194.056C810.765 196.003 808.245 197.513 804.827 198.482L806.463 204.254C810.725 203.047 814.285 201.037 816.972 198.12L812.558 194.056ZM804.827 198.482C801.345 199.468 796.811 200 791.149 200V206C797.135 206 802.266 205.444 806.463 204.254L804.827 198.482ZM791.149 200C785.487 200 780.954 199.468 777.471 198.482L775.835 204.254C780.033 205.444 785.163 206 791.149 206V200ZM777.471 198.482C774.053 197.513 771.533 196.003 769.74 194.056L765.326 198.12C768.013 201.037 771.573 203.047 775.835 204.254L777.471 198.482ZM769.74 194.056C767.917 192.077 766.517 189.37 765.649 185.783L759.817 187.193C760.869 191.542 762.669 195.235 765.326 198.12L769.74 194.056ZM765.652 185.793C764.763 182.06 764.293 177.38 764.293 171.704H758.293C758.293 177.676 758.784 182.852 759.815 187.183L765.652 185.793ZM791.149 192.56C795.398 192.56 799.032 192.045 801.707 190.707L799.023 185.341C797.602 186.051 795.092 186.56 791.149 186.56V192.56ZM801.707 190.707C804.64 189.24 806.496 186.68 807.386 183.443L801.601 181.853C801.083 183.736 800.186 184.76 799.023 185.341L801.707 190.707ZM807.391 183.425C808.194 180.43 808.549 176.479 808.549 171.704H802.549C802.549 176.273 802.2 179.618 801.596 181.871L807.391 183.425ZM808.549 171.704C808.549 166.993 808.195 163.098 807.386 160.157L801.601 161.747C802.2 163.926 802.549 167.199 802.549 171.704H808.549ZM807.386 160.157C806.496 156.92 804.64 154.36 801.707 152.893L799.023 158.259C800.186 158.84 801.083 159.864 801.601 161.747L807.386 160.157ZM801.773 152.927C799.075 151.494 795.413 150.944 791.149 150.944V156.944C795.077 156.944 797.559 157.482 798.958 158.225L801.773 152.927ZM791.149 150.944C786.93 150.944 783.295 151.5 780.559 152.909L783.307 158.243C784.795 157.476 787.304 156.944 791.149 156.944V150.944ZM780.591 152.893C777.679 154.349 775.798 156.882 774.836 160.09L780.583 161.814C781.156 159.902 782.092 158.851 783.275 158.259L780.591 152.893ZM774.817 160.157C774.008 163.098 773.653 166.993 773.653 171.704H779.653C779.653 167.199 780.003 163.926 780.602 161.747L774.817 160.157ZM773.653 171.704C773.653 176.479 774.008 180.43 774.812 183.425L780.607 181.871C780.002 179.618 779.653 176.273 779.653 171.704H773.653ZM774.836 183.51C775.798 186.718 777.679 189.251 780.591 190.707L783.275 185.341C782.092 184.749 781.156 183.698 780.583 181.786L774.836 183.51ZM780.624 190.723C783.338 192.039 786.945 192.56 791.149 192.56V186.56C787.289 186.56 784.752 186.057 783.242 185.325L780.624 190.723Z" fill="#1D1818" mask="url(#path-1-inside-1_3_8)"/>
</svg>
