<svg width="900" height="346" viewBox="0 0 900 346" fill="none" xmlns="http://www.w3.org/2000/svg">
<mask id="path-1-outside-1_3_10" maskUnits="userSpaceOnUse" x="99" y="139" width="723" height="65" fill="black">
<rect fill="white" x="99" y="139" width="723" height="65"/>
<path d="M100.458 186.488C103.274 187.448 106.346 188.216 109.674 188.792C113.066 189.304 116.426 189.56 119.754 189.56C124.298 189.56 127.658 189.368 129.834 188.984C132.074 188.536 133.546 187.864 134.25 186.968C134.954 186.072 135.306 184.92 135.306 183.512C135.306 182.296 135.05 181.336 134.538 180.632C134.026 179.928 133.034 179.384 131.562 179C130.09 178.552 127.914 178.2 125.034 177.944L118.698 177.368C113.962 176.92 110.218 175.928 107.466 174.392C104.778 172.856 102.858 170.808 101.706 168.248C100.618 165.624 100.074 162.488 100.074 158.84C100.074 154.488 100.938 150.968 102.666 148.28C104.458 145.592 107.338 143.64 111.306 142.424C115.274 141.144 120.554 140.504 127.146 140.504C135.722 140.504 142.794 141.624 148.362 143.864L148.074 156.92L147.786 157.304C141.45 155.064 134.826 153.944 127.914 153.944C124.586 153.944 122.026 154.136 120.234 154.52C118.442 154.84 117.194 155.384 116.49 156.152C115.786 156.92 115.434 158.008 115.434 159.416C115.434 160.824 115.658 161.88 116.106 162.584C116.618 163.288 117.61 163.832 119.082 164.216C120.554 164.536 122.698 164.856 125.514 165.176L131.562 165.848C136.682 166.424 140.618 167.448 143.37 168.92C146.122 170.392 148.01 172.376 149.034 174.872C150.122 177.304 150.666 180.28 150.666 183.8C150.666 188.088 149.738 191.672 147.882 194.552C146.09 197.368 143.146 199.48 139.05 200.888C134.954 202.296 129.482 203 122.634 203C118.154 203 114.122 202.776 110.538 202.328C106.954 201.816 103.466 201.144 100.074 200.312V186.776L100.458 186.488ZM215.987 201.848V202.136H199.667C199.219 200.6 198.675 198.84 198.035 196.856C197.459 194.872 196.819 192.76 196.115 190.52H175.379C174.099 195 172.915 198.872 171.827 202.136H155.507V201.944L175.187 141.368H196.307L215.987 201.848ZM185.555 152.312C184.915 155.576 183.987 159.544 182.771 164.216C181.555 168.888 180.275 173.656 178.931 178.52H192.659C191.251 173.656 189.939 168.888 188.723 164.216C187.507 159.544 186.579 155.576 185.939 152.312H185.555ZM274.2 186.584C274.2 191.704 272.6 195.576 269.4 198.2C266.264 200.824 260.696 202.136 252.696 202.136H222.744V141.368H226.488H251.736C257.048 141.368 261.176 141.944 264.12 143.096C267.128 144.184 269.24 145.816 270.456 147.992C271.672 150.168 272.28 152.888 272.28 156.152C272.28 160.632 271.192 164.12 269.016 166.616C266.904 169.048 262.904 170.52 257.016 171.032V171.32C261.368 171.64 264.792 172.376 267.288 173.528C269.784 174.616 271.544 176.216 272.568 178.328C273.656 180.44 274.2 183.192 274.2 186.584ZM247.512 153.464H238.104V165.368H247.512C250.648 165.368 252.92 164.984 254.328 164.216C255.736 163.384 256.44 161.784 256.44 159.416C256.44 157.112 255.736 155.544 254.328 154.712C252.92 153.88 250.648 153.464 247.512 153.464ZM249.432 177.944H238.104V190.136H249.432C252.568 190.136 254.84 189.72 256.248 188.888C257.656 187.992 258.36 186.36 258.36 183.992C258.36 181.56 257.656 179.96 256.248 179.192C254.84 178.36 252.568 177.944 249.432 177.944ZM280.918 171.704C280.918 163.96 281.782 157.816 283.51 153.272C285.302 148.728 288.342 145.464 292.63 143.48C296.982 141.496 303.03 140.504 310.774 140.504C316.598 140.504 321.43 141.048 325.27 142.136C329.11 143.224 332.15 144.984 334.39 147.416C336.63 149.848 338.198 153.08 339.094 157.112C340.054 161.08 340.534 165.944 340.534 171.704C340.534 177.528 340.054 182.456 339.094 186.488C338.198 190.456 336.63 193.656 334.39 196.088C332.15 198.52 329.11 200.28 325.27 201.368C321.43 202.456 316.598 203 310.774 203C304.95 203 300.118 202.456 296.278 201.368C292.438 200.28 289.398 198.52 287.158 196.088C284.918 193.656 283.318 190.456 282.358 186.488C281.398 182.456 280.918 177.528 280.918 171.704ZM310.774 189.56C314.87 189.56 317.942 189.048 319.99 188.024C322.038 187 323.414 185.208 324.118 182.648C324.822 180.024 325.174 176.376 325.174 171.704C325.174 167.096 324.822 163.512 324.118 160.952C323.414 158.392 322.038 156.6 319.99 155.576C317.942 154.488 314.87 153.944 310.774 153.944C306.742 153.944 303.67 154.488 301.558 155.576C299.51 156.6 298.102 158.392 297.334 160.952C296.63 163.512 296.278 167.096 296.278 171.704C296.278 176.376 296.63 180.024 297.334 182.648C298.102 185.208 299.51 187 301.558 188.024C303.67 189.048 306.742 189.56 310.774 189.56ZM365.511 202.136H350.151V141.368H379.143C386.759 141.368 392.295 143.096 395.751 146.552C399.271 149.944 401.031 154.968 401.031 161.624C401.031 166.616 399.783 170.904 397.287 174.488C394.791 178.008 391.495 180.216 387.399 181.112L387.303 181.4C388.903 182.424 390.663 184.12 392.583 186.488C394.503 188.856 396.391 191.448 398.247 194.264C400.167 197.016 401.863 199.608 403.335 202.04V202.136H385.479L375.111 186.776C374.215 185.432 373.479 184.472 372.903 183.896C372.391 183.32 371.751 182.968 370.983 182.84C370.279 182.712 369.127 182.648 367.527 182.648H365.511V202.136ZM376.647 153.848H365.511V170.168H376.647C379.847 170.168 382.055 169.528 383.271 168.248C384.551 166.968 385.191 164.888 385.191 162.008C385.191 159.128 384.551 157.048 383.271 155.768C382.055 154.488 379.847 153.848 376.647 153.848ZM456.167 202.136H440.807V141.368H456.167V202.136ZM507.073 141.368H522.433V202.136H507.169L489.889 176.408C488.545 174.36 487.425 172.632 486.529 171.224C485.633 169.816 484.801 168.408 484.033 167C483.265 165.592 482.401 163.928 481.441 162.008L481.153 162.392C482.049 165.464 482.593 168.344 482.785 171.032C482.977 173.656 483.073 176.216 483.073 178.712V202.136H467.713V141.368H482.977L500.257 167.096C501.601 169.08 502.721 170.808 503.617 172.28C504.513 173.688 505.345 175.096 506.113 176.504C506.881 177.912 507.745 179.576 508.705 181.496L508.993 181.112C508.353 178.424 507.873 175.832 507.553 173.336C507.233 170.776 507.073 168.248 507.073 165.752V141.368ZM546.474 202.136V154.328H529.194V141.368H579.114V154.328H561.834V202.136H546.474ZM585.838 202.136V141.368H630.958V153.848H601.198V165.368H627.022V177.848H601.198V189.656H630.958V202.136H585.838ZM677.979 141.368H693.339V202.136H678.075L660.795 176.408C659.451 174.36 658.331 172.632 657.435 171.224C656.539 169.816 655.707 168.408 654.939 167C654.171 165.592 653.307 163.928 652.347 162.008L652.059 162.392C652.955 165.464 653.499 168.344 653.691 171.032C653.883 173.656 653.979 176.216 653.979 178.712V202.136H638.619V141.368H653.883L671.163 167.096C672.507 169.08 673.627 170.808 674.523 172.28C675.419 173.688 676.251 175.096 677.019 176.504C677.787 177.912 678.651 179.576 679.611 181.496L679.899 181.112C679.259 178.424 678.779 175.832 678.459 173.336C678.139 170.776 677.979 168.248 677.979 165.752V141.368ZM703.365 186.488C706.181 187.448 709.253 188.216 712.581 188.792C715.973 189.304 719.333 189.56 722.661 189.56C727.205 189.56 730.565 189.368 732.741 188.984C734.981 188.536 736.453 187.864 737.157 186.968C737.861 186.072 738.213 184.92 738.213 183.512C738.213 182.296 737.957 181.336 737.445 180.632C736.933 179.928 735.941 179.384 734.469 179C732.997 178.552 730.821 178.2 727.941 177.944L721.605 177.368C716.869 176.92 713.125 175.928 710.373 174.392C707.685 172.856 705.765 170.808 704.613 168.248C703.525 165.624 702.981 162.488 702.981 158.84C702.981 154.488 703.845 150.968 705.573 148.28C707.365 145.592 710.245 143.64 714.213 142.424C718.181 141.144 723.461 140.504 730.053 140.504C738.629 140.504 745.701 141.624 751.269 143.864L750.981 156.92L750.693 157.304C744.357 155.064 737.733 153.944 730.821 153.944C727.493 153.944 724.933 154.136 723.141 154.52C721.349 154.84 720.101 155.384 719.397 156.152C718.693 156.92 718.341 158.008 718.341 159.416C718.341 160.824 718.565 161.88 719.013 162.584C719.525 163.288 720.517 163.832 721.989 164.216C723.461 164.536 725.605 164.856 728.421 165.176L734.469 165.848C739.589 166.424 743.525 167.448 746.277 168.92C749.029 170.392 750.917 172.376 751.941 174.872C753.029 177.304 753.573 180.28 753.573 183.8C753.573 188.088 752.645 191.672 750.789 194.552C748.997 197.368 746.053 199.48 741.957 200.888C737.861 202.296 732.389 203 725.541 203C721.061 203 717.029 202.776 713.445 202.328C709.861 201.816 706.373 201.144 702.981 200.312V186.776L703.365 186.488ZM761.293 171.704C761.293 163.96 762.157 157.816 763.885 153.272C765.677 148.728 768.717 145.464 773.005 143.48C777.357 141.496 783.405 140.504 791.149 140.504C796.973 140.504 801.805 141.048 805.645 142.136C809.485 143.224 812.525 144.984 814.765 147.416C817.005 149.848 818.573 153.08 819.469 157.112C820.429 161.08 820.909 165.944 820.909 171.704C820.909 177.528 820.429 182.456 819.469 186.488C818.573 190.456 817.005 193.656 814.765 196.088C812.525 198.52 809.485 200.28 805.645 201.368C801.805 202.456 796.973 203 791.149 203C785.325 203 780.493 202.456 776.653 201.368C772.813 200.28 769.773 198.52 767.533 196.088C765.293 193.656 763.693 190.456 762.733 186.488C761.773 182.456 761.293 177.528 761.293 171.704ZM791.149 189.56C795.245 189.56 798.317 189.048 800.365 188.024C802.413 187 803.789 185.208 804.493 182.648C805.197 180.024 805.549 176.376 805.549 171.704C805.549 167.096 805.197 163.512 804.493 160.952C803.789 158.392 802.413 156.6 800.365 155.576C798.317 154.488 795.245 153.944 791.149 153.944C787.117 153.944 784.045 154.488 781.933 155.576C779.885 156.6 778.477 158.392 777.709 160.952C777.005 163.512 776.653 167.096 776.653 171.704C776.653 176.376 777.005 180.024 777.709 182.648C778.477 185.208 779.885 187 781.933 188.024C784.045 189.048 787.117 189.56 791.149 189.56Z"/>
</mask>
<path d="M100.458 186.488C103.274 187.448 106.346 188.216 109.674 188.792C113.066 189.304 116.426 189.56 119.754 189.56C124.298 189.56 127.658 189.368 129.834 188.984C132.074 188.536 133.546 187.864 134.25 186.968C134.954 186.072 135.306 184.92 135.306 183.512C135.306 182.296 135.05 181.336 134.538 180.632C134.026 179.928 133.034 179.384 131.562 179C130.09 178.552 127.914 178.2 125.034 177.944L118.698 177.368C113.962 176.92 110.218 175.928 107.466 174.392C104.778 172.856 102.858 170.808 101.706 168.248C100.618 165.624 100.074 162.488 100.074 158.84C100.074 154.488 100.938 150.968 102.666 148.28C104.458 145.592 107.338 143.64 111.306 142.424C115.274 141.144 120.554 140.504 127.146 140.504C135.722 140.504 142.794 141.624 148.362 143.864L148.074 156.92L147.786 157.304C141.45 155.064 134.826 153.944 127.914 153.944C124.586 153.944 122.026 154.136 120.234 154.52C118.442 154.84 117.194 155.384 116.49 156.152C115.786 156.92 115.434 158.008 115.434 159.416C115.434 160.824 115.658 161.88 116.106 162.584C116.618 163.288 117.61 163.832 119.082 164.216C120.554 164.536 122.698 164.856 125.514 165.176L131.562 165.848C136.682 166.424 140.618 167.448 143.37 168.92C146.122 170.392 148.01 172.376 149.034 174.872C150.122 177.304 150.666 180.28 150.666 183.8C150.666 188.088 149.738 191.672 147.882 194.552C146.09 197.368 143.146 199.48 139.05 200.888C134.954 202.296 129.482 203 122.634 203C118.154 203 114.122 202.776 110.538 202.328C106.954 201.816 103.466 201.144 100.074 200.312V186.776L100.458 186.488ZM215.987 201.848V202.136H199.667C199.219 200.6 198.675 198.84 198.035 196.856C197.459 194.872 196.819 192.76 196.115 190.52H175.379C174.099 195 172.915 198.872 171.827 202.136H155.507V201.944L175.187 141.368H196.307L215.987 201.848ZM185.555 152.312C184.915 155.576 183.987 159.544 182.771 164.216C181.555 168.888 180.275 173.656 178.931 178.52H192.659C191.251 173.656 189.939 168.888 188.723 164.216C187.507 159.544 186.579 155.576 185.939 152.312H185.555ZM274.2 186.584C274.2 191.704 272.6 195.576 269.4 198.2C266.264 200.824 260.696 202.136 252.696 202.136H222.744V141.368H226.488H251.736C257.048 141.368 261.176 141.944 264.12 143.096C267.128 144.184 269.24 145.816 270.456 147.992C271.672 150.168 272.28 152.888 272.28 156.152C272.28 160.632 271.192 164.12 269.016 166.616C266.904 169.048 262.904 170.52 257.016 171.032V171.32C261.368 171.64 264.792 172.376 267.288 173.528C269.784 174.616 271.544 176.216 272.568 178.328C273.656 180.44 274.2 183.192 274.2 186.584ZM247.512 153.464H238.104V165.368H247.512C250.648 165.368 252.92 164.984 254.328 164.216C255.736 163.384 256.44 161.784 256.44 159.416C256.44 157.112 255.736 155.544 254.328 154.712C252.92 153.88 250.648 153.464 247.512 153.464ZM249.432 177.944H238.104V190.136H249.432C252.568 190.136 254.84 189.72 256.248 188.888C257.656 187.992 258.36 186.36 258.36 183.992C258.36 181.56 257.656 179.96 256.248 179.192C254.84 178.36 252.568 177.944 249.432 177.944ZM280.918 171.704C280.918 163.96 281.782 157.816 283.51 153.272C285.302 148.728 288.342 145.464 292.63 143.48C296.982 141.496 303.03 140.504 310.774 140.504C316.598 140.504 321.43 141.048 325.27 142.136C329.11 143.224 332.15 144.984 334.39 147.416C336.63 149.848 338.198 153.08 339.094 157.112C340.054 161.08 340.534 165.944 340.534 171.704C340.534 177.528 340.054 182.456 339.094 186.488C338.198 190.456 336.63 193.656 334.39 196.088C332.15 198.52 329.11 200.28 325.27 201.368C321.43 202.456 316.598 203 310.774 203C304.95 203 300.118 202.456 296.278 201.368C292.438 200.28 289.398 198.52 287.158 196.088C284.918 193.656 283.318 190.456 282.358 186.488C281.398 182.456 280.918 177.528 280.918 171.704ZM310.774 189.56C314.87 189.56 317.942 189.048 319.99 188.024C322.038 187 323.414 185.208 324.118 182.648C324.822 180.024 325.174 176.376 325.174 171.704C325.174 167.096 324.822 163.512 324.118 160.952C323.414 158.392 322.038 156.6 319.99 155.576C317.942 154.488 314.87 153.944 310.774 153.944C306.742 153.944 303.67 154.488 301.558 155.576C299.51 156.6 298.102 158.392 297.334 160.952C296.63 163.512 296.278 167.096 296.278 171.704C296.278 176.376 296.63 180.024 297.334 182.648C298.102 185.208 299.51 187 301.558 188.024C303.67 189.048 306.742 189.56 310.774 189.56ZM365.511 202.136H350.151V141.368H379.143C386.759 141.368 392.295 143.096 395.751 146.552C399.271 149.944 401.031 154.968 401.031 161.624C401.031 166.616 399.783 170.904 397.287 174.488C394.791 178.008 391.495 180.216 387.399 181.112L387.303 181.4C388.903 182.424 390.663 184.12 392.583 186.488C394.503 188.856 396.391 191.448 398.247 194.264C400.167 197.016 401.863 199.608 403.335 202.04V202.136H385.479L375.111 186.776C374.215 185.432 373.479 184.472 372.903 183.896C372.391 183.32 371.751 182.968 370.983 182.84C370.279 182.712 369.127 182.648 367.527 182.648H365.511V202.136ZM376.647 153.848H365.511V170.168H376.647C379.847 170.168 382.055 169.528 383.271 168.248C384.551 166.968 385.191 164.888 385.191 162.008C385.191 159.128 384.551 157.048 383.271 155.768C382.055 154.488 379.847 153.848 376.647 153.848ZM456.167 202.136H440.807V141.368H456.167V202.136ZM507.073 141.368H522.433V202.136H507.169L489.889 176.408C488.545 174.36 487.425 172.632 486.529 171.224C485.633 169.816 484.801 168.408 484.033 167C483.265 165.592 482.401 163.928 481.441 162.008L481.153 162.392C482.049 165.464 482.593 168.344 482.785 171.032C482.977 173.656 483.073 176.216 483.073 178.712V202.136H467.713V141.368H482.977L500.257 167.096C501.601 169.08 502.721 170.808 503.617 172.28C504.513 173.688 505.345 175.096 506.113 176.504C506.881 177.912 507.745 179.576 508.705 181.496L508.993 181.112C508.353 178.424 507.873 175.832 507.553 173.336C507.233 170.776 507.073 168.248 507.073 165.752V141.368ZM546.474 202.136V154.328H529.194V141.368H579.114V154.328H561.834V202.136H546.474ZM585.838 202.136V141.368H630.958V153.848H601.198V165.368H627.022V177.848H601.198V189.656H630.958V202.136H585.838ZM677.979 141.368H693.339V202.136H678.075L660.795 176.408C659.451 174.36 658.331 172.632 657.435 171.224C656.539 169.816 655.707 168.408 654.939 167C654.171 165.592 653.307 163.928 652.347 162.008L652.059 162.392C652.955 165.464 653.499 168.344 653.691 171.032C653.883 173.656 653.979 176.216 653.979 178.712V202.136H638.619V141.368H653.883L671.163 167.096C672.507 169.08 673.627 170.808 674.523 172.28C675.419 173.688 676.251 175.096 677.019 176.504C677.787 177.912 678.651 179.576 679.611 181.496L679.899 181.112C679.259 178.424 678.779 175.832 678.459 173.336C678.139 170.776 677.979 168.248 677.979 165.752V141.368ZM703.365 186.488C706.181 187.448 709.253 188.216 712.581 188.792C715.973 189.304 719.333 189.56 722.661 189.56C727.205 189.56 730.565 189.368 732.741 188.984C734.981 188.536 736.453 187.864 737.157 186.968C737.861 186.072 738.213 184.92 738.213 183.512C738.213 182.296 737.957 181.336 737.445 180.632C736.933 179.928 735.941 179.384 734.469 179C732.997 178.552 730.821 178.2 727.941 177.944L721.605 177.368C716.869 176.92 713.125 175.928 710.373 174.392C707.685 172.856 705.765 170.808 704.613 168.248C703.525 165.624 702.981 162.488 702.981 158.84C702.981 154.488 703.845 150.968 705.573 148.28C707.365 145.592 710.245 143.64 714.213 142.424C718.181 141.144 723.461 140.504 730.053 140.504C738.629 140.504 745.701 141.624 751.269 143.864L750.981 156.92L750.693 157.304C744.357 155.064 737.733 153.944 730.821 153.944C727.493 153.944 724.933 154.136 723.141 154.52C721.349 154.84 720.101 155.384 719.397 156.152C718.693 156.92 718.341 158.008 718.341 159.416C718.341 160.824 718.565 161.88 719.013 162.584C719.525 163.288 720.517 163.832 721.989 164.216C723.461 164.536 725.605 164.856 728.421 165.176L734.469 165.848C739.589 166.424 743.525 167.448 746.277 168.92C749.029 170.392 750.917 172.376 751.941 174.872C753.029 177.304 753.573 180.28 753.573 183.8C753.573 188.088 752.645 191.672 750.789 194.552C748.997 197.368 746.053 199.48 741.957 200.888C737.861 202.296 732.389 203 725.541 203C721.061 203 717.029 202.776 713.445 202.328C709.861 201.816 706.373 201.144 702.981 200.312V186.776L703.365 186.488ZM761.293 171.704C761.293 163.96 762.157 157.816 763.885 153.272C765.677 148.728 768.717 145.464 773.005 143.48C777.357 141.496 783.405 140.504 791.149 140.504C796.973 140.504 801.805 141.048 805.645 142.136C809.485 143.224 812.525 144.984 814.765 147.416C817.005 149.848 818.573 153.08 819.469 157.112C820.429 161.08 820.909 165.944 820.909 171.704C820.909 177.528 820.429 182.456 819.469 186.488C818.573 190.456 817.005 193.656 814.765 196.088C812.525 198.52 809.485 200.28 805.645 201.368C801.805 202.456 796.973 203 791.149 203C785.325 203 780.493 202.456 776.653 201.368C772.813 200.28 769.773 198.52 767.533 196.088C765.293 193.656 763.693 190.456 762.733 186.488C761.773 182.456 761.293 177.528 761.293 171.704ZM791.149 189.56C795.245 189.56 798.317 189.048 800.365 188.024C802.413 187 803.789 185.208 804.493 182.648C805.197 180.024 805.549 176.376 805.549 171.704C805.549 167.096 805.197 163.512 804.493 160.952C803.789 158.392 802.413 156.6 800.365 155.576C798.317 154.488 795.245 153.944 791.149 153.944C787.117 153.944 784.045 154.488 781.933 155.576C779.885 156.6 778.477 158.392 777.709 160.952C777.005 163.512 776.653 167.096 776.653 171.704C776.653 176.376 777.005 180.024 777.709 182.648C778.477 185.208 779.885 187 781.933 188.024C784.045 189.048 787.117 189.56 791.149 189.56Z" fill="black"/>
<path d="M100.458 186.488L100.781 185.541L100.281 185.371L99.8584 185.688L100.458 186.488ZM109.674 188.792L109.504 189.777L109.514 189.779L109.525 189.781L109.674 188.792ZM129.834 188.984L130.008 189.969L130.019 189.967L130.03 189.965L129.834 188.984ZM134.25 186.968L135.037 187.586L135.037 187.586L134.25 186.968ZM134.538 180.632L133.73 181.22L133.73 181.22L134.538 180.632ZM131.562 179L131.271 179.957L131.29 179.963L131.31 179.968L131.562 179ZM125.034 177.944L124.944 178.94L124.946 178.94L125.034 177.944ZM118.698 177.368L118.604 178.364L118.608 178.364L118.698 177.368ZM107.466 174.392L106.97 175.26L106.979 175.265L107.466 174.392ZM101.706 168.248L100.783 168.631L100.788 168.645L100.794 168.658L101.706 168.248ZM102.666 148.28L101.834 147.725L101.83 147.732L101.825 147.739L102.666 148.28ZM111.306 142.424L111.599 143.38L111.606 143.378L111.613 143.376L111.306 142.424ZM148.362 143.864L149.362 143.886L149.377 143.194L148.736 142.936L148.362 143.864ZM148.074 156.92L148.874 157.52L149.067 157.263L149.074 156.942L148.074 156.92ZM147.786 157.304L147.453 158.247L148.146 158.492L148.586 157.904L147.786 157.304ZM120.234 154.52L120.41 155.504L120.427 155.501L120.444 155.498L120.234 154.52ZM116.49 156.152L115.753 155.476L115.753 155.476L116.49 156.152ZM116.106 162.584L115.263 163.121L115.279 163.147L115.298 163.172L116.106 162.584ZM119.082 164.216L118.83 165.184L118.85 165.189L118.87 165.193L119.082 164.216ZM125.514 165.176L125.401 166.17L125.404 166.17L125.514 165.176ZM131.562 165.848L131.674 164.854L131.673 164.854L131.562 165.848ZM149.034 174.872L148.109 175.252L148.115 175.266L148.122 175.28L149.034 174.872ZM147.882 194.552L147.042 194.01L147.039 194.015L147.882 194.552ZM139.05 200.888L138.725 199.942L138.725 199.942L139.05 200.888ZM110.538 202.328L110.397 203.318L110.406 203.319L110.414 203.32L110.538 202.328ZM100.074 200.312H99.0744V201.096L99.8362 201.283L100.074 200.312ZM100.074 186.776L99.4744 185.976L99.0744 186.276V186.776H100.074ZM100.136 187.435C103.007 188.414 106.131 189.194 109.504 189.777L109.845 187.807C106.562 187.238 103.541 186.482 100.781 185.541L100.136 187.435ZM109.525 189.781C112.965 190.3 116.375 190.56 119.754 190.56V188.56C116.478 188.56 113.168 188.308 109.824 187.803L109.525 189.781ZM119.754 190.56C124.309 190.56 127.742 190.369 130.008 189.969L129.661 187.999C127.575 188.367 124.288 188.56 119.754 188.56V190.56ZM130.03 189.965C132.305 189.51 134.096 188.783 135.037 187.586L133.464 186.35C132.997 186.945 131.844 187.562 129.638 188.003L130.03 189.965ZM135.037 187.586C135.909 186.475 136.306 185.09 136.306 183.512H134.306C134.306 184.75 134 185.669 133.464 186.35L135.037 187.586ZM136.306 183.512C136.306 182.166 136.024 180.975 135.347 180.044L133.73 181.22C134.077 181.697 134.306 182.426 134.306 183.512H136.306ZM135.347 180.044C134.629 179.057 133.36 178.435 131.815 178.032L131.31 179.968C132.709 180.333 133.423 180.799 133.73 181.22L135.347 180.044ZM131.854 178.043C130.281 177.565 128.023 177.206 125.123 176.948L124.946 178.94C127.806 179.194 129.9 179.539 131.271 179.957L131.854 178.043ZM125.125 176.948L118.789 176.372L118.608 178.364L124.944 178.94L125.125 176.948ZM118.793 176.372C114.131 175.931 110.539 174.962 107.954 173.519L106.979 175.265C109.898 176.894 113.794 177.909 118.604 178.364L118.793 176.372ZM107.963 173.524C105.438 172.081 103.675 170.185 102.618 167.838L100.794 168.658C102.042 171.431 104.119 173.631 106.97 175.26L107.963 173.524ZM102.63 167.865C101.605 165.392 101.074 162.392 101.074 158.84H99.0744C99.0744 162.584 99.6322 165.856 100.783 168.631L102.63 167.865ZM101.074 158.84C101.074 154.612 101.914 151.299 103.508 148.821L101.825 147.739C99.9623 150.637 99.0744 154.364 99.0744 158.84H101.074ZM103.498 148.835C105.13 146.388 107.788 144.548 111.599 143.38L111.013 141.468C106.889 142.732 103.787 144.796 101.834 147.725L103.498 148.835ZM111.613 143.376C115.442 142.141 120.605 141.504 127.146 141.504V139.504C120.503 139.504 115.107 140.147 110.999 141.472L111.613 143.376ZM127.146 141.504C135.645 141.504 142.579 142.615 147.989 144.792L148.736 142.936C143.01 140.633 135.8 139.504 127.146 139.504V141.504ZM147.363 143.842L147.075 156.898L149.074 156.942L149.362 143.886L147.363 143.842ZM147.274 156.32L146.986 156.704L148.586 157.904L148.874 157.52L147.274 156.32ZM148.12 156.361C141.674 154.082 134.937 152.944 127.914 152.944V154.944C134.716 154.944 141.227 156.046 147.453 158.247L148.12 156.361ZM127.914 152.944C124.563 152.944 121.92 153.136 120.025 153.542L120.444 155.498C122.133 155.136 124.61 154.944 127.914 154.944V152.944ZM120.059 153.536C118.195 153.868 116.681 154.464 115.753 155.476L117.228 156.828C117.708 156.304 118.69 155.812 120.41 155.504L120.059 153.536ZM115.753 155.476C114.828 156.485 114.434 157.847 114.434 159.416H116.434C116.434 158.169 116.745 157.355 117.228 156.828L115.753 155.476ZM114.434 159.416C114.434 160.898 114.664 162.181 115.263 163.121L116.95 162.047C116.652 161.579 116.434 160.75 116.434 159.416H114.434ZM115.298 163.172C116.015 164.159 117.285 164.781 118.83 165.184L119.335 163.248C117.936 162.883 117.221 162.417 116.915 161.996L115.298 163.172ZM118.87 165.193C120.392 165.524 122.576 165.848 125.401 166.17L125.627 164.182C122.821 163.864 120.717 163.548 119.295 163.239L118.87 165.193ZM125.404 166.17L131.452 166.842L131.673 164.854L125.625 164.182L125.404 166.17ZM131.451 166.842C136.516 167.412 140.308 168.416 142.899 169.802L143.842 168.038C140.929 166.48 136.849 165.436 131.674 164.854L131.451 166.842ZM142.899 169.802C145.48 171.182 147.187 173.004 148.109 175.252L149.96 174.492C148.834 171.748 146.765 169.602 143.842 168.038L142.899 169.802ZM148.122 175.28C149.137 177.55 149.666 180.378 149.666 183.8H151.666C151.666 180.182 151.108 177.058 149.947 174.464L148.122 175.28ZM149.666 183.8C149.666 187.944 148.77 191.328 147.042 194.01L148.723 195.094C150.706 192.016 151.666 188.232 151.666 183.8H149.666ZM147.039 194.015C145.4 196.59 142.672 198.586 138.725 199.942L139.375 201.834C143.621 200.374 146.78 198.146 148.726 195.089L147.039 194.015ZM138.725 199.942C134.777 201.3 129.428 202 122.634 202V204C129.536 204 135.132 203.292 139.375 201.834L138.725 199.942ZM122.634 202C118.186 202 114.197 201.778 110.662 201.336L110.414 203.32C114.048 203.774 118.122 204 122.634 204V202ZM110.68 201.338C107.127 200.831 103.672 200.165 100.313 199.341L99.8362 201.283C103.261 202.123 106.782 202.801 110.397 203.318L110.68 201.338ZM101.074 200.312V186.776H99.0744V200.312H101.074ZM100.674 187.576L101.058 187.288L99.8584 185.688L99.4744 185.976L100.674 187.576ZM215.987 201.848H216.987V201.689L216.938 201.539L215.987 201.848ZM215.987 202.136V203.136H216.987V202.136H215.987ZM199.667 202.136L198.707 202.416L198.917 203.136H199.667V202.136ZM198.035 196.856L197.075 197.135L197.079 197.149L197.083 197.163L198.035 196.856ZM196.115 190.52L197.069 190.22L196.849 189.52H196.115V190.52ZM175.379 190.52V189.52H174.625L174.417 190.245L175.379 190.52ZM171.827 202.136V203.136H172.548L172.776 202.452L171.827 202.136ZM155.507 202.136H154.507V203.136H155.507V202.136ZM155.507 201.944L154.556 201.635L154.507 201.786V201.944H155.507ZM175.187 141.368V140.368H174.46L174.236 141.059L175.187 141.368ZM196.307 141.368L197.258 141.059L197.033 140.368H196.307V141.368ZM185.555 152.312V151.312H184.732L184.574 152.12L185.555 152.312ZM182.771 164.216L181.803 163.964L181.803 163.964L182.771 164.216ZM178.931 178.52L177.967 178.254L177.617 179.52H178.931V178.52ZM192.659 178.52V179.52H193.989L193.619 178.242L192.659 178.52ZM188.723 164.216L187.755 164.468L187.755 164.468L188.723 164.216ZM185.939 152.312L186.92 152.12L186.762 151.312H185.939V152.312ZM214.987 201.848V202.136H216.987V201.848H214.987ZM215.987 201.136H199.667V203.136H215.987V201.136ZM200.627 201.856C200.176 200.309 199.629 198.539 198.987 196.549L197.083 197.163C197.721 199.141 198.262 200.891 198.707 202.416L200.627 201.856ZM198.995 196.577C198.417 194.585 197.775 192.466 197.069 190.22L195.161 190.82C195.863 193.054 196.501 195.159 197.075 197.135L198.995 196.577ZM196.115 189.52H175.379V191.52H196.115V189.52ZM174.417 190.245C173.14 194.716 171.96 198.573 170.878 201.82L172.776 202.452C173.869 199.171 175.058 195.284 176.34 190.795L174.417 190.245ZM171.827 201.136H155.507V203.136H171.827V201.136ZM156.507 202.136V201.944H154.507V202.136H156.507ZM156.458 202.253L176.138 141.677L174.236 141.059L154.556 201.635L156.458 202.253ZM175.187 142.368H196.307V140.368H175.187V142.368ZM195.356 141.677L215.036 202.157L216.938 201.539L197.258 141.059L195.356 141.677ZM184.574 152.12C183.939 155.357 183.016 159.304 181.803 163.964L183.739 164.468C184.958 159.784 185.891 155.795 186.536 152.504L184.574 152.12ZM181.803 163.964C180.588 168.631 179.31 173.394 177.967 178.254L179.895 178.786C181.24 173.918 182.521 169.145 183.739 164.468L181.803 163.964ZM178.931 179.52H192.659V177.52H178.931V179.52ZM193.619 178.242C192.214 173.386 190.904 168.627 189.691 163.964L187.755 164.468C188.974 169.149 190.288 173.926 191.698 178.798L193.619 178.242ZM189.691 163.964C188.478 159.304 187.555 155.357 186.92 152.12L184.958 152.504C185.603 155.795 186.536 159.784 187.755 164.468L189.691 163.964ZM185.939 151.312H185.555V153.312H185.939V151.312ZM269.4 198.2L268.766 197.427L268.759 197.433L269.4 198.2ZM222.744 202.136H221.744V203.136H222.744V202.136ZM222.744 141.368V140.368H221.744V141.368H222.744ZM264.12 143.096L263.756 144.027L263.768 144.032L263.78 144.036L264.12 143.096ZM270.456 147.992L269.583 148.48L269.583 148.48L270.456 147.992ZM269.016 166.616L268.263 165.959L268.261 165.96L269.016 166.616ZM257.016 171.032L256.93 170.036L256.016 170.115V171.032H257.016ZM257.016 171.32H256.016V172.249L256.943 172.317L257.016 171.32ZM267.288 173.528L266.869 174.436L266.879 174.44L266.889 174.445L267.288 173.528ZM272.568 178.328L271.669 178.764L271.674 178.775L271.679 178.786L272.568 178.328ZM238.104 153.464V152.464H237.104V153.464H238.104ZM238.104 165.368H237.104V166.368H238.104V165.368ZM254.328 164.216L254.807 165.094L254.822 165.086L254.837 165.077L254.328 164.216ZM254.328 154.712L254.837 153.851L254.837 153.851L254.328 154.712ZM238.104 177.944V176.944H237.104V177.944H238.104ZM238.104 190.136H237.104V191.136H238.104V190.136ZM256.248 188.888L256.757 189.749L256.771 189.741L256.785 189.732L256.248 188.888ZM256.248 179.192L255.74 180.053L255.754 180.062L255.77 180.07L256.248 179.192ZM273.2 186.584C273.2 191.482 271.681 195.037 268.766 197.427L270.034 198.973C273.52 196.115 275.2 191.926 275.2 186.584H273.2ZM268.759 197.433C265.909 199.817 260.654 201.136 252.696 201.136V203.136C260.739 203.136 266.62 201.831 270.042 198.967L268.759 197.433ZM252.696 201.136H222.744V203.136H252.696V201.136ZM223.744 202.136V141.368H221.744V202.136H223.744ZM222.744 142.368H226.488V140.368H222.744V142.368ZM226.488 142.368H251.736V140.368H226.488V142.368ZM251.736 142.368C256.997 142.368 260.981 142.941 263.756 144.027L264.485 142.165C261.372 140.947 257.1 140.368 251.736 140.368V142.368ZM263.78 144.036C266.628 145.066 268.515 146.568 269.583 148.48L271.329 147.504C269.966 145.064 267.629 143.302 264.461 142.156L263.78 144.036ZM269.583 148.48C270.694 150.468 271.28 153.008 271.28 156.152H273.28C273.28 152.768 272.651 149.868 271.329 147.504L269.583 148.48ZM271.28 156.152C271.28 160.476 270.231 163.701 268.263 165.959L269.77 167.273C272.153 164.539 273.28 160.788 273.28 156.152H271.28ZM268.261 165.96C266.415 168.087 262.754 169.529 256.93 170.036L257.103 172.028C263.055 171.511 267.394 170.009 269.771 167.272L268.261 165.96ZM256.016 171.032V171.32H258.016V171.032H256.016ZM256.943 172.317C261.237 172.633 264.527 173.355 266.869 174.436L267.707 172.62C265.058 171.397 261.499 170.647 257.09 170.323L256.943 172.317ZM266.889 174.445C269.203 175.453 270.765 176.901 271.669 178.764L273.468 177.892C272.324 175.531 270.366 173.779 267.688 172.611L266.889 174.445ZM271.679 178.786C272.67 180.709 273.2 183.288 273.2 186.584H275.2C275.2 183.096 274.643 180.171 273.457 177.87L271.679 178.786ZM247.512 152.464H238.104V154.464H247.512V152.464ZM237.104 153.464V165.368H239.104V153.464H237.104ZM238.104 166.368H247.512V164.368H238.104V166.368ZM247.512 166.368C250.684 166.368 253.169 165.987 254.807 165.094L253.85 163.338C252.672 163.981 250.612 164.368 247.512 164.368V166.368ZM254.837 165.077C256.674 163.991 257.44 161.964 257.44 159.416H255.44C255.44 161.604 254.798 162.777 253.82 163.355L254.837 165.077ZM257.44 159.416C257.44 156.919 256.666 154.932 254.837 153.851L253.82 155.573C254.807 156.156 255.44 157.305 255.44 159.416H257.44ZM254.837 153.851C253.189 152.877 250.69 152.464 247.512 152.464V154.464C250.606 154.464 252.652 154.883 253.82 155.573L254.837 153.851ZM249.432 176.944H238.104V178.944H249.432V176.944ZM237.104 177.944V190.136H239.104V177.944H237.104ZM238.104 191.136H249.432V189.136H238.104V191.136ZM249.432 191.136C252.61 191.136 255.109 190.723 256.757 189.749L255.74 188.027C254.572 188.717 252.526 189.136 249.432 189.136V191.136ZM256.785 189.732C258.593 188.581 259.36 186.546 259.36 183.992H257.36C257.36 186.174 256.72 187.402 255.712 188.044L256.785 189.732ZM259.36 183.992C259.36 181.401 258.604 179.338 256.727 178.314L255.77 180.07C256.708 180.582 257.36 181.719 257.36 183.992H259.36ZM256.757 178.331C255.109 177.357 252.61 176.944 249.432 176.944V178.944C252.526 178.944 254.572 179.363 255.74 180.053L256.757 178.331ZM283.51 153.272L282.58 152.905L282.575 152.917L283.51 153.272ZM292.63 143.48L292.215 142.57L292.21 142.572L292.63 143.48ZM325.27 142.136L324.998 143.098L324.998 143.098L325.27 142.136ZM334.39 147.416L333.655 148.093L333.655 148.093L334.39 147.416ZM339.094 157.112L338.118 157.329L338.12 157.338L338.122 157.347L339.094 157.112ZM339.094 186.488L338.121 186.256L338.119 186.268L339.094 186.488ZM334.39 196.088L333.655 195.411L333.655 195.411L334.39 196.088ZM296.278 201.368L296.006 202.33L296.006 202.33L296.278 201.368ZM287.158 196.088L287.894 195.411L287.894 195.411L287.158 196.088ZM282.358 186.488L281.385 186.72L281.386 186.723L282.358 186.488ZM324.118 182.648L325.082 182.913L325.084 182.907L324.118 182.648ZM324.118 160.952L323.154 161.217L323.154 161.217L324.118 160.952ZM319.99 155.576L319.521 156.459L319.532 156.465L319.543 156.47L319.99 155.576ZM301.558 155.576L302.005 156.47L302.016 156.465L301.558 155.576ZM297.334 160.952L296.376 160.665L296.373 160.676L296.37 160.687L297.334 160.952ZM297.334 182.648L296.368 182.907L296.372 182.921L296.376 182.935L297.334 182.648ZM301.558 188.024L301.111 188.918L301.122 188.924L301.558 188.024ZM281.918 171.704C281.918 164.018 282.778 158.011 284.445 153.627L282.575 152.917C280.786 157.621 279.918 163.902 279.918 171.704H281.918ZM284.44 153.639C286.142 149.325 289.004 146.26 293.05 144.388L292.21 142.572C287.68 144.668 284.463 148.131 282.58 152.905L284.44 153.639ZM293.045 144.39C297.211 142.491 303.095 141.504 310.774 141.504V139.504C302.965 139.504 296.754 140.501 292.215 142.57L293.045 144.39ZM310.774 141.504C316.544 141.504 321.277 142.044 324.998 143.098L325.543 141.174C321.584 140.052 316.652 139.504 310.774 139.504V141.504ZM324.998 143.098C328.697 144.146 331.563 145.823 333.655 148.093L335.126 146.739C332.737 144.145 329.523 142.302 325.543 141.174L324.998 143.098ZM333.655 148.093C335.749 150.367 337.251 153.427 338.118 157.329L340.07 156.895C339.146 152.733 337.511 149.329 335.126 146.739L333.655 148.093ZM338.122 157.347C339.058 161.214 339.534 165.994 339.534 171.704H341.534C341.534 165.894 341.051 160.946 340.066 156.877L338.122 157.347ZM339.534 171.704C339.534 177.479 339.058 182.324 338.121 186.256L340.067 186.72C341.051 182.588 341.534 177.577 341.534 171.704H339.534ZM338.119 186.268C337.252 190.104 335.752 193.134 333.655 195.411L335.126 196.765C337.509 194.178 339.144 190.808 340.07 186.708L338.119 186.268ZM333.655 195.411C331.563 197.681 328.697 199.358 324.998 200.406L325.543 202.33C329.523 201.202 332.737 199.359 335.126 196.765L333.655 195.411ZM324.998 200.406C321.277 201.46 316.544 202 310.774 202V204C316.652 204 321.584 203.452 325.543 202.33L324.998 200.406ZM310.774 202C305.004 202 300.272 201.46 296.551 200.406L296.006 202.33C299.965 203.452 304.896 204 310.774 204V202ZM296.551 200.406C292.851 199.358 289.985 197.681 287.894 195.411L286.423 196.765C288.811 199.359 292.025 201.202 296.006 202.33L296.551 200.406ZM287.894 195.411C285.793 193.13 284.259 190.094 283.33 186.253L281.386 186.723C282.377 190.818 284.043 194.182 286.423 196.765L287.894 195.411ZM283.331 186.256C282.395 182.324 281.918 177.479 281.918 171.704H279.918C279.918 177.577 280.402 182.588 281.385 186.72L283.331 186.256ZM310.774 190.56C314.921 190.56 318.18 190.047 320.437 188.918L319.543 187.13C317.704 188.049 314.819 188.56 310.774 188.56V190.56ZM320.437 188.918C322.781 187.747 324.316 185.699 325.082 182.913L323.154 182.383C322.512 184.717 321.296 186.253 319.543 187.13L320.437 188.918ZM325.084 182.907C325.821 180.159 326.174 176.41 326.174 171.704H324.174C324.174 176.342 323.823 179.889 323.152 182.389L325.084 182.907ZM326.174 171.704C326.174 167.062 325.821 163.374 325.082 160.687L323.154 161.217C323.823 163.65 324.174 167.13 324.174 171.704H326.174ZM325.082 160.687C324.316 157.901 322.781 155.853 320.437 154.682L319.543 156.47C321.296 157.347 322.512 158.883 323.154 161.217L325.082 160.687ZM320.459 154.693C318.195 153.49 314.926 152.944 310.774 152.944V154.944C314.814 154.944 317.689 155.486 319.521 156.459L320.459 154.693ZM310.774 152.944C306.68 152.944 303.42 153.492 301.1 154.687L302.016 156.465C303.92 155.484 306.805 154.944 310.774 154.944V152.944ZM301.111 154.682C298.775 155.85 297.209 157.889 296.376 160.665L298.292 161.239C298.995 158.895 300.246 157.35 302.005 156.47L301.111 154.682ZM296.37 160.687C295.631 163.374 295.278 167.062 295.278 171.704H297.278C297.278 167.13 297.629 163.65 298.298 161.217L296.37 160.687ZM295.278 171.704C295.278 176.41 295.631 180.159 296.368 182.907L298.3 182.389C297.629 179.889 297.278 176.342 297.278 171.704H295.278ZM296.376 182.935C297.209 185.711 298.775 187.75 301.111 188.918L302.005 187.13C300.246 186.25 298.995 184.705 298.292 182.361L296.376 182.935ZM301.122 188.924C303.435 190.045 306.685 190.56 310.774 190.56V188.56C306.8 188.56 303.906 188.051 301.994 187.124L301.122 188.924ZM365.511 202.136V203.136H366.511V202.136H365.511ZM350.151 202.136H349.151V203.136H350.151V202.136ZM350.151 141.368V140.368H349.151V141.368H350.151ZM395.751 146.552L395.044 147.259L395.05 147.266L395.057 147.272L395.751 146.552ZM397.287 174.488L398.102 175.066L398.107 175.059L397.287 174.488ZM387.399 181.112L387.185 180.135L386.63 180.257L386.45 180.796L387.399 181.112ZM387.303 181.4L386.354 181.084L386.108 181.823L386.764 182.242L387.303 181.4ZM392.583 186.488L393.359 185.858L393.359 185.858L392.583 186.488ZM398.247 194.264L397.412 194.814L397.419 194.825L397.427 194.836L398.247 194.264ZM403.335 202.04H404.335V201.761L404.19 201.522L403.335 202.04ZM403.335 202.136V203.136H404.335V202.136H403.335ZM385.479 202.136L384.65 202.695L384.947 203.136H385.479V202.136ZM375.111 186.776L374.279 187.331L374.282 187.335L375.111 186.776ZM372.903 183.896L372.155 184.56L372.175 184.582L372.196 184.603L372.903 183.896ZM370.983 182.84L370.804 183.824L370.811 183.825L370.818 183.826L370.983 182.84ZM365.511 182.648V181.648H364.511V182.648H365.511ZM365.511 153.848V152.848H364.511V153.848H365.511ZM365.511 170.168H364.511V171.168H365.511V170.168ZM383.271 168.248L382.564 167.541L382.554 167.55L382.546 167.559L383.271 168.248ZM383.271 155.768L382.546 156.457L382.554 156.466L382.564 156.475L383.271 155.768ZM365.511 201.136H350.151V203.136H365.511V201.136ZM351.151 202.136V141.368H349.151V202.136H351.151ZM350.151 142.368H379.143V140.368H350.151V142.368ZM379.143 142.368C386.637 142.368 391.857 144.073 395.044 147.259L396.458 145.845C392.732 142.119 386.88 140.368 379.143 140.368V142.368ZM395.057 147.272C398.319 150.415 400.031 155.138 400.031 161.624H402.031C402.031 154.798 400.223 149.473 396.445 145.832L395.057 147.272ZM400.031 161.624C400.031 166.442 398.829 170.523 396.466 173.917L398.107 175.059C400.736 171.285 402.031 166.79 402.031 161.624H400.031ZM396.471 173.91C394.114 177.233 391.03 179.294 387.185 180.135L387.612 182.089C391.959 181.138 395.467 178.783 398.102 175.066L396.471 173.91ZM386.45 180.796L386.354 181.084L388.251 181.716L388.347 181.428L386.45 180.796ZM386.764 182.242C388.236 183.185 389.918 184.789 391.806 187.118L393.359 185.858C391.408 183.451 389.569 181.663 387.842 180.558L386.764 182.242ZM391.806 187.118C393.703 189.458 395.572 192.023 397.412 194.814L399.082 193.714C397.209 190.873 395.302 188.254 393.359 185.858L391.806 187.118ZM397.427 194.836C399.336 197.574 401.02 200.147 402.479 202.558L404.19 201.522C402.705 199.069 400.997 196.458 399.067 193.692L397.427 194.836ZM402.335 202.04V202.136H404.335V202.04H402.335ZM403.335 201.136H385.479V203.136H403.335V201.136ZM386.307 201.577L375.939 186.217L374.282 187.335L384.65 202.695L386.307 201.577ZM375.943 186.221C375.038 184.865 374.258 183.837 373.61 183.189L372.196 184.603C372.699 185.107 373.391 185.999 374.279 187.331L375.943 186.221ZM373.65 183.232C372.985 182.483 372.138 182.019 371.147 181.854L370.818 183.826C371.363 183.917 371.797 184.157 372.155 184.56L373.65 183.232ZM371.162 181.856C370.362 181.711 369.132 181.648 367.527 181.648V183.648C369.122 183.648 370.195 183.713 370.804 183.824L371.162 181.856ZM367.527 181.648H365.511V183.648H367.527V181.648ZM364.511 182.648V202.136H366.511V182.648H364.511ZM376.647 152.848H365.511V154.848H376.647V152.848ZM364.511 153.848V170.168H366.511V153.848H364.511ZM365.511 171.168H376.647V169.168H365.511V171.168ZM376.647 171.168C379.916 171.168 382.486 170.526 383.996 168.937L382.546 167.559C381.624 168.53 379.777 169.168 376.647 169.168V171.168ZM383.978 168.955C385.53 167.403 386.191 165.002 386.191 162.008H384.191C384.191 164.774 383.571 166.533 382.564 167.541L383.978 168.955ZM386.191 162.008C386.191 159.014 385.53 156.613 383.978 155.061L382.564 156.475C383.571 157.483 384.191 159.242 384.191 162.008H386.191ZM383.996 155.079C382.486 153.49 379.916 152.848 376.647 152.848V154.848C379.777 154.848 381.624 155.486 382.546 156.457L383.996 155.079ZM456.167 202.136V203.136H457.167V202.136H456.167ZM440.807 202.136H439.807V203.136H440.807V202.136ZM440.807 141.368V140.368H439.807V141.368H440.807ZM456.167 141.368H457.167V140.368H456.167V141.368ZM456.167 201.136H440.807V203.136H456.167V201.136ZM441.807 202.136V141.368H439.807V202.136H441.807ZM440.807 142.368H456.167V140.368H440.807V142.368ZM455.167 141.368V202.136H457.167V141.368H455.167ZM507.073 141.368V140.368H506.073V141.368H507.073ZM522.433 141.368H523.433V140.368H522.433V141.368ZM522.433 202.136V203.136H523.433V202.136H522.433ZM507.169 202.136L506.339 202.694L506.636 203.136H507.169V202.136ZM489.889 176.408L489.053 176.957L489.059 176.966L489.889 176.408ZM486.529 171.224L487.373 170.687L487.373 170.687L486.529 171.224ZM484.033 167L484.911 166.521L484.911 166.521L484.033 167ZM481.441 162.008L482.336 161.561L481.612 160.114L480.641 161.408L481.441 162.008ZM481.153 162.392L480.353 161.792L480.053 162.192L480.193 162.672L481.153 162.392ZM482.785 171.032L481.788 171.103L481.788 171.105L482.785 171.032ZM483.073 202.136V203.136H484.073V202.136H483.073ZM467.713 202.136H466.713V203.136H467.713V202.136ZM467.713 141.368V140.368H466.713V141.368H467.713ZM482.977 141.368L483.807 140.81L483.51 140.368H482.977V141.368ZM500.257 167.096L499.427 167.654L499.429 167.657L500.257 167.096ZM503.617 172.28L502.763 172.8L502.768 172.808L502.773 172.817L503.617 172.28ZM506.113 176.504L505.235 176.983L505.235 176.983L506.113 176.504ZM508.705 181.496L507.811 181.943L508.534 183.39L509.505 182.096L508.705 181.496ZM508.993 181.112L509.793 181.712L510.075 181.337L509.966 180.88L508.993 181.112ZM507.553 173.336L506.561 173.46L506.561 173.463L507.553 173.336ZM507.073 142.368H522.433V140.368H507.073V142.368ZM521.433 141.368V202.136H523.433V141.368H521.433ZM522.433 201.136H507.169V203.136H522.433V201.136ZM507.999 201.578L490.719 175.85L489.059 176.966L506.339 202.694L507.999 201.578ZM490.725 175.859C489.383 173.814 488.265 172.09 487.373 170.687L485.685 171.761C486.585 173.174 487.708 174.906 489.053 176.957L490.725 175.859ZM487.373 170.687C486.488 169.297 485.668 167.909 484.911 166.521L483.155 167.479C483.934 168.907 484.778 170.335 485.685 171.761L487.373 170.687ZM484.911 166.521C484.15 165.126 483.292 163.473 482.336 161.561L480.547 162.455C481.51 164.383 482.38 166.058 483.155 167.479L484.911 166.521ZM480.641 161.408L480.353 161.792L481.953 162.992L482.241 162.608L480.641 161.408ZM480.193 162.672C481.073 165.688 481.602 168.498 481.788 171.103L483.783 170.961C483.585 168.19 483.025 165.24 482.113 162.112L480.193 162.672ZM481.788 171.105C481.978 173.706 482.073 176.242 482.073 178.712H484.073C484.073 176.19 483.976 173.606 483.782 170.959L481.788 171.105ZM482.073 178.712V202.136H484.073V178.712H482.073ZM483.073 201.136H467.713V203.136H483.073V201.136ZM468.713 202.136V141.368H466.713V202.136H468.713ZM467.713 142.368H482.977V140.368H467.713V142.368ZM482.147 141.926L499.427 167.654L501.087 166.538L483.807 140.81L482.147 141.926ZM499.429 167.657C500.767 169.632 501.878 171.346 502.763 172.8L504.471 171.76C503.564 170.27 502.435 168.528 501.085 166.535L499.429 167.657ZM502.773 172.817C503.658 174.207 504.478 175.595 505.235 176.983L506.991 176.025C506.212 174.597 505.368 173.169 504.461 171.743L502.773 172.817ZM505.235 176.983C505.996 178.378 506.854 180.031 507.811 181.943L509.6 181.049C508.636 179.121 507.766 177.446 506.991 176.025L505.235 176.983ZM509.505 182.096L509.793 181.712L508.193 180.512L507.905 180.896L509.505 182.096ZM509.966 180.88C509.333 178.224 508.86 175.666 508.545 173.209L506.561 173.463C506.886 175.998 507.373 178.624 508.02 181.344L509.966 180.88ZM508.545 173.212C508.23 170.692 508.073 168.205 508.073 165.752H506.073C506.073 168.291 506.236 170.86 506.561 173.46L508.545 173.212ZM508.073 165.752V141.368H506.073V165.752H508.073ZM546.474 202.136H545.474V203.136H546.474V202.136ZM546.474 154.328H547.474V153.328H546.474V154.328ZM529.194 154.328H528.194V155.328H529.194V154.328ZM529.194 141.368V140.368H528.194V141.368H529.194ZM579.114 141.368H580.114V140.368H579.114V141.368ZM579.114 154.328V155.328H580.114V154.328H579.114ZM561.834 154.328V153.328H560.834V154.328H561.834ZM561.834 202.136V203.136H562.834V202.136H561.834ZM547.474 202.136V154.328H545.474V202.136H547.474ZM546.474 153.328H529.194V155.328H546.474V153.328ZM530.194 154.328V141.368H528.194V154.328H530.194ZM529.194 142.368H579.114V140.368H529.194V142.368ZM578.114 141.368V154.328H580.114V141.368H578.114ZM579.114 153.328H561.834V155.328H579.114V153.328ZM560.834 154.328V202.136H562.834V154.328H560.834ZM561.834 201.136H546.474V203.136H561.834V201.136ZM585.838 202.136H584.838V203.136H585.838V202.136ZM585.838 141.368V140.368H584.838V141.368H585.838ZM630.958 141.368H631.958V140.368H630.958V141.368ZM630.958 153.848V154.848H631.958V153.848H630.958ZM601.198 153.848V152.848H600.198V153.848H601.198ZM601.198 165.368H600.198V166.368H601.198V165.368ZM627.022 165.368H628.022V164.368H627.022V165.368ZM627.022 177.848V178.848H628.022V177.848H627.022ZM601.198 177.848V176.848H600.198V177.848H601.198ZM601.198 189.656H600.198V190.656H601.198V189.656ZM630.958 189.656H631.958V188.656H630.958V189.656ZM630.958 202.136V203.136H631.958V202.136H630.958ZM586.838 202.136V141.368H584.838V202.136H586.838ZM585.838 142.368H630.958V140.368H585.838V142.368ZM629.958 141.368V153.848H631.958V141.368H629.958ZM630.958 152.848H601.198V154.848H630.958V152.848ZM600.198 153.848V165.368H602.198V153.848H600.198ZM601.198 166.368H627.022V164.368H601.198V166.368ZM626.022 165.368V177.848H628.022V165.368H626.022ZM627.022 176.848H601.198V178.848H627.022V176.848ZM600.198 177.848V189.656H602.198V177.848H600.198ZM601.198 190.656H630.958V188.656H601.198V190.656ZM629.958 189.656V202.136H631.958V189.656H629.958ZM630.958 201.136H585.838V203.136H630.958V201.136ZM677.979 141.368V140.368H676.979V141.368H677.979ZM693.339 141.368H694.339V140.368H693.339V141.368ZM693.339 202.136V203.136H694.339V202.136H693.339ZM678.075 202.136L677.245 202.694L677.542 203.136H678.075V202.136ZM660.795 176.408L659.959 176.957L659.965 176.966L660.795 176.408ZM657.435 171.224L658.279 170.687L658.279 170.687L657.435 171.224ZM654.939 167L655.817 166.521L655.817 166.521L654.939 167ZM652.347 162.008L653.242 161.561L652.518 160.114L651.547 161.408L652.347 162.008ZM652.059 162.392L651.259 161.792L650.959 162.192L651.099 162.672L652.059 162.392ZM653.691 171.032L652.694 171.103L652.694 171.105L653.691 171.032ZM653.979 202.136V203.136H654.979V202.136H653.979ZM638.619 202.136H637.619V203.136H638.619V202.136ZM638.619 141.368V140.368H637.619V141.368H638.619ZM653.883 141.368L654.714 140.81L654.416 140.368H653.883V141.368ZM671.163 167.096L670.333 167.654L670.335 167.657L671.163 167.096ZM674.523 172.28L673.669 172.8L673.674 172.808L673.68 172.817L674.523 172.28ZM677.019 176.504L676.141 176.983L676.141 176.983L677.019 176.504ZM679.611 181.496L678.717 181.943L679.441 183.39L680.411 182.096L679.611 181.496ZM679.899 181.112L680.699 181.712L680.981 181.337L680.872 180.88L679.899 181.112ZM678.459 173.336L677.467 173.46L677.467 173.463L678.459 173.336ZM677.979 142.368H693.339V140.368H677.979V142.368ZM692.339 141.368V202.136H694.339V141.368H692.339ZM693.339 201.136H678.075V203.136H693.339V201.136ZM678.906 201.578L661.626 175.85L659.965 176.966L677.245 202.694L678.906 201.578ZM661.631 175.859C660.289 173.814 659.172 172.09 658.279 170.687L656.592 171.761C657.491 173.174 658.614 174.906 659.959 176.957L661.631 175.859ZM658.279 170.687C657.395 169.297 656.574 167.909 655.817 166.521L654.061 167.479C654.841 168.907 655.684 170.335 656.592 171.761L658.279 170.687ZM655.817 166.521C655.057 165.126 654.198 163.473 653.242 161.561L651.453 162.455C652.417 164.383 653.286 166.058 654.061 167.479L655.817 166.521ZM651.547 161.408L651.259 161.792L652.859 162.992L653.147 162.608L651.547 161.408ZM651.099 162.672C651.979 165.688 652.508 168.498 652.694 171.103L654.689 170.961C654.491 168.19 653.932 165.24 653.019 162.112L651.099 162.672ZM652.694 171.105C652.884 173.706 652.979 176.242 652.979 178.712H654.979C654.979 176.19 654.882 173.606 654.689 170.959L652.694 171.105ZM652.979 178.712V202.136H654.979V178.712H652.979ZM653.979 201.136H638.619V203.136H653.979V201.136ZM639.619 202.136V141.368H637.619V202.136H639.619ZM638.619 142.368H653.883V140.368H638.619V142.368ZM653.053 141.926L670.333 167.654L671.994 166.538L654.714 140.81L653.053 141.926ZM670.335 167.657C671.674 169.632 672.784 171.346 673.669 172.8L675.378 171.76C674.471 170.27 673.341 168.528 671.991 166.535L670.335 167.657ZM673.68 172.817C674.564 174.207 675.385 175.595 676.141 176.983L677.897 176.025C677.118 174.597 676.275 173.169 675.367 171.743L673.68 172.817ZM676.141 176.983C676.902 178.378 677.761 180.031 678.717 181.943L680.506 181.049C679.542 179.121 678.673 177.446 677.897 176.025L676.141 176.983ZM680.411 182.096L680.699 181.712L679.099 180.512L678.811 180.896L680.411 182.096ZM680.872 180.88C680.24 178.224 679.766 175.666 679.451 173.209L677.467 173.463C677.792 175.998 678.279 178.624 678.927 181.344L680.872 180.88ZM679.452 173.212C679.137 170.692 678.979 168.205 678.979 165.752H676.979C676.979 168.291 677.142 170.86 677.467 173.46L679.452 173.212ZM678.979 165.752V141.368H676.979V165.752H678.979ZM703.365 186.488L703.687 185.541L703.187 185.371L702.765 185.688L703.365 186.488ZM712.581 188.792L712.41 189.777L712.421 189.779L712.431 189.781L712.581 188.792ZM732.741 188.984L732.914 189.969L732.926 189.967L732.937 189.965L732.741 188.984ZM737.157 186.968L737.943 187.586L737.943 187.586L737.157 186.968ZM737.445 180.632L736.636 181.22L736.636 181.22L737.445 180.632ZM734.469 179L734.177 179.957L734.197 179.963L734.216 179.968L734.469 179ZM727.941 177.944L727.85 178.94L727.852 178.94L727.941 177.944ZM721.605 177.368L721.51 178.364L721.514 178.364L721.605 177.368ZM710.373 174.392L709.876 175.26L709.885 175.265L710.373 174.392ZM704.613 168.248L703.689 168.631L703.695 168.645L703.701 168.658L704.613 168.248ZM705.573 148.28L704.741 147.725L704.736 147.732L704.731 147.739L705.573 148.28ZM714.213 142.424L714.506 143.38L714.513 143.378L714.52 143.376L714.213 142.424ZM751.269 143.864L752.268 143.886L752.284 143.194L751.642 142.936L751.269 143.864ZM750.981 156.92L751.781 157.52L751.973 157.263L751.98 156.942L750.981 156.92ZM750.693 157.304L750.359 158.247L751.052 158.492L751.493 157.904L750.693 157.304ZM723.141 154.52L723.316 155.504L723.333 155.501L723.35 155.498L723.141 154.52ZM719.397 156.152L718.659 155.476L718.659 155.476L719.397 156.152ZM719.013 162.584L718.169 163.121L718.186 163.147L718.204 163.172L719.013 162.584ZM721.989 164.216L721.736 165.184L721.756 165.189L721.776 165.193L721.989 164.216ZM728.421 165.176L728.308 166.17L728.31 166.17L728.421 165.176ZM734.469 165.848L734.58 164.854L734.579 164.854L734.469 165.848ZM751.941 174.872L751.015 175.252L751.021 175.266L751.028 175.28L751.941 174.872ZM750.789 194.552L749.948 194.01L749.945 194.015L750.789 194.552ZM741.957 200.888L741.632 199.942L741.632 199.942L741.957 200.888ZM713.445 202.328L713.303 203.318L713.312 203.319L713.321 203.32L713.445 202.328ZM702.981 200.312H701.981V201.096L702.742 201.283L702.981 200.312ZM702.981 186.776L702.381 185.976L701.981 186.276V186.776H702.981ZM703.042 187.435C705.914 188.414 709.037 189.194 712.41 189.777L712.751 187.807C709.468 187.238 706.448 186.482 703.687 185.541L703.042 187.435ZM712.431 189.781C715.871 190.3 719.281 190.56 722.661 190.56V188.56C719.384 188.56 716.074 188.308 712.73 187.803L712.431 189.781ZM722.661 190.56C727.215 190.56 730.648 190.369 732.914 189.969L732.567 187.999C730.481 188.367 727.194 188.56 722.661 188.56V190.56ZM732.937 189.965C735.211 189.51 737.002 188.783 737.943 187.586L736.37 186.35C735.903 186.945 734.75 187.562 732.545 188.003L732.937 189.965ZM737.943 187.586C738.815 186.475 739.213 185.09 739.213 183.512H737.213C737.213 184.75 736.906 185.669 736.37 186.35L737.943 187.586ZM739.213 183.512C739.213 182.166 738.93 180.975 738.253 180.044L736.636 181.22C736.983 181.697 737.213 182.426 737.213 183.512H739.213ZM738.253 180.044C737.536 179.057 736.266 178.435 734.721 178.032L734.216 179.968C735.615 180.333 736.33 180.799 736.636 181.22L738.253 180.044ZM734.76 178.043C733.187 177.565 730.929 177.206 728.029 176.948L727.852 178.94C730.712 179.194 732.806 179.539 734.177 179.957L734.76 178.043ZM728.031 176.948L721.695 176.372L721.514 178.364L727.85 178.94L728.031 176.948ZM721.699 176.372C717.037 175.931 713.445 174.962 710.86 173.519L709.885 175.265C712.804 176.894 716.7 177.909 721.51 178.364L721.699 176.372ZM710.869 173.524C708.344 172.081 706.581 170.185 705.525 167.838L703.701 168.658C704.948 171.431 707.025 173.631 709.876 175.26L710.869 173.524ZM705.536 167.865C704.511 165.392 703.981 162.392 703.981 158.84H701.981C701.981 162.584 702.538 165.856 703.689 168.631L705.536 167.865ZM703.981 158.84C703.981 154.612 704.821 151.299 706.414 148.821L704.731 147.739C702.869 150.637 701.981 154.364 701.981 158.84H703.981ZM706.405 148.835C708.036 146.388 710.694 144.548 714.506 143.38L713.92 141.468C709.795 142.732 706.693 144.796 704.741 147.725L706.405 148.835ZM714.52 143.376C718.348 142.141 723.512 141.504 730.053 141.504V139.504C723.41 139.504 718.013 140.147 713.906 141.472L714.52 143.376ZM730.053 141.504C738.551 141.504 745.485 142.615 750.895 144.792L751.642 142.936C745.916 140.633 738.706 139.504 730.053 139.504V141.504ZM750.269 143.842L749.981 156.898L751.98 156.942L752.268 143.886L750.269 143.842ZM750.181 156.32L749.893 156.704L751.493 157.904L751.781 157.52L750.181 156.32ZM751.026 156.361C744.58 154.082 737.843 152.944 730.821 152.944V154.944C737.622 154.944 744.133 156.046 750.359 158.247L751.026 156.361ZM730.821 152.944C727.469 152.944 724.826 153.136 722.931 153.542L723.35 155.498C725.039 155.136 727.516 154.944 730.821 154.944V152.944ZM722.965 153.536C721.101 153.868 719.587 154.464 718.659 155.476L720.134 156.828C720.614 156.304 721.596 155.812 723.316 155.504L722.965 153.536ZM718.659 155.476C717.734 156.485 717.341 157.847 717.341 159.416H719.341C719.341 158.169 719.651 157.355 720.134 156.828L718.659 155.476ZM717.341 159.416C717.341 160.898 717.571 162.181 718.169 163.121L719.856 162.047C719.559 161.579 719.341 160.75 719.341 159.416H717.341ZM718.204 163.172C718.922 164.159 720.191 164.781 721.736 165.184L722.241 163.248C720.842 162.883 720.128 162.417 719.821 161.996L718.204 163.172ZM721.776 165.193C723.298 165.524 725.482 165.848 728.308 166.17L728.534 164.182C725.727 163.864 723.623 163.548 722.201 163.239L721.776 165.193ZM728.31 166.17L734.358 166.842L734.579 164.854L728.531 164.182L728.31 166.17ZM734.357 166.842C739.422 167.412 743.214 168.416 745.805 169.802L746.748 168.038C743.835 166.48 739.755 165.436 734.58 164.854L734.357 166.842ZM745.805 169.802C748.386 171.182 750.093 173.004 751.015 175.252L752.866 174.492C751.74 171.748 749.671 169.602 746.748 168.038L745.805 169.802ZM751.028 175.28C752.043 177.55 752.573 180.378 752.573 183.8H754.573C754.573 180.182 754.014 177.058 752.853 174.464L751.028 175.28ZM752.573 183.8C752.573 187.944 751.677 191.328 749.948 194.01L751.629 195.094C753.613 192.016 754.573 188.232 754.573 183.8H752.573ZM749.945 194.015C748.307 196.59 745.578 198.586 741.632 199.942L742.282 201.834C746.527 200.374 749.687 198.146 751.632 195.089L749.945 194.015ZM741.632 199.942C737.683 201.3 732.335 202 725.541 202V204C732.443 204 738.038 203.292 742.282 201.834L741.632 199.942ZM725.541 202C721.093 202 717.103 201.778 713.569 201.336L713.321 203.32C716.954 203.774 721.029 204 725.541 204V202ZM713.586 201.338C710.033 200.831 706.578 200.165 703.219 199.341L702.742 201.283C706.167 202.123 709.688 202.801 713.303 203.318L713.586 201.338ZM703.981 200.312V186.776H701.981V200.312H703.981ZM703.581 187.576L703.965 187.288L702.765 185.688L702.381 185.976L703.581 187.576ZM763.885 153.272L762.955 152.905L762.95 152.917L763.885 153.272ZM773.005 143.48L772.59 142.57L772.585 142.572L773.005 143.48ZM805.645 142.136L805.373 143.098L805.373 143.098L805.645 142.136ZM814.765 147.416L814.03 148.093L814.03 148.093L814.765 147.416ZM819.469 157.112L818.493 157.329L818.495 157.338L818.497 157.347L819.469 157.112ZM819.469 186.488L818.496 186.256L818.494 186.268L819.469 186.488ZM814.765 196.088L814.03 195.411L814.03 195.411L814.765 196.088ZM776.653 201.368L776.381 202.33L776.381 202.33L776.653 201.368ZM767.533 196.088L768.269 195.411L768.269 195.411L767.533 196.088ZM762.733 186.488L761.76 186.72L761.761 186.723L762.733 186.488ZM804.493 182.648L805.457 182.913L805.459 182.907L804.493 182.648ZM804.493 160.952L803.529 161.217L803.529 161.217L804.493 160.952ZM800.365 155.576L799.896 156.459L799.907 156.465L799.918 156.47L800.365 155.576ZM781.933 155.576L782.38 156.47L782.391 156.465L781.933 155.576ZM777.709 160.952L776.751 160.665L776.748 160.676L776.745 160.687L777.709 160.952ZM777.709 182.648L776.743 182.907L776.747 182.921L776.751 182.935L777.709 182.648ZM781.933 188.024L781.486 188.918L781.497 188.924L781.933 188.024ZM762.293 171.704C762.293 164.018 763.153 158.011 764.82 153.627L762.95 152.917C761.161 157.621 760.293 163.902 760.293 171.704H762.293ZM764.815 153.639C766.517 149.325 769.379 146.26 773.425 144.388L772.585 142.572C768.055 144.668 764.838 148.131 762.955 152.905L764.815 153.639ZM773.42 144.39C777.586 142.491 783.47 141.504 791.149 141.504V139.504C783.34 139.504 777.129 140.501 772.59 142.57L773.42 144.39ZM791.149 141.504C796.919 141.504 801.652 142.044 805.373 143.098L805.918 141.174C801.959 140.052 797.027 139.504 791.149 139.504V141.504ZM805.373 143.098C809.072 144.146 811.938 145.823 814.03 148.093L815.501 146.739C813.112 144.145 809.898 142.302 805.918 141.174L805.373 143.098ZM814.03 148.093C816.124 150.367 817.626 153.427 818.493 157.329L820.445 156.895C819.521 152.733 817.886 149.329 815.501 146.739L814.03 148.093ZM818.497 157.347C819.433 161.214 819.909 165.994 819.909 171.704H821.909C821.909 165.894 821.426 160.946 820.441 156.877L818.497 157.347ZM819.909 171.704C819.909 177.479 819.433 182.324 818.496 186.256L820.442 186.72C821.426 182.588 821.909 177.577 821.909 171.704H819.909ZM818.494 186.268C817.627 190.104 816.127 193.134 814.03 195.411L815.501 196.765C817.884 194.178 819.519 190.808 820.445 186.708L818.494 186.268ZM814.03 195.411C811.938 197.681 809.072 199.358 805.373 200.406L805.918 202.33C809.898 201.202 813.112 199.359 815.501 196.765L814.03 195.411ZM805.373 200.406C801.652 201.46 796.919 202 791.149 202V204C797.027 204 801.959 203.452 805.918 202.33L805.373 200.406ZM791.149 202C785.379 202 780.647 201.46 776.926 200.406L776.381 202.33C780.34 203.452 785.271 204 791.149 204V202ZM776.926 200.406C773.226 199.358 770.36 197.681 768.269 195.411L766.798 196.765C769.186 199.359 772.4 201.202 776.381 202.33L776.926 200.406ZM768.269 195.411C766.168 193.13 764.634 190.094 763.705 186.253L761.761 186.723C762.752 190.818 764.418 194.182 766.798 196.765L768.269 195.411ZM763.706 186.256C762.77 182.324 762.293 177.479 762.293 171.704H760.293C760.293 177.577 760.777 182.588 761.76 186.72L763.706 186.256ZM791.149 190.56C795.296 190.56 798.555 190.047 800.812 188.918L799.918 187.13C798.079 188.049 795.194 188.56 791.149 188.56V190.56ZM800.812 188.918C803.156 187.747 804.691 185.699 805.457 182.913L803.529 182.383C802.887 184.717 801.671 186.253 799.918 187.13L800.812 188.918ZM805.459 182.907C806.196 180.159 806.549 176.41 806.549 171.704H804.549C804.549 176.342 804.198 179.889 803.527 182.389L805.459 182.907ZM806.549 171.704C806.549 167.062 806.196 163.374 805.457 160.687L803.529 161.217C804.198 163.65 804.549 167.13 804.549 171.704H806.549ZM805.457 160.687C804.691 157.901 803.156 155.853 800.812 154.682L799.918 156.47C801.671 157.347 802.887 158.883 803.529 161.217L805.457 160.687ZM800.834 154.693C798.57 153.49 795.301 152.944 791.149 152.944V154.944C795.189 154.944 798.064 155.486 799.896 156.459L800.834 154.693ZM791.149 152.944C787.055 152.944 783.795 153.492 781.475 154.687L782.391 156.465C784.295 155.484 787.18 154.944 791.149 154.944V152.944ZM781.486 154.682C779.15 155.85 777.584 157.889 776.751 160.665L778.667 161.239C779.37 158.895 780.621 157.35 782.38 156.47L781.486 154.682ZM776.745 160.687C776.006 163.374 775.653 167.062 775.653 171.704H777.653C777.653 167.13 778.004 163.65 778.673 161.217L776.745 160.687ZM775.653 171.704C775.653 176.41 776.006 180.159 776.743 182.907L778.675 182.389C778.004 179.889 777.653 176.342 777.653 171.704H775.653ZM776.751 182.935C777.584 185.711 779.15 187.75 781.486 188.918L782.38 187.13C780.621 186.25 779.37 184.705 778.667 182.361L776.751 182.935ZM781.497 188.924C783.81 190.045 787.06 190.56 791.149 190.56V188.56C787.175 188.56 784.281 188.051 782.369 187.124L781.497 188.924Z" fill="black" mask="url(#path-1-outside-1_3_10)"/>
</svg>
